<?xml version="1.0" encoding="utf-8"?>
<!-- Generator: Adobe Illustrator 18.0.0, SVG Export Plug-In . SVG Version: 6.00 Build 0)  -->
<!DOCTYPE svg PUBLIC "-//W3C//DTD SVG 1.1//EN" "http://www.w3.org/Graphics/SVG/1.1/DTD/svg11.dtd">
<svg version="1.1" id="Layer_1" xmlns="http://www.w3.org/2000/svg" xmlns:xlink="http://www.w3.org/1999/xlink" x="0px" y="0px"
	 width="1268px" height="894px" viewBox="0 0 1268 894" enable-background="new 0 0 1268 894" xml:space="preserve">
<g>
	<g>
		<g>
			
				<linearGradient id="SVGID_1_" gradientUnits="userSpaceOnUse" x1="-2451.3872" y1="-3707.7742" x2="-2614.6267" y2="-3819.2283" gradientTransform="matrix(4.489700e-11 -1 1 4.489700e-11 4384.416 -2066.842)">
				<stop  offset="0.0886" style="stop-color:#3A3E3A"/>
				<stop  offset="0.3431" style="stop-color:#2E332E"/>
				<stop  offset="0.36" style="stop-color:#C0C1C2"/>
				<stop  offset="0.5134" style="stop-color:#3C3F3E"/>
				<stop  offset="0.6416" style="stop-color:#4B4E4B"/>
			</linearGradient>
			<path fill="url(#SVGID_1_)" d="M1259.72,70.92v752.16c0,33.68-27.3,60.98-60.98,60.98H69.26c-33.68,0-60.98-27.3-60.98-60.98
				V70.92c0-33.68,27.3-60.98,60.98-60.98h1129.48C1232.42,9.94,1259.72,37.24,1259.72,70.92z"/>
			
				<radialGradient id="SVGID_2_" cx="-2470.3442" cy="-3753.416" r="539.4188" gradientTransform="matrix(3.963956e-03 -1 1.412 5.597047e-03 5940.5186 -2045.8146)" gradientUnits="userSpaceOnUse">
				<stop  offset="0.8284" style="stop-color:#FFFFFF;stop-opacity:0.6"/>
				<stop  offset="0.9766" style="stop-color:#FFFFFF;stop-opacity:0"/>
			</radialGradient>
			<path fill="url(#SVGID_2_)" d="M1259.72,70.92v752.16c0,33.68-27.3,60.98-60.98,60.98H69.26c-33.68,0-60.98-27.3-60.98-60.98
				V70.92c0-33.68,27.3-60.98,60.98-60.98h1129.48C1232.42,9.94,1259.72,37.24,1259.72,70.92z"/>
			
				<linearGradient id="SVGID_3_" gradientUnits="userSpaceOnUse" x1="-2963.4268" y1="-4346.8853" x2="-2409.4644" y2="-3611.9375" gradientTransform="matrix(4.489700e-11 -1 1 4.489700e-11 4384.416 -2066.842)">
				<stop  offset="0" style="stop-color:#595C64"/>
				<stop  offset="0.6445" style="stop-color:#3C414A"/>
			</linearGradient>
			<path fill="url(#SVGID_3_)" d="M1253.39,823.08c0,30.14-24.52,54.65-54.65,54.65H69.26c-30.14,0-54.65-24.52-54.65-54.65V70.92
				c0-30.14,24.52-54.65,54.65-54.65h1129.48c30.14,0,54.65,24.52,54.65,54.65V823.08z"/>
			<path fill="#232323" d="M1250.74,823.08c0,28.67-23.33,52-52,52H69.26c-28.67,0-52-23.33-52-52V70.92c0-28.67,23.33-52,52-52
				h1129.48c28.67,0,52,23.33,52,52V823.08z"/>
			
				<linearGradient id="SVGID_4_" gradientUnits="userSpaceOnUse" x1="233.8425" y1="965.1191" x2="193.3289" y2="918.4902" gradientTransform="matrix(1 0 0 1 988.6555 -495.562)">
				<stop  offset="0.147" style="stop-color:#FFFFFF;stop-opacity:0.3"/>
				<stop  offset="0.4073" style="stop-color:#FFFFFF;stop-opacity:0"/>
				<stop  offset="0.7445" style="stop-color:#FFFFFF;stop-opacity:5.091080e-03"/>
				<stop  offset="1" style="stop-color:#FFFFFF;stop-opacity:0.2"/>
			</linearGradient>
			<path fill="url(#SVGID_4_)" d="M1202.12,418.1c-15.46,0-28,12.54-28,28c0,15.46,12.54,28,28,28c15.46,0,28-12.54,28-28
				C1230.12,430.64,1217.58,418.1,1202.12,418.1z M1202.12,471.54c-14.05,0-25.44-11.39-25.44-25.44
				c0-14.05,11.39-25.44,25.44-25.44c14.05,0,25.44,11.39,25.44,25.44C1227.56,460.15,1216.17,471.54,1202.12,471.54z"/>
			<g>
				<g>
					<circle fill="#5D5D5F" cx="77.21" cy="446.29" r="7.88"/>
					
						<radialGradient id="SVGID_5_" cx="-3229.6221" cy="-3148.0886" r="5.0472" gradientTransform="matrix(1.5612 0 0 1.5608 5119.3613 5360.9541)" gradientUnits="userSpaceOnUse">
						<stop  offset="0" style="stop-color:#000000;stop-opacity:0"/>
						<stop  offset="0.5149" style="stop-color:#020202;stop-opacity:0.4119"/>
						<stop  offset="0.7003" style="stop-color:#090909;stop-opacity:0.5603"/>
						<stop  offset="0.8325" style="stop-color:#141414;stop-opacity:0.666"/>
						<stop  offset="0.9387" style="stop-color:#252525;stop-opacity:0.7509"/>
						<stop  offset="1" style="stop-color:#333333;stop-opacity:0.8"/>
					</radialGradient>
					<circle fill="url(#SVGID_5_)" cx="77.21" cy="446.29" r="7.88"/>
					<circle fill="#1B1A1F" cx="77.21" cy="446.29" r="4.42"/>
					<circle fill="#36284C" cx="77.21" cy="446.29" r="3.23"/>
					
						<radialGradient id="SVGID_6_" cx="-3229.7581" cy="-3146.8899" r="3.9646" gradientTransform="matrix(1.5612 0 0 1.5608 5119.3613 5360.9541)" gradientUnits="userSpaceOnUse">
						<stop  offset="0" style="stop-color:#FFFFFF;stop-opacity:0.3"/>
						<stop  offset="1" style="stop-color:#000000;stop-opacity:0"/>
					</radialGradient>
					<circle fill="url(#SVGID_6_)" cx="77.21" cy="446.29" r="3.23"/>
					<g>
						<circle opacity="0.5" fill="#141414" cx="77.21" cy="446.29" r="1.78"/>
						
							<radialGradient id="SVGID_7_" cx="-3229.6462" cy="-3149.4023" r="1.3086" gradientTransform="matrix(1.5612 0 0 1.5608 5119.3613 5360.9541)" gradientUnits="userSpaceOnUse">
							<stop  offset="0" style="stop-color:#FFFFFF;stop-opacity:0.3"/>
							<stop  offset="1" style="stop-color:#000000;stop-opacity:0"/>
						</radialGradient>
						<circle fill="url(#SVGID_7_)" cx="77.21" cy="446.29" r="1.78"/>
					</g>
					
						<linearGradient id="SVGID_8_" gradientUnits="userSpaceOnUse" x1="-4237.2549" y1="-5560.7764" x2="-4237.2549" y2="-5559.8652" gradientTransform="matrix(1 0 0 1 4314.4648 6005.8047)">
						<stop  offset="0" style="stop-color:#FFFFFF;stop-opacity:0.6"/>
						<stop  offset="1" style="stop-color:#FFFFFF;stop-opacity:0.1"/>
					</linearGradient>
					<path fill="url(#SVGID_8_)" d="M77.21,444.96c-0.39,0-0.74,0.18-0.98,0.45l0.42,0.42c0.14-0.17,0.34-0.28,0.57-0.28
						c0.24,0,0.44,0.12,0.58,0.29l0.42-0.42C77.96,445.15,77.61,444.96,77.21,444.96z"/>
				</g>
			</g>
		</g>
	</g>
	<rect x="119.65" y="64.54" width="1024" height="768"/>
</g>
<g>
</g>
<g>
</g>
<g>
</g>
<g>
</g>
<g>
</g>
<g>
</g>
<g>
</g>
<g>
</g>
<g>
</g>
<g>
</g>
<g>
</g>
<g>
</g>
<g>
</g>
<g>
</g>
<g>
</g>
<g>
</g>
</svg>
