<?xml version="1.0" encoding="utf-8"?>
<!-- Generator: Adobe Illustrator 18.0.0, SVG Export Plug-In . SVG Version: 6.00 Build 0)  -->
<!DOCTYPE svg PUBLIC "-//W3C//DTD SVG 1.1//EN" "http://www.w3.org/Graphics/SVG/1.1/DTD/svg11.dtd">
<svg version="1.1" id="Layer_1" xmlns="http://www.w3.org/2000/svg" xmlns:xlink="http://www.w3.org/1999/xlink" x="0px" y="0px"
	 width="894px" height="1268px" viewBox="0 0 894 1268" enable-background="new 0 0 894 1268" xml:space="preserve">
<g>
	<g>
		<g>
			<linearGradient id="SVGID_1_" gradientUnits="userSpaceOnUse" x1="508.1368" y1="592.844" x2="344.4307" y2="703.6114">
				<stop  offset="0.0886" style="stop-color:#3A3E3A"/>
				<stop  offset="0.3431" style="stop-color:#2E332E"/>
				<stop  offset="0.36" style="stop-color:#C0C1C2"/>
				<stop  offset="0.5134" style="stop-color:#3C3F3E"/>
				<stop  offset="0.6416" style="stop-color:#4B4E4B"/>
			</linearGradient>
			<path fill="url(#SVGID_1_)" d="M824.32,1259.09H72.16c-33.68,0-60.98-27.3-60.98-60.98V68.63c0-33.68,27.3-60.98,60.98-60.98
				h752.16c33.68,0,60.98,27.3,60.98,60.98v1129.48C885.3,1231.79,858,1259.09,824.32,1259.09z"/>
			
				<radialGradient id="SVGID_2_" cx="449.7409" cy="597.3727" r="594.678" gradientTransform="matrix(1 3.963956e-03 -4.932117e-03 1.2442 2.9498 -147.6799)" gradientUnits="userSpaceOnUse">
				<stop  offset="0.8284" style="stop-color:#FFFFFF;stop-opacity:0.6"/>
				<stop  offset="0.9766" style="stop-color:#FFFFFF;stop-opacity:0"/>
			</radialGradient>
			<path fill="url(#SVGID_2_)" d="M824.32,1259.09H72.16c-33.68,0-60.98-27.3-60.98-60.98V68.63c0-33.68,27.3-60.98,60.98-60.98
				h752.16c33.68,0,60.98,27.3,60.98,60.98v1129.48C885.3,1231.79,858,1259.09,824.32,1259.09z"/>
			<linearGradient id="SVGID_3_" gradientUnits="userSpaceOnUse" x1="-1.3438" y1="36.9018" x2="552.6185" y2="771.8497">
				<stop  offset="0" style="stop-color:#595C64"/>
				<stop  offset="0.6445" style="stop-color:#3C414A"/>
			</linearGradient>
			<path fill="url(#SVGID_3_)" d="M72.16,1252.77c-30.14,0-54.65-24.52-54.65-54.65V68.63c0-30.14,24.52-54.65,54.65-54.65h752.16
				c30.14,0,54.65,24.52,54.65,54.65v1129.48c0,30.14-24.52,54.65-54.65,54.65H72.16z"/>
			<path fill="#232323" d="M72.16,1250.11c-28.67,0-52-23.33-52-52V68.63c0-28.67,23.33-52,52-52h752.16c28.67,0,52,23.33,52,52
				v1129.48c0,28.67-23.33,52-52,52H72.16z"/>
			<linearGradient id="SVGID_4_" gradientUnits="userSpaceOnUse" x1="469.5212" y1="1224.9452" x2="429.0077" y2="1178.3164">
				<stop  offset="0.147" style="stop-color:#FFFFFF;stop-opacity:0.3"/>
				<stop  offset="0.4073" style="stop-color:#FFFFFF;stop-opacity:0"/>
				<stop  offset="0.7445" style="stop-color:#FFFFFF;stop-opacity:5.091080e-03"/>
				<stop  offset="1" style="stop-color:#FFFFFF;stop-opacity:0.2"/>
			</linearGradient>
			<path fill="url(#SVGID_4_)" d="M449.14,1173.49c-15.46,0-28,12.54-28,28s12.54,28,28,28c15.46,0,28-12.54,28-28
				S464.6,1173.49,449.14,1173.49z M449.14,1226.93c-14.05,0-25.44-11.39-25.44-25.44s11.39-25.44,25.44-25.44
				s25.44,11.39,25.44,25.44S463.19,1226.93,449.14,1226.93z"/>
			<g>
				<linearGradient id="SVGID_5_" gradientUnits="userSpaceOnUse" x1="-119.8969" y1="351.2853" x2="262.584" y2="582.2737">
					<stop  offset="0" style="stop-color:#FFFFFF;stop-opacity:0.15"/>
					<stop  offset="1" style="stop-color:#FFFFFF;stop-opacity:0"/>
				</linearGradient>
				<path fill="url(#SVGID_5_)" d="M70.24,15.19c-27.62,0-50.09,22.47-50.09,50.09v1132.37c0,27.62,22.47,50.09,50.09,50.09h46.53
					L631.73,15.19H70.24z"/>
			</g>
			<g>
				<g>
					<circle fill="#5D5D5F" cx="448.95" cy="76.58" r="7.88"/>
					
						<radialGradient id="SVGID_6_" cx="-3145.8823" cy="-2898.9792" r="5.0472" gradientTransform="matrix(1.5612 0 0 1.5608 5360.3677 4602.4253)" gradientUnits="userSpaceOnUse">
						<stop  offset="0" style="stop-color:#000000;stop-opacity:0"/>
						<stop  offset="0.5149" style="stop-color:#020202;stop-opacity:0.4119"/>
						<stop  offset="0.7003" style="stop-color:#090909;stop-opacity:0.5603"/>
						<stop  offset="0.8325" style="stop-color:#141414;stop-opacity:0.666"/>
						<stop  offset="0.9387" style="stop-color:#252525;stop-opacity:0.7509"/>
						<stop  offset="1" style="stop-color:#333333;stop-opacity:0.8"/>
					</radialGradient>
					<circle fill="url(#SVGID_6_)" cx="448.95" cy="76.58" r="7.88"/>
					<circle fill="#1B1A1F" cx="448.95" cy="76.58" r="4.42"/>
					<circle fill="#36284C" cx="448.95" cy="76.58" r="3.23"/>
					
						<radialGradient id="SVGID_7_" cx="-3146.0186" cy="-2897.7805" r="3.9646" gradientTransform="matrix(1.5612 0 0 1.5608 5360.3677 4602.4253)" gradientUnits="userSpaceOnUse">
						<stop  offset="0" style="stop-color:#FFFFFF;stop-opacity:0.3"/>
						<stop  offset="1" style="stop-color:#000000;stop-opacity:0"/>
					</radialGradient>
					<circle fill="url(#SVGID_7_)" cx="448.95" cy="76.58" r="3.23"/>
					<g>
						<circle opacity="0.5" fill="#141414" cx="448.95" cy="76.58" r="1.78"/>
						
							<radialGradient id="SVGID_8_" cx="-3145.9067" cy="-2900.2927" r="1.3086" gradientTransform="matrix(1.5612 0 0 1.5608 5360.3677 4602.4253)" gradientUnits="userSpaceOnUse">
							<stop  offset="0" style="stop-color:#FFFFFF;stop-opacity:0.3"/>
							<stop  offset="1" style="stop-color:#000000;stop-opacity:0"/>
						</radialGradient>
						<circle fill="url(#SVGID_8_)" cx="448.95" cy="76.58" r="1.78"/>
					</g>
					
						<linearGradient id="SVGID_9_" gradientUnits="userSpaceOnUse" x1="-4001.5762" y1="-5300.9502" x2="-4001.5762" y2="-5300.0391" gradientTransform="matrix(1 0 0 1 4450.5269 5376.2598)">
						<stop  offset="0" style="stop-color:#FFFFFF;stop-opacity:0.6"/>
						<stop  offset="1" style="stop-color:#FFFFFF;stop-opacity:0.1"/>
					</linearGradient>
					<path fill="url(#SVGID_9_)" d="M448.95,75.24c-0.39,0-0.74,0.18-0.98,0.45l0.42,0.42c0.14-0.17,0.34-0.28,0.57-0.28
						c0.24,0,0.44,0.12,0.58,0.29l0.42-0.42C449.7,75.43,449.35,75.24,448.95,75.24z"/>
				</g>
			</g>
		</g>
	</g>
</g>
<rect x="63" y="121" width="768" height="1024"/>
</svg>
