<?xml version="1.0" encoding="utf-8"?>
<!-- Generator: Adobe Illustrator 18.0.0, SVG Export Plug-In . SVG Version: 6.00 Build 0)  -->
<!DOCTYPE svg PUBLIC "-//W3C//DTD SVG 1.1//EN" "http://www.w3.org/Graphics/SVG/1.1/DTD/svg11.dtd">
<svg version="1.1" id="Layer_1" xmlns="http://www.w3.org/2000/svg" xmlns:xlink="http://www.w3.org/1999/xlink" x="0px" y="0px"
	 width="382px" height="804px" viewBox="0 0 382 804" enable-background="new 0 0 382 804" xml:space="preserve">
<g>
	<g>
		<path fill="#808086" d="M11.13,145.09H7.41c-1.02,0-1.84-0.83-1.84-1.84v-30.56c0-1.02,0.83-1.84,1.84-1.84h3.73V145.09z"/>
	</g>
	<g>
		<path fill="#808086" d="M249.41,9.73V6c0-1.02,0.83-1.84,1.84-1.84l55.58,0c1.02,0,1.84,0.83,1.84,1.84v3.73L249.41,9.73z"/>
	</g>
	<g>
		<path fill="#808086" d="M5.76,186.42c0-1.03,0.83-1.86,1.86-1.86h3.72v28.1H7.61c-1.03,0-1.86-0.83-1.86-1.86V186.42z"/>
	</g>
	<g>
		<path fill="#808086" d="M5.76,252.76c0-1.03,0.83-1.86,1.86-1.86h3.72V279H7.61c-1.03,0-1.86-0.83-1.86-1.86V252.76z"/>
	</g>
	<linearGradient id="SVGID_1_" gradientUnits="userSpaceOnUse" x1="226.7007" y1="388.6375" x2="134.9365" y2="430.645">
		<stop  offset="0.0886" style="stop-color:#3A3E3A"/>
		<stop  offset="0.3431" style="stop-color:#2E332E"/>
		<stop  offset="0.36" style="stop-color:#C0C1C2"/>
		<stop  offset="0.5134" style="stop-color:#3C3F3E"/>
		<stop  offset="0.6416" style="stop-color:#4B4E4B"/>
	</linearGradient>
	<path fill="url(#SVGID_1_)" d="M65.61,798.65c-31.19,0-56.57-25.38-56.57-56.57V65.5c0-31.19,25.38-56.57,56.57-56.57h256
		c31.19,0,56.57,25.38,56.57,56.57v676.58c0,31.19-25.38,56.57-56.57,56.57H65.61z"/>
	<linearGradient id="SVGID_2_" gradientUnits="userSpaceOnUse" x1="-51.8645" y1="78.1088" x2="250.6025" y2="479.3951">
		<stop  offset="0" style="stop-color:#787A81"/>
		<stop  offset="0.6353" style="stop-color:#50555D"/>
	</linearGradient>
	<path fill="url(#SVGID_2_)" d="M65.61,794.57c-28.95,0-52.5-23.55-52.5-52.5V65.5c0-28.95,23.55-52.5,52.5-52.5h256
		c28.95,0,52.5,23.55,52.5,52.5v676.58c0,28.95-23.55,52.5-52.5,52.5H65.61z"/>
	<rect x="9.04" y="75.96" fill="#2E2E2E" width="6.69" height="6"/>
	<rect x="371.45" y="75.96" fill="#1F1F1F" width="6.74" height="6"/>
	<rect x="9.04" y="725.17" fill="#2E2E2E" width="6.69" height="6"/>
	<rect x="371.45" y="725.17" fill="#1F1F1F" width="6.74" height="6"/>
	<path fill="#232323" d="M65.61,792.02c-27.54,0-49.95-22.41-49.95-49.95V65.5c0-27.54,22.41-49.95,49.95-49.95h256
		c27.54,0,49.95,22.41,49.95,49.95v676.58c0,27.54-22.41,49.95-49.95,49.95H65.61z"/>
	<linearGradient id="SVGID_3_" gradientUnits="userSpaceOnUse" x1="216.4615" y1="768.8037" x2="171.03" y2="716.5145">
		<stop  offset="0.147" style="stop-color:#FFFFFF;stop-opacity:0.3"/>
		<stop  offset="0.4073" style="stop-color:#FFFFFF;stop-opacity:0"/>
		<stop  offset="0.7445" style="stop-color:#FFFFFF;stop-opacity:5.091080e-03"/>
		<stop  offset="1" style="stop-color:#FFFFFF;stop-opacity:0.2"/>
	</linearGradient>
	<path fill="url(#SVGID_3_)" d="M193.61,711.1c-17.34,0-31.4,14.06-31.4,31.4c0,17.34,14.06,31.4,31.4,31.4s31.4-14.06,31.4-31.4
		C225.01,725.16,210.95,711.1,193.61,711.1z M193.61,771.03c-15.75,0-28.53-12.77-28.53-28.53c0-15.75,12.77-28.53,28.53-28.53
		s28.53,12.77,28.53,28.53C222.13,758.25,209.36,771.03,193.61,771.03z"/>
	<g>
		<g>
			<circle fill="#5D5D5F" cx="193.61" cy="48.44" r="8"/>
			
				<radialGradient id="SVGID_4_" cx="-3400.2075" cy="-3005.1194" r="5.1243" gradientTransform="matrix(1.5612 0 0 1.5608 5502.0825 4739.9697)" gradientUnits="userSpaceOnUse">
				<stop  offset="0" style="stop-color:#000000;stop-opacity:0"/>
				<stop  offset="0.5149" style="stop-color:#020202;stop-opacity:0.4119"/>
				<stop  offset="0.7003" style="stop-color:#090909;stop-opacity:0.5603"/>
				<stop  offset="0.8325" style="stop-color:#141414;stop-opacity:0.666"/>
				<stop  offset="0.9387" style="stop-color:#252525;stop-opacity:0.7509"/>
				<stop  offset="1" style="stop-color:#333333;stop-opacity:0.8"/>
			</radialGradient>
			<circle fill="url(#SVGID_4_)" cx="193.61" cy="48.44" r="8"/>
			<circle fill="#1B1A1F" cx="193.61" cy="48.44" r="4.48"/>
			<circle fill="#36284C" cx="193.61" cy="48.44" r="3.28"/>
			
				<radialGradient id="SVGID_5_" cx="-3400.3457" cy="-3003.9023" r="4.0252" gradientTransform="matrix(1.5612 0 0 1.5608 5502.0825 4739.9697)" gradientUnits="userSpaceOnUse">
				<stop  offset="0" style="stop-color:#FFFFFF;stop-opacity:0.3"/>
				<stop  offset="1" style="stop-color:#000000;stop-opacity:0"/>
			</radialGradient>
			<circle fill="url(#SVGID_5_)" cx="193.61" cy="48.44" r="3.28"/>
			<g>
				<circle opacity="0.5" fill="#141414" cx="193.61" cy="48.44" r="1.8"/>
				
					<radialGradient id="SVGID_6_" cx="-3400.2322" cy="-3006.4531" r="1.3286" gradientTransform="matrix(1.5612 0 0 1.5608 5502.0825 4739.9697)" gradientUnits="userSpaceOnUse">
					<stop  offset="0" style="stop-color:#FFFFFF;stop-opacity:0.3"/>
					<stop  offset="1" style="stop-color:#000000;stop-opacity:0"/>
				</radialGradient>
				<circle fill="url(#SVGID_6_)" cx="193.61" cy="48.44" r="1.8"/>
			</g>
			
				<linearGradient id="SVGID_7_" gradientUnits="userSpaceOnUse" x1="-4256.915" y1="-5329.1064" x2="-4256.915" y2="-5328.1812" gradientTransform="matrix(1 0 0 1 4450.5269 5376.2598)">
				<stop  offset="0" style="stop-color:#FFFFFF;stop-opacity:0.6"/>
				<stop  offset="1" style="stop-color:#FFFFFF;stop-opacity:0.1"/>
			</linearGradient>
			<path fill="url(#SVGID_7_)" d="M193.61,47.09c-0.4,0-0.75,0.18-1,0.46l0.42,0.42c0.14-0.17,0.34-0.28,0.57-0.28
				c0.24,0,0.44,0.12,0.58,0.3l0.42-0.42C194.37,47.27,194.01,47.09,193.61,47.09z"/>
		</g>
	</g>
	<g>
		<linearGradient id="SVGID_8_" gradientUnits="userSpaceOnUse" x1="-22.3527" y1="107.2758" x2="97.7397" y2="227.3682">
			<stop  offset="0" style="stop-color:#FFFFFF;stop-opacity:0.15"/>
			<stop  offset="1" style="stop-color:#FFFFFF;stop-opacity:0"/>
		</linearGradient>
		<path fill="url(#SVGID_8_)" d="M65.61,15.55c-27.54,0-49.95,22.41-49.95,49.95v492.99L299.11,15.55H65.61z"/>
	</g>
	<g>
		<defs>
			<path id="SVGID_9_" d="M220.92,81.25H166.3c-2.37,0-4.29-1.92-4.29-4.29v0c0-2.37,1.92-4.29,4.29-4.29h54.62
				c2.37,0,4.29,1.92,4.29,4.29v0C225.21,79.33,223.29,81.25,220.92,81.25z"/>
		</defs>
		<clipPath id="SVGID_10_">
			<use xlink:href="#SVGID_9_"  overflow="visible"/>
		</clipPath>
		
			<linearGradient id="SVGID_11_" gradientUnits="userSpaceOnUse" x1="159.9343" y1="157.2654" x2="159.9343" y2="148.5585" gradientTransform="matrix(0.9926 0 0 0.9847 34.8686 -73.6184)">
			<stop  offset="0" style="stop-color:#2E2E31"/>
			<stop  offset="0.2448" style="stop-color:#616161"/>
			<stop  offset="0.8137" style="stop-color:#858585"/>
			<stop  offset="1" style="stop-color:#2E2E31"/>
		</linearGradient>
		<path opacity="0.8" clip-path="url(#SVGID_10_)" fill="url(#SVGID_11_)" d="M222.92,81.25H164.3c-2.37,0-4.29-1.92-4.29-4.29v0
			c0-2.37,1.92-4.29,4.29-4.29h58.62c2.37,0,4.29,1.92,4.29,4.29v0C227.21,79.33,225.29,81.25,222.92,81.25z"/>
		<path clip-path="url(#SVGID_10_)" fill="#2E2E2E" d="M161.42,72.56h-1.47v1.47h1.47V72.56z M164.36,72.56h-1.47v1.47h1.47V72.56z
			 M167.29,72.56h-1.47v1.47h1.47V72.56z M170.23,72.56h-1.47v1.47h1.47V72.56z M173.16,72.56h-1.47v1.47h1.47V72.56z M176.1,72.56
			h-1.47v1.47h1.47V72.56z M179.03,72.56h-1.47v1.47h1.47V72.56z M181.97,72.56h-1.47v1.47h1.47V72.56z M184.9,72.56h-1.47v1.47
			h1.47V72.56z M187.84,72.56h-1.47v1.47h1.47V72.56z M190.77,72.56h-1.47v1.47h1.47V72.56z M193.71,72.56h-1.47v1.47h1.47V72.56z
			 M196.64,72.56h-1.47v1.47h1.47V72.56z M199.58,72.56h-1.47v1.47h1.47V72.56z M202.51,72.56h-1.47v1.47h1.47V72.56z M205.45,72.56
			h-1.47v1.47h1.47V72.56z M208.38,72.56h-1.47v1.47h1.47V72.56z M211.32,72.56h-1.47v1.47h1.47V72.56z M214.25,72.56h-1.47v1.47
			h1.47V72.56z M217.19,72.56h-1.47v1.47h1.47V72.56z M220.12,72.56h-1.47v1.47h1.47V72.56z M223.06,72.56h-1.47v1.47h1.47V72.56z
			 M225.99,72.56h-1.47v1.47h1.47V72.56z M162.89,74.02h-1.47v1.47h1.47V74.02z M165.82,74.02h-1.47v1.47h1.47V74.02z M168.76,74.02
			h-1.47v1.47h1.47V74.02z M171.69,74.02h-1.47v1.47h1.47V74.02z M174.63,74.02h-1.47v1.47h1.47V74.02z M177.56,74.02h-1.47v1.47
			h1.47V74.02z M180.5,74.02h-1.47v1.47h1.47V74.02z M183.43,74.02h-1.47v1.47h1.47V74.02z M186.37,74.02h-1.47v1.47h1.47V74.02z
			 M189.3,74.02h-1.47v1.47h1.47V74.02z M192.24,74.02h-1.47v1.47h1.47V74.02z M195.17,74.02h-1.47v1.47h1.47V74.02z M198.11,74.02
			h-1.47v1.47h1.47V74.02z M201.04,74.02h-1.47v1.47h1.47V74.02z M203.98,74.02h-1.47v1.47h1.47V74.02z M206.91,74.02h-1.47v1.47
			h1.47V74.02z M209.85,74.02h-1.47v1.47h1.47V74.02z M212.78,74.02h-1.47v1.47h1.47V74.02z M215.72,74.02h-1.47v1.47h1.47V74.02z
			 M218.65,74.02h-1.47v1.47h1.47V74.02z M221.59,74.02h-1.47v1.47h1.47V74.02z M224.52,74.02h-1.47v1.47h1.47V74.02z M227.46,74.02
			h-1.47v1.47h1.47V74.02z M161.42,75.49h-1.47v1.47h1.47V75.49z M164.36,75.49h-1.47v1.47h1.47V75.49z M167.29,75.49h-1.47v1.47
			h1.47V75.49z M170.23,75.49h-1.47v1.47h1.47V75.49z M173.16,75.49h-1.47v1.47h1.47V75.49z M176.1,75.49h-1.47v1.47h1.47V75.49z
			 M179.03,75.49h-1.47v1.47h1.47V75.49z M181.97,75.49h-1.47v1.47h1.47V75.49z M184.9,75.49h-1.47v1.47h1.47V75.49z M187.84,75.49
			h-1.47v1.47h1.47V75.49z M190.77,75.49h-1.47v1.47h1.47V75.49z M193.71,75.49h-1.47v1.47h1.47V75.49z M196.64,75.49h-1.47v1.47
			h1.47V75.49z M199.58,75.49h-1.47v1.47h1.47V75.49z M202.51,75.49h-1.47v1.47h1.47V75.49z M205.45,75.49h-1.47v1.47h1.47V75.49z
			 M208.38,75.49h-1.47v1.47h1.47V75.49z M211.32,75.49h-1.47v1.47h1.47V75.49z M214.25,75.49h-1.47v1.47h1.47V75.49z M217.19,75.49
			h-1.47v1.47h1.47V75.49z M220.12,75.49h-1.47v1.47h1.47V75.49z M223.06,75.49h-1.47v1.47h1.47V75.49z M225.99,75.49h-1.47v1.47
			h1.47V75.49z M162.89,76.96h-1.47v1.47h1.47V76.96z M165.82,76.96h-1.47v1.47h1.47V76.96z M168.76,76.96h-1.47v1.47h1.47V76.96z
			 M171.69,76.96h-1.47v1.47h1.47V76.96z M174.63,76.96h-1.47v1.47h1.47V76.96z M177.56,76.96h-1.47v1.47h1.47V76.96z M180.5,76.96
			h-1.47v1.47h1.47V76.96z M183.43,76.96h-1.47v1.47h1.47V76.96z M186.37,76.96h-1.47v1.47h1.47V76.96z M189.3,76.96h-1.47v1.47
			h1.47V76.96z M192.24,76.96h-1.47v1.47h1.47V76.96z M195.17,76.96h-1.47v1.47h1.47V76.96z M198.11,76.96h-1.47v1.47h1.47V76.96z
			 M201.04,76.96h-1.47v1.47h1.47V76.96z M203.98,76.96h-1.47v1.47h1.47V76.96z M206.91,76.96h-1.47v1.47h1.47V76.96z M209.85,76.96
			h-1.47v1.47h1.47V76.96z M212.78,76.96h-1.47v1.47h1.47V76.96z M215.72,76.96h-1.47v1.47h1.47V76.96z M218.65,76.96h-1.47v1.47
			h1.47V76.96z M221.59,76.96h-1.47v1.47h1.47V76.96z M224.52,76.96h-1.47v1.47h1.47V76.96z M227.46,76.96h-1.47v1.47h1.47V76.96z
			 M161.42,78.43h-1.47v1.47h1.47V78.43z M164.36,78.43h-1.47v1.47h1.47V78.43z M167.29,78.43h-1.47v1.47h1.47V78.43z M170.23,78.43
			h-1.47v1.47h1.47V78.43z M173.16,78.43h-1.47v1.47h1.47V78.43z M176.1,78.43h-1.47v1.47h1.47V78.43z M179.03,78.43h-1.47v1.47
			h1.47V78.43z M181.97,78.43h-1.47v1.47h1.47V78.43z M184.9,78.43h-1.47v1.47h1.47V78.43z M187.84,78.43h-1.47v1.47h1.47V78.43z
			 M190.77,78.43h-1.47v1.47h1.47V78.43z M193.71,78.43h-1.47v1.47h1.47V78.43z M196.64,78.43h-1.47v1.47h1.47V78.43z M199.58,78.43
			h-1.47v1.47h1.47V78.43z M202.51,78.43h-1.47v1.47h1.47V78.43z M205.45,78.43h-1.47v1.47h1.47V78.43z M208.38,78.43h-1.47v1.47
			h1.47V78.43z M211.32,78.43h-1.47v1.47h1.47V78.43z M214.25,78.43h-1.47v1.47h1.47V78.43z M217.19,78.43h-1.47v1.47h1.47V78.43z
			 M220.12,78.43h-1.47v1.47h1.47V78.43z M223.06,78.43h-1.47v1.47h1.47V78.43z M225.99,78.43h-1.47v1.47h1.47V78.43z M162.89,79.89
			h-1.47v1.47h1.47V79.89z M165.82,79.89h-1.47v1.47h1.47V79.89z M168.76,79.89h-1.47v1.47h1.47V79.89z M171.69,79.89h-1.47v1.47
			h1.47V79.89z M174.63,79.89h-1.47v1.47h1.47V79.89z M177.56,79.89h-1.47v1.47h1.47V79.89z M180.5,79.89h-1.47v1.47h1.47V79.89z
			 M183.43,79.89h-1.47v1.47h1.47V79.89z M186.37,79.89h-1.47v1.47h1.47V79.89z M189.3,79.89h-1.47v1.47h1.47V79.89z M192.24,79.89
			h-1.47v1.47h1.47V79.89z M195.17,79.89h-1.47v1.47h1.47V79.89z M198.11,79.89h-1.47v1.47h1.47V79.89z M201.04,79.89h-1.47v1.47
			h1.47V79.89z M203.98,79.89h-1.47v1.47h1.47V79.89z M206.91,79.89h-1.47v1.47h1.47V79.89z M209.85,79.89h-1.47v1.47h1.47V79.89z
			 M212.78,79.89h-1.47v1.47h1.47V79.89z M215.72,79.89h-1.47v1.47h1.47V79.89z M218.65,79.89h-1.47v1.47h1.47V79.89z M221.59,79.89
			h-1.47v1.47h1.47V79.89z M224.52,79.89h-1.47v1.47h1.47V79.89z M227.46,79.89h-1.47v1.47h1.47V79.89z"/>
		<path opacity="0.2" clip-path="url(#SVGID_10_)" d="M223.33,72.31h-59.44c-2.4,0-4.35,2.08-4.35,4.65c0,2.57,1.95,4.65,4.35,4.65
			h59.44c2.4,0,4.35-2.08,4.35-4.65C227.68,74.39,225.73,72.31,223.33,72.31z M222.92,80.15H164.3c-1.76,0-3.2-1.43-3.2-3.2
			c0-1.76,1.43-3.2,3.2-3.2h58.62c1.76,0,3.2,1.43,3.2,3.2C226.12,78.72,224.68,80.15,222.92,80.15z"/>
	</g>
</g>
<rect x="33.48" y="118.74" width="320" height="568"/>
</svg>
