<?xml version="1.0" encoding="utf-8"?>
<!-- Generator: Adobe Illustrator 18.0.0, SVG Export Plug-In . SVG Version: 6.00 Build 0)  -->
<!DOCTYPE svg PUBLIC "-//W3C//DTD SVG 1.1//EN" "http://www.w3.org/Graphics/SVG/1.1/DTD/svg11.dtd">
<svg version="1.1" id="Layer_1" xmlns="http://www.w3.org/2000/svg" xmlns:xlink="http://www.w3.org/1999/xlink" x="0px" y="0px"
	 width="804px" height="382px" viewBox="0 0 804 382" enable-background="new 0 0 804 382" xml:space="preserve">
<g>
	<g>
		<path fill="#808086" d="M145.69,371.74v3.73c0,1.02-0.83,1.84-1.84,1.84h-30.56c-1.02,0-1.84-0.83-1.84-1.84v-3.73H145.69z"/>
	</g>
	<g>
		<path fill="#808086" d="M10.33,133.47H6.6c-1.02,0-1.84-0.83-1.84-1.84l0-55.58c0-1.02,0.83-1.84,1.84-1.84h3.73L10.33,133.47z"/>
	</g>
	<g>
		<path fill="#808086" d="M187.02,377.12c-1.03,0-1.86-0.83-1.86-1.86v-3.72h28.1v3.72c0,1.03-0.83,1.86-1.86,1.86H187.02z"/>
	</g>
	<g>
		<path fill="#808086" d="M253.35,377.12c-1.03,0-1.86-0.83-1.86-1.86v-3.72h28.1v3.72c0,1.03-0.83,1.86-1.86,1.86H253.35z"/>
	</g>
	
		<linearGradient id="SVGID_1_" gradientUnits="userSpaceOnUse" x1="-5365.6909" y1="-1462.8073" x2="-5457.4551" y2="-1420.7998" gradientTransform="matrix(4.489700e-11 -1 1 4.489700e-11 1852.0415 -5209.5186)">
		<stop  offset="0.0886" style="stop-color:#3A3E3A"/>
		<stop  offset="0.3431" style="stop-color:#2E332E"/>
		<stop  offset="0.36" style="stop-color:#C0C1C2"/>
		<stop  offset="0.5134" style="stop-color:#3C3F3E"/>
		<stop  offset="0.6416" style="stop-color:#4B4E4B"/>
	</linearGradient>
	<path fill="url(#SVGID_1_)" d="M799.24,317.26c0,31.19-25.38,56.57-56.57,56.57H66.09c-31.19,0-56.57-25.38-56.57-56.57v-256
		c0-31.19,25.38-56.57,56.57-56.57h676.58c31.19,0,56.57,25.38,56.57,56.57V317.26z"/>
	
		<linearGradient id="SVGID_2_" gradientUnits="userSpaceOnUse" x1="-5644.2563" y1="-1773.3359" x2="-5341.7891" y2="-1372.0497" gradientTransform="matrix(4.489700e-11 -1 1 4.489700e-11 1852.0415 -5209.5186)">
		<stop  offset="0" style="stop-color:#787A81"/>
		<stop  offset="0.6353" style="stop-color:#50555D"/>
	</linearGradient>
	<path fill="url(#SVGID_2_)" d="M795.17,317.26c0,28.95-23.55,52.5-52.5,52.5H66.09c-28.95,0-52.5-23.55-52.5-52.5v-256
		c0-28.95,23.55-52.5,52.5-52.5h676.58c28.95,0,52.5,23.55,52.5,52.5V317.26z"/>
	<rect x="76.56" y="367.15" fill="#2E2E2E" width="6" height="6.69"/>
	<rect x="76.56" y="4.69" fill="#1F1F1F" width="6" height="6.74"/>
	<rect x="725.76" y="367.15" fill="#2E2E2E" width="6" height="6.69"/>
	<rect x="725.76" y="4.69" fill="#1F1F1F" width="6" height="6.74"/>
	<path fill="#232323" d="M792.62,317.26c0,27.54-22.41,49.95-49.95,49.95H66.09c-27.54,0-49.95-22.41-49.95-49.95v-256
		c0-27.54,22.41-49.95,49.95-49.95h676.58c27.54,0,49.95,22.41,49.95,49.95V317.26z"/>
	
		<linearGradient id="SVGID_3_" gradientUnits="userSpaceOnUse" x1="64.2553" y1="390.7849" x2="18.8238" y2="338.4957" gradientTransform="matrix(1 0 0 1 701.6954 -175.2144)">
		<stop  offset="0.147" style="stop-color:#FFFFFF;stop-opacity:0.3"/>
		<stop  offset="0.4073" style="stop-color:#FFFFFF;stop-opacity:0"/>
		<stop  offset="0.7445" style="stop-color:#FFFFFF;stop-opacity:5.091080e-03"/>
		<stop  offset="1" style="stop-color:#FFFFFF;stop-opacity:0.2"/>
	</linearGradient>
	<path fill="url(#SVGID_3_)" d="M743.1,157.87c-17.34,0-31.4,14.06-31.4,31.4s14.06,31.4,31.4,31.4s31.4-14.06,31.4-31.4
		S760.44,157.87,743.1,157.87z M743.1,217.79c-15.75,0-28.53-12.77-28.53-28.53s12.77-28.53,28.53-28.53s28.53,12.77,28.53,28.53
		S758.85,217.79,743.1,217.79z"/>
	<g>
		<g>
			<circle fill="#5D5D5F" cx="49.04" cy="189.27" r="8"/>
			
				<radialGradient id="SVGID_4_" cx="-3423.104" cy="-3241.8303" r="5.1243" gradientTransform="matrix(1.5612 0 0 1.5608 5393.2573 5250.2544)" gradientUnits="userSpaceOnUse">
				<stop  offset="0" style="stop-color:#000000;stop-opacity:0"/>
				<stop  offset="0.5149" style="stop-color:#020202;stop-opacity:0.4119"/>
				<stop  offset="0.7003" style="stop-color:#090909;stop-opacity:0.5603"/>
				<stop  offset="0.8325" style="stop-color:#141414;stop-opacity:0.666"/>
				<stop  offset="0.9387" style="stop-color:#252525;stop-opacity:0.7509"/>
				<stop  offset="1" style="stop-color:#333333;stop-opacity:0.8"/>
			</radialGradient>
			<circle fill="url(#SVGID_4_)" cx="49.04" cy="189.27" r="8"/>
			<circle fill="#1B1A1F" cx="49.04" cy="189.27" r="4.48"/>
			<circle fill="#36284C" cx="49.04" cy="189.27" r="3.28"/>
			
				<radialGradient id="SVGID_5_" cx="-3423.2422" cy="-3240.6133" r="4.0252" gradientTransform="matrix(1.5612 0 0 1.5608 5393.2573 5250.2544)" gradientUnits="userSpaceOnUse">
				<stop  offset="0" style="stop-color:#FFFFFF;stop-opacity:0.3"/>
				<stop  offset="1" style="stop-color:#000000;stop-opacity:0"/>
			</radialGradient>
			<circle fill="url(#SVGID_5_)" cx="49.04" cy="189.27" r="3.28"/>
			<g>
				<circle opacity="0.5" fill="#141414" cx="49.04" cy="189.27" r="1.8"/>
				
					<radialGradient id="SVGID_6_" cx="-3423.1287" cy="-3243.1641" r="1.3286" gradientTransform="matrix(1.5612 0 0 1.5608 5393.2573 5250.2544)" gradientUnits="userSpaceOnUse">
					<stop  offset="0" style="stop-color:#FFFFFF;stop-opacity:0.3"/>
					<stop  offset="1" style="stop-color:#000000;stop-opacity:0"/>
				</radialGradient>
				<circle fill="url(#SVGID_6_)" cx="49.04" cy="189.27" r="1.8"/>
			</g>
			
				<linearGradient id="SVGID_7_" gradientUnits="userSpaceOnUse" x1="-4409.1216" y1="-5707.125" x2="-4409.1216" y2="-5706.1997" gradientTransform="matrix(1 0 0 1 4458.1626 5895.105)">
				<stop  offset="0" style="stop-color:#FFFFFF;stop-opacity:0.6"/>
				<stop  offset="1" style="stop-color:#FFFFFF;stop-opacity:0.1"/>
			</linearGradient>
			<path fill="url(#SVGID_7_)" d="M49.04,187.91c-0.4,0-0.75,0.18-1,0.46l0.42,0.42c0.14-0.17,0.34-0.28,0.57-0.28
				c0.24,0,0.44,0.12,0.58,0.3l0.42-0.42C49.8,188.1,49.44,187.91,49.04,187.91z"/>
		</g>
	</g>
	<g>
		<defs>
			<path id="SVGID_8_" d="M81.84,161.95v54.62c0,2.37-1.92,4.29-4.29,4.29h0c-2.37,0-4.29-1.92-4.29-4.29v-54.62
				c0-2.37,1.92-4.29,4.29-4.29h0C79.92,157.67,81.84,159.59,81.84,161.95z"/>
		</defs>
		<clipPath id="SVGID_9_">
			<use xlink:href="#SVGID_8_"  overflow="visible"/>
		</clipPath>
		
			<linearGradient id="SVGID_10_" gradientUnits="userSpaceOnUse" x1="-5475.9805" y1="-1723.1294" x2="-5475.9805" y2="-1731.8363" gradientTransform="matrix(4.456200e-11 -0.9926 0.9847 4.421100e-11 1778.6562 -5245.9331)">
			<stop  offset="0" style="stop-color:#2E2E31"/>
			<stop  offset="0.2448" style="stop-color:#616161"/>
			<stop  offset="0.8137" style="stop-color:#858585"/>
			<stop  offset="1" style="stop-color:#2E2E31"/>
		</linearGradient>
		<path opacity="0.8" clip-path="url(#SVGID_9_)" fill="url(#SVGID_10_)" d="M81.84,159.95v58.62c0,2.37-1.92,4.29-4.29,4.29h0
			c-2.37,0-4.29-1.92-4.29-4.29v-58.62c0-2.37,1.92-4.29,4.29-4.29h0C79.92,155.66,81.84,157.58,81.84,159.95z"/>
		<path clip-path="url(#SVGID_9_)" fill="#2E2E2E" d="M73.15,221.45v1.47h1.47v-1.47H73.15z M73.15,218.52v1.47h1.47v-1.47H73.15z
			 M73.15,215.58v1.47h1.47v-1.47H73.15z M73.15,212.65v1.47h1.47v-1.47H73.15z M73.15,209.71v1.47h1.47v-1.47H73.15z M73.15,206.78
			v1.47h1.47v-1.47H73.15z M73.15,203.84v1.47h1.47v-1.47H73.15z M73.15,200.91v1.47h1.47v-1.47H73.15z M73.15,197.97v1.47h1.47
			v-1.47H73.15z M73.15,195.04v1.47h1.47v-1.47H73.15z M73.15,192.1v1.47h1.47v-1.47H73.15z M73.15,189.17v1.47h1.47v-1.47H73.15z
			 M73.15,186.23v1.47h1.47v-1.47H73.15z M73.15,183.3v1.47h1.47v-1.47H73.15z M73.15,180.36v1.47h1.47v-1.47H73.15z M73.15,177.43
			v1.47h1.47v-1.47H73.15z M73.15,174.49v1.47h1.47v-1.47H73.15z M73.15,171.56v1.47h1.47v-1.47H73.15z M73.15,168.62v1.47h1.47
			v-1.47H73.15z M73.15,165.69v1.47h1.47v-1.47H73.15z M73.15,162.75v1.47h1.47v-1.47H73.15z M73.15,159.82v1.47h1.47v-1.47H73.15z
			 M73.15,156.88v1.47h1.47v-1.47H73.15z M74.62,219.98v1.47h1.47v-1.47H74.62z M74.62,217.05v1.47h1.47v-1.47H74.62z M74.62,214.11
			v1.47h1.47v-1.47H74.62z M74.62,211.18v1.47h1.47v-1.47H74.62z M74.62,208.24v1.47h1.47v-1.47H74.62z M74.62,205.31v1.47h1.47
			v-1.47H74.62z M74.62,202.37v1.47h1.47v-1.47H74.62z M74.62,199.44v1.47h1.47v-1.47H74.62z M74.62,196.5v1.47h1.47v-1.47H74.62z
			 M74.62,193.57v1.47h1.47v-1.47H74.62z M74.62,190.63v1.47h1.47v-1.47H74.62z M74.62,187.7v1.47h1.47v-1.47H74.62z M74.62,184.76
			v1.47h1.47v-1.47H74.62z M74.62,181.83v1.47h1.47v-1.47H74.62z M74.62,178.89v1.47h1.47v-1.47H74.62z M74.62,175.96v1.47h1.47
			v-1.47H74.62z M74.62,173.02v1.47h1.47v-1.47H74.62z M74.62,170.09v1.47h1.47v-1.47H74.62z M74.62,167.15v1.47h1.47v-1.47H74.62z
			 M74.62,164.22v1.47h1.47v-1.47H74.62z M74.62,161.28v1.47h1.47v-1.47H74.62z M74.62,158.35v1.47h1.47v-1.47H74.62z M74.62,155.41
			v1.47h1.47v-1.47H74.62z M76.09,221.45v1.47h1.47v-1.47H76.09z M76.09,218.52v1.47h1.47v-1.47H76.09z M76.09,215.58v1.47h1.47
			v-1.47H76.09z M76.09,212.65v1.47h1.47v-1.47H76.09z M76.09,209.71v1.47h1.47v-1.47H76.09z M76.09,206.78v1.47h1.47v-1.47H76.09z
			 M76.09,203.84v1.47h1.47v-1.47H76.09z M76.09,200.91v1.47h1.47v-1.47H76.09z M76.09,197.97v1.47h1.47v-1.47H76.09z M76.09,195.04
			v1.47h1.47v-1.47H76.09z M76.09,192.1v1.47h1.47v-1.47H76.09z M76.09,189.17v1.47h1.47v-1.47H76.09z M76.09,186.23v1.47h1.47
			v-1.47H76.09z M76.09,183.3v1.47h1.47v-1.47H76.09z M76.09,180.36v1.47h1.47v-1.47H76.09z M76.09,177.43v1.47h1.47v-1.47H76.09z
			 M76.09,174.49v1.47h1.47v-1.47H76.09z M76.09,171.56v1.47h1.47v-1.47H76.09z M76.09,168.62v1.47h1.47v-1.47H76.09z M76.09,165.69
			v1.47h1.47v-1.47H76.09z M76.09,162.75v1.47h1.47v-1.47H76.09z M76.09,159.82v1.47h1.47v-1.47H76.09z M76.09,156.88v1.47h1.47
			v-1.47H76.09z M77.56,219.98v1.47h1.47v-1.47H77.56z M77.56,217.05v1.47h1.47v-1.47H77.56z M77.56,214.11v1.47h1.47v-1.47H77.56z
			 M77.56,211.18v1.47h1.47v-1.47H77.56z M77.56,208.24v1.47h1.47v-1.47H77.56z M77.56,205.31v1.47h1.47v-1.47H77.56z M77.56,202.37
			v1.47h1.47v-1.47H77.56z M77.56,199.44v1.47h1.47v-1.47H77.56z M77.56,196.5v1.47h1.47v-1.47H77.56z M77.56,193.57v1.47h1.47
			v-1.47H77.56z M77.56,190.63v1.47h1.47v-1.47H77.56z M77.56,187.7v1.47h1.47v-1.47H77.56z M77.56,184.76v1.47h1.47v-1.47H77.56z
			 M77.56,181.83v1.47h1.47v-1.47H77.56z M77.56,178.89v1.47h1.47v-1.47H77.56z M77.56,175.96v1.47h1.47v-1.47H77.56z M77.56,173.02
			v1.47h1.47v-1.47H77.56z M77.56,170.09v1.47h1.47v-1.47H77.56z M77.56,167.15v1.47h1.47v-1.47H77.56z M77.56,164.22v1.47h1.47
			v-1.47H77.56z M77.56,161.28v1.47h1.47v-1.47H77.56z M77.56,158.35v1.47h1.47v-1.47H77.56z M77.56,155.41v1.47h1.47v-1.47H77.56z
			 M79.02,221.45v1.47h1.47v-1.47H79.02z M79.02,218.52v1.47h1.47v-1.47H79.02z M79.02,215.58v1.47h1.47v-1.47H79.02z M79.02,212.65
			v1.47h1.47v-1.47H79.02z M79.02,209.71v1.47h1.47v-1.47H79.02z M79.02,206.78v1.47h1.47v-1.47H79.02z M79.02,203.84v1.47h1.47
			v-1.47H79.02z M79.02,200.91v1.47h1.47v-1.47H79.02z M79.02,197.97v1.47h1.47v-1.47H79.02z M79.02,195.04v1.47h1.47v-1.47H79.02z
			 M79.02,192.1v1.47h1.47v-1.47H79.02z M79.02,189.17v1.47h1.47v-1.47H79.02z M79.02,186.23v1.47h1.47v-1.47H79.02z M79.02,183.3
			v1.47h1.47v-1.47H79.02z M79.02,180.36v1.47h1.47v-1.47H79.02z M79.02,177.43v1.47h1.47v-1.47H79.02z M79.02,174.49v1.47h1.47
			v-1.47H79.02z M79.02,171.56v1.47h1.47v-1.47H79.02z M79.02,168.62v1.47h1.47v-1.47H79.02z M79.02,165.69v1.47h1.47v-1.47H79.02z
			 M79.02,162.75v1.47h1.47v-1.47H79.02z M79.02,159.82v1.47h1.47v-1.47H79.02z M79.02,156.88v1.47h1.47v-1.47H79.02z M80.49,219.98
			v1.47h1.47v-1.47H80.49z M80.49,217.05v1.47h1.47v-1.47H80.49z M80.49,214.11v1.47h1.47v-1.47H80.49z M80.49,211.18v1.47h1.47
			v-1.47H80.49z M80.49,208.24v1.47h1.47v-1.47H80.49z M80.49,205.31v1.47h1.47v-1.47H80.49z M80.49,202.37v1.47h1.47v-1.47H80.49z
			 M80.49,199.44v1.47h1.47v-1.47H80.49z M80.49,196.5v1.47h1.47v-1.47H80.49z M80.49,193.57v1.47h1.47v-1.47H80.49z M80.49,190.63
			v1.47h1.47v-1.47H80.49z M80.49,187.7v1.47h1.47v-1.47H80.49z M80.49,184.76v1.47h1.47v-1.47H80.49z M80.49,181.83v1.47h1.47
			v-1.47H80.49z M80.49,178.89v1.47h1.47v-1.47H80.49z M80.49,175.96v1.47h1.47v-1.47H80.49z M80.49,173.02v1.47h1.47v-1.47H80.49z
			 M80.49,170.09v1.47h1.47v-1.47H80.49z M80.49,167.15v1.47h1.47v-1.47H80.49z M80.49,164.22v1.47h1.47v-1.47H80.49z M80.49,161.28
			v1.47h1.47v-1.47H80.49z M80.49,158.35v1.47h1.47v-1.47H80.49z M80.49,155.41v1.47h1.47v-1.47H80.49z"/>
		<path opacity="0.2" clip-path="url(#SVGID_9_)" d="M72.91,159.54v59.44c0,2.4,2.08,4.35,4.65,4.35s4.65-1.95,4.65-4.35v-59.44
			c0-2.4-2.08-4.35-4.65-4.35S72.91,157.14,72.91,159.54z M80.75,159.95v58.62c0,1.76-1.43,3.2-3.2,3.2s-3.2-1.43-3.2-3.2v-58.62
			c0-1.76,1.43-3.2,3.2-3.2S80.75,158.19,80.75,159.95z"/>
	</g>
	<rect x="118.62" y="29.28" width="568" height="320"/>
</g>
</svg>
