<?xml version="1.0" encoding="utf-8"?>
<!-- Generator: Adobe Illustrator 18.0.0, SVG Export Plug-In . SVG Version: 6.00 Build 0)  -->
<!DOCTYPE svg PUBLIC "-//W3C//DTD SVG 1.1//EN" "http://www.w3.org/Graphics/SVG/1.1/DTD/svg11.dtd">
<svg version="1.1" id="Layer_1" xmlns="http://www.w3.org/2000/svg" xmlns:xlink="http://www.w3.org/1999/xlink" x="0px" y="0px"
	 width="807px" height="408px" viewBox="0 0 807 408" enable-background="new 0 0 807 408" xml:space="preserve">
<g>
	<path fill="#1A1A1A" d="M157.47,402.7c0,1.26,1.04,2.3,2.3,2.3h102.27c1.27,0,2.3-1.04,2.3-2.3v-4.3H157.47V402.7z"/>
	
		<linearGradient id="SVGID_1_" gradientUnits="userSpaceOnUse" x1="2411.4402" y1="8438.1807" x2="2413.9783" y2="8438.1807" gradientTransform="matrix(0 -1 1 0 -8227.2783 2815.3884)">
		<stop  offset="0" style="stop-color:#636363;stop-opacity:0"/>
		<stop  offset="1" style="stop-color:#000000"/>
	</linearGradient>
	<path opacity="0.6" fill="url(#SVGID_1_)" d="M157.47,402.7c0,1.26,1.04,2.3,2.3,2.3h102.27c1.27,0,2.3-1.04,2.3-2.3v-4.3H157.47
		V402.7z"/>
	<path fill="#1A1A1A" d="M104.64,4.35c0-1.27,1.03-2,2.3-2h47.9c1.27,0,2.3,0.73,2.3,2v2.73h-52.5V4.35z"/>
	
		<linearGradient id="SVGID_2_" gradientUnits="userSpaceOnUse" x1="2812.7209" y1="8358.167" x2="2804.4385" y2="8358.167" gradientTransform="matrix(0 -1 1 0 -8227.2783 2815.3884)">
		<stop  offset="0" style="stop-color:#636363;stop-opacity:0"/>
		<stop  offset="1" style="stop-color:#000000"/>
	</linearGradient>
	<path opacity="0.6" fill="url(#SVGID_2_)" d="M104.64,4.35c0-1.27,1.03-2,2.3-2h47.9c1.27,0,2.3,0.73,2.3,2v2.73h-52.5V4.35z"/>
	<path opacity="0.5" fill="#FFFFFF" d="M104.64,4.35v2.74h0.91V4.35c0-1.26,1.03-2,2.3-2h-0.91C105.67,2.35,104.64,3.09,104.64,4.35
		z"/>
	<path fill="#232323" d="M49.37,5.35c0,0-21.99-0.24-31.19,19.89C8.17,47.16,3.15,156.59,3.15,203.74
		c0,47.15,5.02,156.58,15.03,178.5c9.19,20.13,31.19,19.3,31.19,19.3h707.26c0,0,21.99,0.82,31.19-19.3
		c10.01-21.91,15.04-131.35,15.04-178.5c0-47.15-5.02-156.58-15.04-178.5c-9.2-20.13-31.19-19.89-31.19-19.89H49.37z"/>
	<path fill="#404040" d="M799.98,203.74c0,49.2-5.22,156.38-14.77,177.3c-8.26,18.07-27.65,17.65-28.47,17.62H49.37
		c-0.92,0.03-20.31,0.45-28.57-17.62c-9.56-20.92-14.77-128.1-14.77-177.3c0-49.2,5.21-156.38,14.77-177.3
		C29.1,8.27,49.06,8.8,49.26,8.81l707.37,0c0.92-0.03,20.31-0.45,28.57,17.62C794.76,47.36,799.98,154.54,799.98,203.74z"/>
	
		<linearGradient id="SVGID_3_" gradientUnits="userSpaceOnUse" x1="2416.7136" y1="8631.1426" x2="2416.719" y2="8631.1426" gradientTransform="matrix(0 -1 1 0 -8227.2783 2815.3884)">
		<stop  offset="0" style="stop-color:#FFFFFF;stop-opacity:0.3"/>
		<stop  offset="0.8587" style="stop-color:#FFFFFF;stop-opacity:0.0424"/>
		<stop  offset="1" style="stop-color:#FFFFFF;stop-opacity:0"/>
	</linearGradient>
	<path fill="url(#SVGID_3_)" d="M50.21,398.67L50.21,398.67h706.52c0.08,0,0.36,0.01,0.79,0H50.21z"/>
	
		<linearGradient id="SVGID_4_" gradientUnits="userSpaceOnUse" x1="2806.5715" y1="8984.3281" x2="2806.5781" y2="8984.3281" gradientTransform="matrix(0 -1 1 0 -8227.2783 2815.3884)">
		<stop  offset="0" style="stop-color:#FFFFFF;stop-opacity:0.3"/>
		<stop  offset="0.8587" style="stop-color:#FFFFFF;stop-opacity:0.0424"/>
		<stop  offset="1" style="stop-color:#FFFFFF;stop-opacity:0"/>
	</linearGradient>
	<path fill="url(#SVGID_4_)" d="M756.63,8.82h0.83c0,0,0,0,0,0C757.02,8.81,756.72,8.81,756.63,8.82z"/>
	
		<linearGradient id="SVGID_5_" gradientUnits="userSpaceOnUse" x1="2416.7136" y1="8255.0615" x2="2806.5784" y2="8255.0615" gradientTransform="matrix(0 -1 1 0 -8227.2783 2815.3884)">
		<stop  offset="0" style="stop-color:#FFFFFF;stop-opacity:0.3"/>
		<stop  offset="0.8587" style="stop-color:#FFFFFF;stop-opacity:0.0424"/>
		<stop  offset="1" style="stop-color:#FFFFFF;stop-opacity:0"/>
	</linearGradient>
	<path fill="url(#SVGID_5_)" d="M21.63,381.05c-9.56-20.92-14.78-128.1-14.78-177.3c0-49.2,5.22-156.38,14.78-177.3
		c7.52-16.45,24.6-17.57,27.9-17.62h-0.28C49.06,8.8,29.1,8.27,20.8,26.44c-9.56,20.92-14.77,128.1-14.77,177.3
		c0,49.2,5.21,156.38,14.77,177.3c8.25,18.07,27.63,17.65,28.57,17.62C45.43,398.59,29.05,397.27,21.63,381.05z"/>
	<g>
		<path fill="#262626" d="M49.01,394.93c-2.96,0-18.09-0.74-24.81-15.44c-8.95-19.6-14.43-124.93-14.43-175.75
			S15.25,47.59,24.2,27.99c6.86-15.01,22.92-15.44,24.73-15.44l708.17,0c1.81,0,17.84,0.43,24.7,15.44
			c8.96,19.6,14.44,124.93,14.44,175.75s-5.48,156.15-14.44,175.75c-6.86,15.01-22.9,15.45-24.71,15.45L49.01,394.93z"/>
		<g>
			<path d="M757.1,13.41c1.75,0,17.28,0.42,23.91,14.94c8.91,19.49,14.36,124.64,14.36,175.39c0,50.76-5.45,155.9-14.36,175.39
				c-6.63,14.52-22.18,14.94-23.93,14.94c-0.11,0-0.19,0-0.22,0c-0.02,0-0.03,0-0.05,0l-707.71,0l-0.1,0
				c-2.87,0-17.53-0.72-24.02-14.94c-8.91-19.49-14.36-124.63-14.36-175.39c0-50.76,5.45-155.9,14.36-175.39
				c6.63-14.52,22.19-14.94,23.94-14.94c0.1,0,0.15,0,0.17,0c0.02,0,0.04,0,0.06,0l707.73,0C756.92,13.41,756.99,13.41,757.1,13.41
				 M757.1,11.68c-0.13,0-0.22,0-0.26,0H49.16c-0.01,0-0.09,0-0.23,0c-2.12,0-18.46,0.52-25.51,15.95
				C14.41,47.34,8.9,152.85,8.9,203.74c0,50.89,5.51,156.4,14.51,176.11c7.15,15.66,23.71,15.95,25.59,15.95c0.07,0,0.12,0,0.15,0
				h707.66c0.04,0,0.13,0,0.27,0c2.38,0,18.48-0.59,25.5-15.95c9-19.71,14.51-125.22,14.51-176.11c0-50.89-5.51-156.4-14.51-176.11
				C775.56,12.25,759.42,11.68,757.1,11.68L757.1,11.68z"/>
		</g>
	</g>
	<g>
		<linearGradient id="SVGID_6_" gradientUnits="userSpaceOnUse" x1="137.8657" y1="-61.3934" x2="304.3907" y2="105.1316">
			<stop  offset="0" style="stop-color:#FFFFFF;stop-opacity:0.15"/>
			<stop  offset="1" style="stop-color:#FFFFFF;stop-opacity:0"/>
		</linearGradient>
		<path fill="url(#SVGID_6_)" d="M756.82,395.8c0.75,0.02,18.34,0.31,25.77-15.95c9-19.71,14.51-125.22,14.51-176.11
			c0-50.89-5.51-156.4-14.51-176.11c-7.43-16.26-25.02-15.96-25.74-15.95H49.16c-0.18-0.01-18.23-0.49-25.74,15.95
			C14.41,47.34,8.9,152.85,8.9,203.74c0,50.89,5.51,156.4,14.51,176.11c7.43,16.26,25,15.95,25.74,15.95H756.82z"/>
	</g>
	<g>
		<circle fill-rule="evenodd" clip-rule="evenodd" fill="#262626" cx="758.84" cy="203.74" r="7.3"/>
		<circle fill-rule="evenodd" clip-rule="evenodd" fill="#29292A" cx="758.84" cy="203.74" r="7.05"/>
		<circle fill-rule="evenodd" clip-rule="evenodd" fill="#2C2B2D" cx="758.84" cy="203.74" r="6.81"/>
		<circle fill-rule="evenodd" clip-rule="evenodd" fill="#2E2E31" cx="758.84" cy="203.74" r="6.56"/>
		<circle fill-rule="evenodd" clip-rule="evenodd" fill="#313135" cx="758.84" cy="203.74" r="6.31"/>
		<circle fill-rule="evenodd" clip-rule="evenodd" fill="#343338" cx="758.84" cy="203.74" r="6.06"/>
		<circle fill-rule="evenodd" clip-rule="evenodd" fill="#37363C" cx="758.84" cy="203.74" r="5.82"/>
		<circle fill-rule="evenodd" clip-rule="evenodd" fill="#3A383F" cx="758.84" cy="203.74" r="5.57"/>
		<circle fill-rule="evenodd" clip-rule="evenodd" fill="#3D3B43" cx="758.84" cy="203.74" r="5.32"/>
		<circle fill-rule="evenodd" clip-rule="evenodd" fill="#3F3E47" cx="758.84" cy="203.74" r="5.07"/>
		<circle fill-rule="evenodd" clip-rule="evenodd" fill="#42404A" cx="758.84" cy="203.74" r="4.83"/>
		<circle fill-rule="evenodd" clip-rule="evenodd" fill="#45434E" cx="758.84" cy="203.74" r="4.58"/>
	</g>
	<g>
		<circle fill-rule="evenodd" clip-rule="evenodd" fill="#45434E" cx="758.84" cy="203.74" r="4.58"/>
		<circle fill-rule="evenodd" clip-rule="evenodd" fill="#52505B" cx="758.84" cy="203.74" r="4.23"/>
		<circle fill-rule="evenodd" clip-rule="evenodd" fill="#5F5D69" cx="758.84" cy="203.74" r="3.88"/>
		<circle fill-rule="evenodd" clip-rule="evenodd" fill="#6C6A76" cx="758.84" cy="203.74" r="3.53"/>
		<circle fill-rule="evenodd" clip-rule="evenodd" fill="#797783" cx="758.84" cy="203.74" r="3.18"/>
		<circle fill-rule="evenodd" clip-rule="evenodd" fill="#868491" cx="758.84" cy="203.74" r="2.83"/>
		<circle fill-rule="evenodd" clip-rule="evenodd" fill="#94929E" cx="758.84" cy="203.74" r="2.48"/>
		<circle fill-rule="evenodd" clip-rule="evenodd" fill="#A19FAC" cx="758.84" cy="203.74" r="2.14"/>
		<circle fill-rule="evenodd" clip-rule="evenodd" fill="#AEACB9" cx="758.84" cy="203.74" r="1.79"/>
		<circle fill-rule="evenodd" clip-rule="evenodd" fill="#BBB9C6" cx="758.84" cy="203.74" r="1.44"/>
		<circle fill-rule="evenodd" clip-rule="evenodd" fill="#C8C6D4" cx="758.84" cy="203.74" r="1.09"/>
		<circle fill-rule="evenodd" clip-rule="evenodd" fill="#D5D3E1" cx="758.84" cy="203.74" r="0.74"/>
	</g>
	<circle fill-rule="evenodd" clip-rule="evenodd" fill="#FFFFFF" cx="758.84" cy="203.74" r="0.74"/>
	<g>
		
			<linearGradient id="SVGID_7_" gradientUnits="userSpaceOnUse" x1="2803.7014" y1="8277.334" x2="2803.7043" y2="8277.334" gradientTransform="matrix(0 -1 1 0 -8227.2783 2815.3884)">
			<stop  offset="0" style="stop-color:#FFFFFF;stop-opacity:0.3"/>
			<stop  offset="0.8587" style="stop-color:#FFFFFF;stop-opacity:0.0424"/>
			<stop  offset="1" style="stop-color:#FFFFFF;stop-opacity:0"/>
		</linearGradient>
		<path fill="url(#SVGID_7_)" d="M49.8,11.69h0.5C50.29,11.69,50.11,11.68,49.8,11.69z"/>
	</g>
	<g>
		
			<linearGradient id="SVGID_8_" gradientUnits="userSpaceOnUse" x1="2419.5889" y1="9005.0938" x2="2803.7041" y2="9005.0938" gradientTransform="matrix(0 -1 1 0 -8227.2783 2815.3884)">
			<stop  offset="0" style="stop-color:#FFFFFF;stop-opacity:0.3"/>
			<stop  offset="0.8587" style="stop-color:#FFFFFF;stop-opacity:0.0424"/>
			<stop  offset="1" style="stop-color:#FFFFFF;stop-opacity:0"/>
		</linearGradient>
		<path fill="url(#SVGID_8_)" d="M757.38,11.69c3.09,0.05,18.4,1.06,25.21,15.95c9,19.71,14.51,125.22,14.51,176.11
			c0,50.89-5.51,156.4-14.51,176.11c-6.79,14.86-22.05,15.89-25.21,15.95h0.59c0.75,0.02,18.34,0.31,25.77-15.95
			c9-19.71,14.51-125.22,14.51-176.11c0-50.89-5.51-156.4-14.51-176.11c-7.43-16.26-25.02-15.96-25.74-15.95H757.38z"/>
	</g>
	<g>
		
			<linearGradient id="SVGID_9_" gradientUnits="userSpaceOnUse" x1="2419.5916" y1="8630.7324" x2="2419.592" y2="8630.7324" gradientTransform="matrix(0 -1 1 0 -8227.2783 2815.3884)">
			<stop  offset="0" style="stop-color:#FFFFFF;stop-opacity:0.3"/>
			<stop  offset="0.8587" style="stop-color:#FFFFFF;stop-opacity:0.0424"/>
			<stop  offset="1" style="stop-color:#FFFFFF;stop-opacity:0"/>
		</linearGradient>
		<path fill="url(#SVGID_9_)" d="M756.82,395.8L756.82,395.8H50.09c0.1,0,0.18,0,0.22,0H756.82z"/>
	</g>
	<ellipse fill="#4D4D4D" cx="42.38" cy="203.74" rx="10.63" ry="10.64"/>
	
		<linearGradient id="SVGID_10_" gradientUnits="userSpaceOnUse" x1="411.7402" y1="-154.6335" x2="411.7402" y2="-162.0023" gradientTransform="matrix(1 0 0 1 -369.3594 369.4844)">
		<stop  offset="0" style="stop-color:#FFFFFF;stop-opacity:0.5"/>
		<stop  offset="0.8587" style="stop-color:#FFFFFF;stop-opacity:0.0707"/>
		<stop  offset="1" style="stop-color:#FFFFFF;stop-opacity:0"/>
	</linearGradient>
	<path opacity="0.4" fill="url(#SVGID_10_)" d="M42.38,213.68c-5.75,0-10.42-4.58-10.61-10.29c-0.01,0.12-0.02,0.23-0.02,0.35
		c0,5.88,4.76,10.64,10.63,10.64c5.87,0,10.63-4.76,10.63-10.64c0-0.12-0.01-0.23-0.02-0.35C52.81,209.1,48.13,213.68,42.38,213.68z
		"/>
	<path fill="#1A1A1A" d="M42.38,193.8c5.75,0,10.43,4.57,10.61,10.29c0.01-0.12,0.02-0.23,0.02-0.35c0-5.88-4.76-10.64-10.63-10.64
		c-5.87,0-10.63,4.76-10.63,10.64c0,0.12,0.01,0.24,0.02,0.35C31.95,198.38,36.63,193.8,42.38,193.8z"/>
	<circle cx="49.48" cy="203.84" r="0.75"/>
	<circle cx="49.48" cy="203.84" r="0.75"/>
	<circle cx="47.4" cy="198.82" r="0.75"/>
	<circle cx="42.38" cy="196.74" r="0.75"/>
	<path d="M36.83,198.28c0.29-0.29,0.77-0.29,1.07,0c0.29,0.3,0.29,0.78,0,1.07c-0.3,0.3-0.77,0.3-1.07,0
		C36.53,199.06,36.53,198.58,36.83,198.28z"/>
	<circle cx="35.28" cy="203.84" r="0.75"/>
	<circle cx="37.36" cy="208.87" r="0.75"/>
	<path d="M42.38,208.15c-0.42,0-0.75-0.34-0.75-0.75c0-0.42,0.34-0.75,0.75-0.75c0.42,0,0.75,0.34,0.75,0.75
		C43.13,207.81,42.8,208.15,42.38,208.15z"/>
	<circle cx="42.38" cy="210.95" r="0.75"/>
	<g>
		<circle cx="42.38" cy="203.84" r="0.75"/>
		<circle cx="45.93" cy="203.84" r="0.75"/>
		<circle cx="45.93" cy="203.84" r="0.75"/>
		<circle cx="44.89" cy="201.33" r="0.75"/>
		<circle cx="42.38" cy="200.29" r="0.75"/>
		<path d="M39.34,200.8c0.3-0.3,0.77-0.3,1.06,0c0.29,0.29,0.29,0.77,0,1.06c-0.29,0.3-0.77,0.3-1.06,0
			C39.04,201.57,39.04,201.09,39.34,200.8z"/>
		<circle cx="38.83" cy="203.84" r="0.75"/>
		<circle cx="39.87" cy="206.36" r="0.75"/>
		<path d="M45.42,206.89c-0.3,0.29-0.77,0.29-1.07,0c-0.29-0.3-0.29-0.77,0-1.06c0.29-0.3,0.77-0.3,1.07,0
			C45.72,206.11,45.72,206.59,45.42,206.89z"/>
	</g>
	<circle cx="47.4" cy="208.87" r="0.75"/>
	<path d="M49.63,200.81c0.16,0.38-0.02,0.83-0.4,0.99c-0.38,0.16-0.83-0.02-0.99-0.4c-0.16-0.39,0.02-0.83,0.41-0.99
		C49.03,200.25,49.47,200.43,49.63,200.81z"/>
	<path d="M49.63,200.81c0.16,0.38-0.02,0.83-0.4,0.99c-0.38,0.16-0.83-0.02-0.99-0.4c-0.16-0.39,0.02-0.83,0.41-0.99
		C49.03,200.25,49.47,200.43,49.63,200.81z"/>
	<circle cx="45.08" cy="197.27" r="0.75"/>
	<circle cx="39.65" cy="197.28" r="0.75"/>
	<path d="M35.12,200.85c0.16-0.38,0.6-0.57,0.98-0.41c0.38,0.16,0.57,0.6,0.41,0.98c-0.16,0.39-0.6,0.57-0.98,0.41
		C35.14,201.68,34.96,201.24,35.12,200.85z"/>
	<circle cx="35.83" cy="206.58" r="0.75"/>
	<circle cx="39.68" cy="210.41" r="0.75"/>
	<path d="M45.4,211.09c-0.38,0.16-0.82-0.02-0.99-0.4c-0.16-0.38,0.02-0.83,0.41-0.99c0.38-0.16,0.82,0.02,0.98,0.41
		C45.97,210.49,45.79,210.93,45.4,211.09z"/>
	<circle cx="48.94" cy="206.54" r="0.75"/>
	<g>
		<ellipse fill="#5D5D5F" cx="42.38" cy="339.47" rx="7.57" ry="7.58"/>
		
			<radialGradient id="SVGID_11_" cx="279.2443" cy="-165.1544" r="7.5806" gradientTransform="matrix(0.9991 0 0 0.9998 -236.5432 505.6699)" gradientUnits="userSpaceOnUse">
			<stop  offset="0" style="stop-color:#000000;stop-opacity:0"/>
			<stop  offset="0.5149" style="stop-color:#020202;stop-opacity:0.4119"/>
			<stop  offset="0.7003" style="stop-color:#090909;stop-opacity:0.5603"/>
			<stop  offset="0.8325" style="stop-color:#141414;stop-opacity:0.666"/>
			<stop  offset="0.9387" style="stop-color:#252525;stop-opacity:0.7509"/>
			<stop  offset="1" style="stop-color:#333333;stop-opacity:0.8"/>
		</radialGradient>
		<ellipse fill="url(#SVGID_11_)" cx="42.38" cy="339.47" rx="7.57" ry="7.58"/>
		<circle fill="#1B1A1F" cx="42.38" cy="339.47" r="4.25"/>
		<circle fill="#36284C" cx="42.38" cy="339.47" r="3.11"/>
		
			<radialGradient id="SVGID_12_" cx="279.0392" cy="-163.3518" r="5.9525" gradientTransform="matrix(0.9991 0 0 0.9998 -236.5432 505.6699)" gradientUnits="userSpaceOnUse">
			<stop  offset="0" style="stop-color:#FFFFFF;stop-opacity:0.3"/>
			<stop  offset="1" style="stop-color:#000000;stop-opacity:0"/>
		</radialGradient>
		<circle fill="url(#SVGID_12_)" cx="42.38" cy="339.47" r="3.11"/>
		<g>
			<path opacity="0.5" fill="#141414" d="M44.09,339.47c0,0.95-0.76,1.71-1.71,1.71c-0.94,0-1.71-0.77-1.71-1.71
				c0-0.94,0.77-1.71,1.71-1.71C43.33,337.76,44.09,338.53,44.09,339.47z"/>
			
				<radialGradient id="SVGID_13_" cx="279.2072" cy="-167.1263" r="1.9654" gradientTransform="matrix(0.9991 0 0 0.9998 -236.5432 505.6699)" gradientUnits="userSpaceOnUse">
				<stop  offset="0" style="stop-color:#FFFFFF;stop-opacity:0.3"/>
				<stop  offset="1" style="stop-color:#000000;stop-opacity:0"/>
			</radialGradient>
			<path fill="url(#SVGID_13_)" d="M44.09,339.47c0,0.95-0.76,1.71-1.71,1.71c-0.94,0-1.71-0.77-1.71-1.71
				c0-0.94,0.77-1.71,1.71-1.71C43.33,337.76,44.09,338.53,44.09,339.47z"/>
		</g>
		
			<linearGradient id="SVGID_14_" gradientUnits="userSpaceOnUse" x1="276.0225" y1="-166.9571" x2="276.0225" y2="-166.0797" gradientTransform="matrix(1 0 0 1 -233.6348 505.208)">
			<stop  offset="0" style="stop-color:#FFFFFF;stop-opacity:0.6"/>
			<stop  offset="1" style="stop-color:#FFFFFF;stop-opacity:0.1"/>
		</linearGradient>
		<path fill="url(#SVGID_14_)" d="M42.38,338.19c-0.38,0-0.71,0.17-0.94,0.43l0.4,0.4c0.13-0.16,0.32-0.27,0.54-0.27
			c0.23,0,0.42,0.11,0.55,0.28l0.4-0.4C43.1,338.37,42.77,338.19,42.38,338.19z"/>
	</g>
</g>
<rect x="83.03" y="23.35" width="640" height="360"/>
<g>
</g>
<g>
</g>
<g>
</g>
<g>
</g>
<g>
</g>
<g>
</g>
<g>
</g>
<g>
</g>
<g>
</g>
<g>
</g>
<g>
</g>
<g>
</g>
<g>
</g>
<g>
</g>
<g>
</g>
<g>
</g>
</svg>
