<?xml version="1.0" encoding="utf-8"?>
<!-- Generator: Adobe Illustrator 18.0.0, SVG Export Plug-In . SVG Version: 6.00 Build 0)  -->
<!DOCTYPE svg PUBLIC "-//W3C//DTD SVG 1.1//EN" "http://www.w3.org/Graphics/SVG/1.1/DTD/svg11.dtd">
<svg version="1.1" id="Layer_1" xmlns="http://www.w3.org/2000/svg" xmlns:xlink="http://www.w3.org/1999/xlink" x="0px" y="0px"
	 width="895px" height="1330px" viewBox="0 0 895 1330" enable-background="new 0 0 895 1330" xml:space="preserve">
<g>
	<g>
		<g>
			<path fill="#232323" d="M886.91,1275.81c0,24.49-20.04,44.53-44.54,44.53H52.81c-24.5,0-44.54-20.04-44.54-44.53V51.9
				c0-24.49,20.04-44.53,44.54-44.53h789.57c24.5,0,44.54,20.04,44.54,44.53V1275.81z"/>
		</g>
		<linearGradient id="SVGID_1_" gradientUnits="userSpaceOnUse" x1="-67.7067" y1="148.5616" x2="275.8892" y2="492.1575">
			<stop  offset="0" style="stop-color:#FFFFFF;stop-opacity:0.15"/>
			<stop  offset="1" style="stop-color:#FFFFFF;stop-opacity:0"/>
		</linearGradient>
		<path fill="url(#SVGID_1_)" d="M841.16,15.32c10.05,0,19.53,3.94,26.69,11.1c7.16,7.16,11.1,16.64,11.1,26.68v1221.5
			c0,10.05-3.94,19.53-11.1,26.68c-7.16,7.16-16.64,11.1-26.69,11.1H54.01c-10.05,0-19.53-3.94-26.69-11.1
			c-7.16-7.16-11.1-16.64-11.1-26.68V53.11c0-10.05,3.94-19.53,11.1-26.68c7.16-7.16,16.64-11.1,26.69-11.1H841.16"/>
		<g>
			<g>
				<circle fill-rule="evenodd" clip-rule="evenodd" fill="#262626" cx="447.59" cy="1245.48" r="7.64"/>
				<circle fill-rule="evenodd" clip-rule="evenodd" fill="#29292A" cx="447.59" cy="1245.48" r="7.38"/>
				<circle fill-rule="evenodd" clip-rule="evenodd" fill="#2C2B2D" cx="447.59" cy="1245.48" r="7.12"/>
				<circle fill-rule="evenodd" clip-rule="evenodd" fill="#2E2E31" cx="447.59" cy="1245.48" r="6.86"/>
				<circle fill-rule="evenodd" clip-rule="evenodd" fill="#313135" cx="447.59" cy="1245.48" r="6.6"/>
				<circle fill-rule="evenodd" clip-rule="evenodd" fill="#343338" cx="447.59" cy="1245.48" r="6.34"/>
				<circle fill-rule="evenodd" clip-rule="evenodd" fill="#37363C" cx="447.59" cy="1245.48" r="6.09"/>
				<circle fill-rule="evenodd" clip-rule="evenodd" fill="#3A383F" cx="447.59" cy="1245.48" r="5.83"/>
				<circle fill-rule="evenodd" clip-rule="evenodd" fill="#3D3B43" cx="447.59" cy="1245.48" r="5.57"/>
				<circle fill-rule="evenodd" clip-rule="evenodd" fill="#3F3E47" cx="447.59" cy="1245.48" r="5.31"/>
				<circle fill-rule="evenodd" clip-rule="evenodd" fill="#42404A" cx="447.59" cy="1245.48" r="5.05"/>
				<circle fill-rule="evenodd" clip-rule="evenodd" fill="#45434E" cx="447.59" cy="1245.48" r="4.79"/>
			</g>
			<g>
				<circle fill-rule="evenodd" clip-rule="evenodd" fill="#45434E" cx="447.59" cy="1245.48" r="4.79"/>
				<circle fill-rule="evenodd" clip-rule="evenodd" fill="#52505B" cx="447.59" cy="1245.48" r="4.43"/>
				<circle fill-rule="evenodd" clip-rule="evenodd" fill="#5F5D69" cx="447.59" cy="1245.48" r="4.06"/>
				<circle fill-rule="evenodd" clip-rule="evenodd" fill="#6C6A76" cx="447.59" cy="1245.48" r="3.7"/>
				<circle fill-rule="evenodd" clip-rule="evenodd" fill="#797783" cx="447.59" cy="1245.48" r="3.33"/>
				<circle fill-rule="evenodd" clip-rule="evenodd" fill="#868491" cx="447.59" cy="1245.48" r="2.97"/>
				<circle fill-rule="evenodd" clip-rule="evenodd" fill="#94929E" cx="447.59" cy="1245.48" r="2.6"/>
				<circle fill-rule="evenodd" clip-rule="evenodd" fill="#A19FAC" cx="447.59" cy="1245.48" r="2.23"/>
				<circle fill-rule="evenodd" clip-rule="evenodd" fill="#AEACB9" cx="447.59" cy="1245.48" r="1.87"/>
				<circle fill-rule="evenodd" clip-rule="evenodd" fill="#BBB9C6" cx="447.59" cy="1245.48" r="1.5"/>
				<circle fill-rule="evenodd" clip-rule="evenodd" fill="#C8C6D4" cx="447.59" cy="1245.48" r="1.14"/>
				<circle fill-rule="evenodd" clip-rule="evenodd" fill="#D5D3E1" cx="447.59" cy="1245.48" r="0.77"/>
			</g>
			<circle fill-rule="evenodd" clip-rule="evenodd" fill="#FFFFFF" cx="447.59" cy="1245.48" r="0.77"/>
		</g>
		<g>
			<g>
				<circle fill="#5D5D5F" cx="447.59" cy="78.23" r="7.93"/>
				
					<radialGradient id="SVGID_2_" cx="-3146.5715" cy="-2887.3579" r="5.0776" gradientTransform="matrix(1.5612 0 0 1.5608 5360.0874 4585.9521)" gradientUnits="userSpaceOnUse">
					<stop  offset="0" style="stop-color:#000000;stop-opacity:0"/>
					<stop  offset="0.5149" style="stop-color:#020202;stop-opacity:0.4119"/>
					<stop  offset="0.7003" style="stop-color:#090909;stop-opacity:0.5603"/>
					<stop  offset="0.8325" style="stop-color:#141414;stop-opacity:0.666"/>
					<stop  offset="0.9387" style="stop-color:#252525;stop-opacity:0.7509"/>
					<stop  offset="1" style="stop-color:#333333;stop-opacity:0.8"/>
				</radialGradient>
				<circle fill="url(#SVGID_2_)" cx="447.59" cy="78.23" r="7.93"/>
				<circle fill="#1B1A1F" cx="447.59" cy="78.23" r="4.44"/>
				<circle fill="#36284C" cx="447.59" cy="78.23" r="3.25"/>
				
					<radialGradient id="SVGID_3_" cx="-3146.7085" cy="-2886.1519" r="3.9884" gradientTransform="matrix(1.5612 0 0 1.5608 5360.0874 4585.9521)" gradientUnits="userSpaceOnUse">
					<stop  offset="0" style="stop-color:#FFFFFF;stop-opacity:0.3"/>
					<stop  offset="1" style="stop-color:#000000;stop-opacity:0"/>
				</radialGradient>
				<circle fill="url(#SVGID_3_)" cx="447.59" cy="78.23" r="3.25"/>
				<g>
					<circle opacity="0.5" fill="#141414" cx="447.59" cy="78.23" r="1.79"/>
					
						<radialGradient id="SVGID_4_" cx="-3146.5962" cy="-2888.6792" r="1.3165" gradientTransform="matrix(1.5612 0 0 1.5608 5360.0874 4585.9521)" gradientUnits="userSpaceOnUse">
						<stop  offset="0" style="stop-color:#FFFFFF;stop-opacity:0.3"/>
						<stop  offset="1" style="stop-color:#000000;stop-opacity:0"/>
					</radialGradient>
					<circle fill="url(#SVGID_4_)" cx="447.59" cy="78.23" r="1.79"/>
				</g>
				
					<linearGradient id="SVGID_5_" gradientUnits="userSpaceOnUse" x1="-4002.9333" y1="-5299.2993" x2="-4002.9333" y2="-5298.3823" gradientTransform="matrix(1 0 0 1 4450.5269 5376.2598)">
					<stop  offset="0" style="stop-color:#FFFFFF;stop-opacity:0.6"/>
					<stop  offset="1" style="stop-color:#FFFFFF;stop-opacity:0.1"/>
				</linearGradient>
				<path fill="url(#SVGID_5_)" d="M447.59,76.89c-0.4,0-0.74,0.18-0.99,0.45l0.42,0.42c0.14-0.17,0.34-0.28,0.57-0.28
					c0.24,0,0.44,0.12,0.58,0.29l0.42-0.42C448.34,77.08,447.99,76.89,447.59,76.89z"/>
			</g>
		</g>
		<path fill="#595959" d="M841.16,15.32c10.05,0,19.53,3.94,26.69,11.1c7.16,7.16,11.1,16.64,11.1,26.68v1221.5
			c0,10.05-3.94,19.53-11.1,26.68c-7.16,7.16-16.64,11.1-26.69,11.1H54.01c-10.05,0-19.53-3.94-26.69-11.1
			c-7.16-7.16-11.1-16.64-11.1-26.68V53.11c0-10.05,3.94-19.53,11.1-26.68c7.16-7.16,16.64-11.1,26.69-11.1H841.16 M841.16,12.98
			H54.01c-22.08,0-40.14,18.06-40.14,40.13v1221.5c0,22.07,18.07,40.13,40.14,40.13h787.15c22.08,0,40.14-18.06,40.14-40.13V53.11
			C881.3,31.04,863.24,12.98,841.16,12.98L841.16,12.98z"/>
		<path fill="#808080" d="M867.86,26.42c-7.16-7.16-16.64-11.1-26.69-11.1H54.01c-10.05,0-19.53,3.94-26.69,11.1
			c-7.16,7.16-11.1,16.64-11.1,26.68v0.32c0-10.05,3.94-19.52,11.1-26.68c7.16-7.16,16.64-11.1,26.69-10.7h787.15
			c10.05-0.41,19.53,3.54,26.69,10.7c7.16,7.16,11.1,16.64,11.1,26.68v-0.32C878.96,43.06,875.02,33.58,867.86,26.42z"/>
		<g>
			<polygon fill="#333333" points="601.75,20.56 293.43,20.56 290.52,15.59 604.66,15.59 			"/>
			<polygon fill="#808080" points="601.75,19.93 293.43,19.93 290.69,15.59 290.52,15.59 293.43,20.56 601.75,20.56 604.66,15.59 
				604.49,15.59 			"/>
			<g>
				<g>
					<g>
						<rect x="597.66" y="17.09" fill="none" width="1.98" height="1.98"/>
						<circle cx="598.65" cy="18.07" r="0.99"/>
					</g>
					<g>
						<rect x="594.19" y="17.09" fill="none" width="1.98" height="1.98"/>
						<circle cx="595.18" cy="18.07" r="0.99"/>
					</g>
					<g>
						<rect x="590.73" y="17.09" fill="none" width="1.98" height="1.98"/>
						<circle cx="591.72" cy="18.07" r="0.99"/>
					</g>
					<g>
						<rect x="587.27" y="17.09" fill="none" width="1.98" height="1.98"/>
						<circle cx="588.26" cy="18.07" r="0.99"/>
					</g>
					<g>
						<rect x="583.81" y="17.09" fill="none" width="1.98" height="1.98"/>
						<circle cx="584.8" cy="18.07" r="0.99"/>
					</g>
					<g>
						<rect x="580.34" y="17.09" fill="none" width="1.98" height="1.98"/>
						<circle cx="581.33" cy="18.07" r="0.99"/>
					</g>
					<g>
						<rect x="576.88" y="17.09" fill="none" width="1.98" height="1.98"/>
						<circle cx="577.87" cy="18.07" r="0.99"/>
					</g>
					<g>
						<rect x="573.42" y="17.09" fill="none" width="1.98" height="1.98"/>
						<circle cx="574.41" cy="18.07" r="0.99"/>
					</g>
					<g>
						<rect x="569.96" y="17.09" fill="none" width="1.98" height="1.98"/>
						<circle cx="570.94" cy="18.07" r="0.99"/>
					</g>
					<g>
						<rect x="566.49" y="17.09" fill="none" width="1.98" height="1.98"/>
						<circle cx="567.48" cy="18.07" r="0.99"/>
					</g>
					<g>
						<rect x="563.03" y="17.09" fill="none" width="1.98" height="1.98"/>
						<circle cx="564.02" cy="18.07" r="0.99"/>
					</g>
					<g>
						<rect x="559.57" y="17.09" fill="none" width="1.98" height="1.98"/>
						<circle cx="560.56" cy="18.07" r="0.99"/>
					</g>
					<g>
						<rect x="556.1" y="17.09" fill="none" width="1.98" height="1.98"/>
						<circle cx="557.09" cy="18.07" r="0.99"/>
					</g>
					<g>
						<rect x="552.64" y="17.09" fill="none" width="1.98" height="1.98"/>
						<circle cx="553.63" cy="18.07" r="0.99"/>
					</g>
					<g>
						<rect x="549.18" y="17.09" fill="none" width="1.98" height="1.98"/>
						<circle cx="550.17" cy="18.07" r="0.99"/>
					</g>
					<g>
						<rect x="545.72" y="17.09" fill="none" width="1.98" height="1.98"/>
						<circle cx="546.71" cy="18.07" r="0.99"/>
					</g>
					<g>
						<rect x="542.25" y="17.09" fill="none" width="1.98" height="1.98"/>
						<circle cx="543.24" cy="18.07" r="0.99"/>
					</g>
					<g>
						<rect x="538.79" y="17.09" fill="none" width="1.98" height="1.98"/>
						<circle cx="539.78" cy="18.07" r="0.99"/>
					</g>
					<g>
						<rect x="535.33" y="17.09" fill="none" width="1.98" height="1.98"/>
						<circle cx="536.32" cy="18.07" r="0.99"/>
					</g>
					<g>
						<rect x="531.87" y="17.09" fill="none" width="1.98" height="1.98"/>
						<circle cx="532.86" cy="18.07" r="0.99"/>
					</g>
					<g>
						<rect x="528.4" y="17.09" fill="none" width="1.98" height="1.98"/>
						<circle cx="529.39" cy="18.07" r="0.99"/>
					</g>
					<g>
						<rect x="524.94" y="17.09" fill="none" width="1.98" height="1.98"/>
						<circle cx="525.93" cy="18.07" r="0.99"/>
					</g>
					<g>
						<rect x="521.48" y="17.09" fill="none" width="1.98" height="1.98"/>
						<circle cx="522.47" cy="18.07" r="0.99"/>
					</g>
					<g>
						<rect x="518.02" y="17.09" fill="none" width="1.98" height="1.98"/>
						<circle cx="519.01" cy="18.07" r="0.99"/>
					</g>
					<g>
						<rect x="514.55" y="17.09" fill="none" width="1.98" height="1.98"/>
						<circle cx="515.54" cy="18.07" r="0.99"/>
					</g>
					<g>
						<rect x="511.09" y="17.09" fill="none" width="1.98" height="1.98"/>
						<circle cx="512.08" cy="18.07" r="0.99"/>
					</g>
					<g>
						<rect x="507.63" y="17.09" fill="none" width="1.98" height="1.98"/>
						<circle cx="508.62" cy="18.07" r="0.99"/>
					</g>
					<g>
						<rect x="504.17" y="17.09" fill="none" width="1.98" height="1.98"/>
						<circle cx="505.15" cy="18.07" r="0.99"/>
					</g>
					<g>
						<rect x="500.7" y="17.09" fill="none" width="1.98" height="1.98"/>
						<circle cx="501.69" cy="18.07" r="0.99"/>
					</g>
					<g>
						<rect x="497.24" y="17.09" fill="none" width="1.98" height="1.98"/>
						<circle cx="498.23" cy="18.07" r="0.99"/>
					</g>
					<g>
						<rect x="493.78" y="17.09" fill="none" width="1.98" height="1.98"/>
						<circle cx="494.77" cy="18.07" r="0.99"/>
					</g>
					<g>
						<rect x="490.32" y="17.09" fill="none" width="1.98" height="1.98"/>
						<circle cx="491.3" cy="18.07" r="0.99"/>
					</g>
					<g>
						<rect x="486.85" y="17.09" fill="none" width="1.98" height="1.98"/>
						<circle cx="487.84" cy="18.07" r="0.99"/>
					</g>
					<g>
						<rect x="483.39" y="17.09" fill="none" width="1.98" height="1.98"/>
						<circle cx="484.38" cy="18.07" r="0.99"/>
					</g>
					<g>
						<rect x="479.93" y="17.09" fill="none" width="1.98" height="1.98"/>
						<circle cx="480.92" cy="18.07" r="0.99"/>
					</g>
					<g>
						<rect x="476.46" y="17.09" fill="none" width="1.98" height="1.98"/>
						<circle cx="477.45" cy="18.07" r="0.99"/>
					</g>
					<g>
						<rect x="473" y="17.09" fill="none" width="1.98" height="1.98"/>
						<circle cx="473.99" cy="18.07" r="0.99"/>
					</g>
					<g>
						<rect x="469.54" y="17.09" fill="none" width="1.98" height="1.98"/>
						<circle cx="470.53" cy="18.07" r="0.99"/>
					</g>
					<g>
						<rect x="466.08" y="17.09" fill="none" width="1.98" height="1.98"/>
						<circle cx="467.07" cy="18.07" r="0.99"/>
					</g>
					<g>
						<rect x="462.61" y="17.09" fill="none" width="1.98" height="1.98"/>
						<circle cx="463.6" cy="18.07" r="0.99"/>
					</g>
					<g>
						<rect x="459.15" y="17.09" fill="none" width="1.98" height="1.98"/>
						<circle cx="460.14" cy="18.07" r="0.99"/>
					</g>
					<g>
						<rect x="455.69" y="17.09" fill="none" width="1.98" height="1.98"/>
						<circle cx="456.68" cy="18.07" r="0.99"/>
					</g>
					<g>
						<rect x="452.23" y="17.09" fill="none" width="1.98" height="1.98"/>
						<circle cx="453.22" cy="18.07" r="0.99"/>
					</g>
					<g>
						<rect x="448.76" y="17.09" fill="none" width="1.98" height="1.98"/>
						<circle cx="449.75" cy="18.07" r="0.99"/>
					</g>
					<g>
						<rect x="445.3" y="17.09" fill="none" width="1.98" height="1.98"/>
						<circle cx="446.29" cy="18.07" r="0.99"/>
					</g>
					<g>
						<rect x="441.84" y="17.09" fill="none" width="1.98" height="1.98"/>
						<circle cx="442.83" cy="18.07" r="0.99"/>
					</g>
					<g>
						<rect x="438.38" y="17.09" fill="none" width="1.98" height="1.98"/>
						<circle cx="439.37" cy="18.07" r="0.99"/>
					</g>
					<g>
						<rect x="434.91" y="17.09" fill="none" width="1.98" height="1.98"/>
						<circle cx="435.9" cy="18.07" r="0.99"/>
					</g>
					<g>
						<rect x="431.45" y="17.09" fill="none" width="1.98" height="1.98"/>
						<circle cx="432.44" cy="18.07" r="0.99"/>
					</g>
					<g>
						<rect x="427.99" y="17.09" fill="none" width="1.98" height="1.98"/>
						<circle cx="428.98" cy="18.07" r="0.99"/>
					</g>
					<g>
						<rect x="424.53" y="17.09" fill="none" width="1.98" height="1.98"/>
						<circle cx="425.51" cy="18.07" r="0.99"/>
					</g>
					<g>
						<rect x="421.06" y="17.09" fill="none" width="1.98" height="1.98"/>
						<circle cx="422.05" cy="18.07" r="0.99"/>
					</g>
					<g>
						<rect x="417.6" y="17.09" fill="none" width="1.98" height="1.98"/>
						<circle cx="418.59" cy="18.07" r="0.99"/>
					</g>
					<g>
						<rect x="414.14" y="17.09" fill="none" width="1.98" height="1.98"/>
						<circle cx="415.13" cy="18.07" r="0.99"/>
					</g>
					<g>
						<rect x="410.67" y="17.09" fill="none" width="1.98" height="1.98"/>
						<circle cx="411.66" cy="18.07" r="0.99"/>
					</g>
					<g>
						<rect x="407.21" y="17.09" fill="none" width="1.98" height="1.98"/>
						<circle cx="408.2" cy="18.07" r="0.99"/>
					</g>
					<g>
						<rect x="403.75" y="17.09" fill="none" width="1.98" height="1.98"/>
						<circle cx="404.74" cy="18.07" r="0.99"/>
					</g>
					<g>
						<rect x="400.29" y="17.09" fill="none" width="1.98" height="1.98"/>
						<circle cx="401.28" cy="18.07" r="0.99"/>
					</g>
					<g>
						<rect x="396.82" y="17.09" fill="none" width="1.98" height="1.98"/>
						<circle cx="397.81" cy="18.07" r="0.99"/>
					</g>
					<g>
						<rect x="393.36" y="17.09" fill="none" width="1.98" height="1.98"/>
						<circle cx="394.35" cy="18.07" r="0.99"/>
					</g>
					<g>
						<rect x="389.9" y="17.09" fill="none" width="1.98" height="1.98"/>
						<circle cx="390.89" cy="18.07" r="0.99"/>
					</g>
					<g>
						<rect x="386.44" y="17.09" fill="none" width="1.98" height="1.98"/>
						<circle cx="387.43" cy="18.07" r="0.99"/>
					</g>
					<g>
						<rect x="382.97" y="17.09" fill="none" width="1.98" height="1.98"/>
						<circle cx="383.96" cy="18.07" r="0.99"/>
					</g>
					<g>
						<rect x="379.51" y="17.09" fill="none" width="1.98" height="1.98"/>
						<circle cx="380.5" cy="18.07" r="0.99"/>
					</g>
					<g>
						<rect x="376.05" y="17.09" fill="none" width="1.98" height="1.98"/>
						<circle cx="377.04" cy="18.07" r="0.99"/>
					</g>
					<g>
						<rect x="372.59" y="17.09" fill="none" width="1.98" height="1.98"/>
						<circle cx="373.58" cy="18.07" r="0.99"/>
					</g>
					<g>
						<rect x="369.12" y="17.09" fill="none" width="1.98" height="1.98"/>
						<circle cx="370.11" cy="18.07" r="0.99"/>
					</g>
					<g>
						<rect x="365.66" y="17.09" fill="none" width="1.98" height="1.98"/>
						<circle cx="366.65" cy="18.07" r="0.99"/>
					</g>
					<g>
						<rect x="362.2" y="17.09" fill="none" width="1.98" height="1.98"/>
						<circle cx="363.19" cy="18.07" r="0.99"/>
					</g>
					<g>
						<rect x="358.74" y="17.09" fill="none" width="1.98" height="1.98"/>
						<circle cx="359.72" cy="18.07" r="0.99"/>
					</g>
					<g>
						<rect x="355.27" y="17.09" fill="none" width="1.98" height="1.98"/>
						<circle cx="356.26" cy="18.07" r="0.99"/>
					</g>
					<g>
						<rect x="351.81" y="17.09" fill="none" width="1.98" height="1.98"/>
						<circle cx="352.8" cy="18.07" r="0.99"/>
					</g>
					<g>
						<rect x="348.35" y="17.09" fill="none" width="1.98" height="1.98"/>
						<circle cx="349.34" cy="18.07" r="0.99"/>
					</g>
					<g>
						<rect x="344.89" y="17.09" fill="none" width="1.98" height="1.98"/>
						<circle cx="345.87" cy="18.07" r="0.99"/>
					</g>
					<g>
						<rect x="341.42" y="17.09" fill="none" width="1.98" height="1.98"/>
						<circle cx="342.41" cy="18.07" r="0.99"/>
					</g>
					<g>
						<rect x="337.96" y="17.09" fill="none" width="1.98" height="1.98"/>
						<circle cx="338.95" cy="18.07" r="0.99"/>
					</g>
					<g>
						<rect x="334.5" y="17.09" fill="none" width="1.98" height="1.98"/>
						<circle cx="335.49" cy="18.07" r="0.99"/>
					</g>
					<g>
						<rect x="331.03" y="17.09" fill="none" width="1.98" height="1.98"/>
						<circle cx="332.02" cy="18.07" r="0.99"/>
					</g>
					<g>
						<rect x="327.57" y="17.09" fill="none" width="1.98" height="1.98"/>
						<circle cx="328.56" cy="18.07" r="0.99"/>
					</g>
					<g>
						<rect x="324.11" y="17.09" fill="none" width="1.98" height="1.98"/>
						<circle cx="325.1" cy="18.07" r="0.99"/>
					</g>
					<g>
						<rect x="320.65" y="17.09" fill="none" width="1.98" height="1.98"/>
						<circle cx="321.64" cy="18.07" r="0.99"/>
					</g>
					<g>
						<rect x="317.18" y="17.09" fill="none" width="1.98" height="1.98"/>
						<circle cx="318.17" cy="18.07" r="0.99"/>
					</g>
					<g>
						<rect x="313.72" y="17.09" fill="none" width="1.98" height="1.98"/>
						<circle cx="314.71" cy="18.07" r="0.99"/>
					</g>
					<g>
						<rect x="310.26" y="17.09" fill="none" width="1.98" height="1.98"/>
						<circle cx="311.25" cy="18.07" r="0.99"/>
					</g>
					<g>
						<rect x="306.8" y="17.09" fill="none" width="1.98" height="1.98"/>
						<circle cx="307.79" cy="18.07" r="0.99"/>
					</g>
					<g>
						<rect x="303.33" y="17.09" fill="none" width="1.98" height="1.98"/>
						<circle cx="304.32" cy="18.07" r="0.99"/>
					</g>
					<g>
						<rect x="299.87" y="17.09" fill="none" width="1.98" height="1.98"/>
						<circle cx="300.86" cy="18.07" r="0.99"/>
					</g>
					<g>
						<rect x="296.41" y="17.09" fill="none" width="1.98" height="1.98"/>
						<circle cx="297.4" cy="18.07" r="0.99"/>
					</g>
				</g>
			</g>
		</g>
		<g>
			<polygon fill="#333333" points="601.75,1307.39 293.43,1307.39 290.52,1312.36 604.66,1312.36 			"/>
			<polygon points="601.75,1308.03 293.43,1308.03 290.69,1312.36 290.52,1312.36 293.43,1307.39 601.75,1307.39 604.66,1312.36 
				604.49,1312.36 			"/>
			<g>
				<g>
					<g>
						<rect x="597.66" y="1308.89" fill="none" width="1.98" height="1.98"/>
						<circle cx="598.65" cy="1309.88" r="0.99"/>
					</g>
					<g>
						<rect x="594.19" y="1308.89" fill="none" width="1.98" height="1.98"/>
						<circle cx="595.18" cy="1309.88" r="0.99"/>
					</g>
					<g>
						<rect x="590.73" y="1308.89" fill="none" width="1.98" height="1.98"/>
						<circle cx="591.72" cy="1309.88" r="0.99"/>
					</g>
					<g>
						<rect x="587.27" y="1308.89" fill="none" width="1.98" height="1.98"/>
						<circle cx="588.26" cy="1309.88" r="0.99"/>
					</g>
					<g>
						<rect x="583.81" y="1308.89" fill="none" width="1.98" height="1.98"/>
						<circle cx="584.8" cy="1309.88" r="0.99"/>
					</g>
					<g>
						<rect x="580.34" y="1308.89" fill="none" width="1.98" height="1.98"/>
						<circle cx="581.33" cy="1309.88" r="0.99"/>
					</g>
					<g>
						<rect x="576.88" y="1308.89" fill="none" width="1.98" height="1.98"/>
						<circle cx="577.87" cy="1309.88" r="0.99"/>
					</g>
					<g>
						<rect x="573.42" y="1308.89" fill="none" width="1.98" height="1.98"/>
						<circle cx="574.41" cy="1309.88" r="0.99"/>
					</g>
					<g>
						<rect x="569.96" y="1308.89" fill="none" width="1.98" height="1.98"/>
						<circle cx="570.94" cy="1309.88" r="0.99"/>
					</g>
					<g>
						<rect x="566.49" y="1308.89" fill="none" width="1.98" height="1.98"/>
						<circle cx="567.48" cy="1309.88" r="0.99"/>
					</g>
					<g>
						<rect x="563.03" y="1308.89" fill="none" width="1.98" height="1.98"/>
						<circle cx="564.02" cy="1309.88" r="0.99"/>
					</g>
					<g>
						<rect x="559.57" y="1308.89" fill="none" width="1.98" height="1.98"/>
						<circle cx="560.56" cy="1309.88" r="0.99"/>
					</g>
					<g>
						<rect x="556.1" y="1308.89" fill="none" width="1.98" height="1.98"/>
						<circle cx="557.09" cy="1309.88" r="0.99"/>
					</g>
					<g>
						<rect x="552.64" y="1308.89" fill="none" width="1.98" height="1.98"/>
						<circle cx="553.63" cy="1309.88" r="0.99"/>
					</g>
					<g>
						<rect x="549.18" y="1308.89" fill="none" width="1.98" height="1.98"/>
						<circle cx="550.17" cy="1309.88" r="0.99"/>
					</g>
					<g>
						<rect x="545.72" y="1308.89" fill="none" width="1.98" height="1.98"/>
						<circle cx="546.71" cy="1309.88" r="0.99"/>
					</g>
					<g>
						<rect x="542.25" y="1308.89" fill="none" width="1.98" height="1.98"/>
						<circle cx="543.24" cy="1309.88" r="0.99"/>
					</g>
					<g>
						<rect x="538.79" y="1308.89" fill="none" width="1.98" height="1.98"/>
						<circle cx="539.78" cy="1309.88" r="0.99"/>
					</g>
					<g>
						<rect x="535.33" y="1308.89" fill="none" width="1.98" height="1.98"/>
						<circle cx="536.32" cy="1309.88" r="0.99"/>
					</g>
					<g>
						<rect x="531.87" y="1308.89" fill="none" width="1.98" height="1.98"/>
						<circle cx="532.86" cy="1309.88" r="0.99"/>
					</g>
					<g>
						<rect x="528.4" y="1308.89" fill="none" width="1.98" height="1.98"/>
						<circle cx="529.39" cy="1309.88" r="0.99"/>
					</g>
					<g>
						<rect x="524.94" y="1308.89" fill="none" width="1.98" height="1.98"/>
						<circle cx="525.93" cy="1309.88" r="0.99"/>
					</g>
					<g>
						<rect x="521.48" y="1308.89" fill="none" width="1.98" height="1.98"/>
						<circle cx="522.47" cy="1309.88" r="0.99"/>
					</g>
					<g>
						<rect x="518.02" y="1308.89" fill="none" width="1.98" height="1.98"/>
						<circle cx="519.01" cy="1309.88" r="0.99"/>
					</g>
					<g>
						<rect x="514.55" y="1308.89" fill="none" width="1.98" height="1.98"/>
						<circle cx="515.54" cy="1309.88" r="0.99"/>
					</g>
					<g>
						<rect x="511.09" y="1308.89" fill="none" width="1.98" height="1.98"/>
						<circle cx="512.08" cy="1309.88" r="0.99"/>
					</g>
					<g>
						<rect x="507.63" y="1308.89" fill="none" width="1.98" height="1.98"/>
						<circle cx="508.62" cy="1309.88" r="0.99"/>
					</g>
					<g>
						<rect x="504.17" y="1308.89" fill="none" width="1.98" height="1.98"/>
						<circle cx="505.15" cy="1309.88" r="0.99"/>
					</g>
					<g>
						<rect x="500.7" y="1308.89" fill="none" width="1.98" height="1.98"/>
						<circle cx="501.69" cy="1309.88" r="0.99"/>
					</g>
					<g>
						<rect x="497.24" y="1308.89" fill="none" width="1.98" height="1.98"/>
						<circle cx="498.23" cy="1309.88" r="0.99"/>
					</g>
					<g>
						<rect x="493.78" y="1308.89" fill="none" width="1.98" height="1.98"/>
						<circle cx="494.77" cy="1309.88" r="0.99"/>
					</g>
					<g>
						<rect x="490.32" y="1308.89" fill="none" width="1.98" height="1.98"/>
						<circle cx="491.3" cy="1309.88" r="0.99"/>
					</g>
					<g>
						<rect x="486.85" y="1308.89" fill="none" width="1.98" height="1.98"/>
						<circle cx="487.84" cy="1309.88" r="0.99"/>
					</g>
					<g>
						<rect x="483.39" y="1308.89" fill="none" width="1.98" height="1.98"/>
						<circle cx="484.38" cy="1309.88" r="0.99"/>
					</g>
					<g>
						<rect x="479.93" y="1308.89" fill="none" width="1.98" height="1.98"/>
						<circle cx="480.92" cy="1309.88" r="0.99"/>
					</g>
					<g>
						<rect x="476.46" y="1308.89" fill="none" width="1.98" height="1.98"/>
						<circle cx="477.45" cy="1309.88" r="0.99"/>
					</g>
					<g>
						<rect x="473" y="1308.89" fill="none" width="1.98" height="1.98"/>
						<circle cx="473.99" cy="1309.88" r="0.99"/>
					</g>
					<g>
						<rect x="469.54" y="1308.89" fill="none" width="1.98" height="1.98"/>
						<circle cx="470.53" cy="1309.88" r="0.99"/>
					</g>
					<g>
						<rect x="466.08" y="1308.89" fill="none" width="1.98" height="1.98"/>
						<circle cx="467.07" cy="1309.88" r="0.99"/>
					</g>
					<g>
						<rect x="462.61" y="1308.89" fill="none" width="1.98" height="1.98"/>
						<circle cx="463.6" cy="1309.88" r="0.99"/>
					</g>
					<g>
						<rect x="459.15" y="1308.89" fill="none" width="1.98" height="1.98"/>
						<circle cx="460.14" cy="1309.88" r="0.99"/>
					</g>
					<g>
						<rect x="455.69" y="1308.89" fill="none" width="1.98" height="1.98"/>
						<circle cx="456.68" cy="1309.88" r="0.99"/>
					</g>
					<g>
						<rect x="452.23" y="1308.89" fill="none" width="1.98" height="1.98"/>
						<circle cx="453.22" cy="1309.88" r="0.99"/>
					</g>
					<g>
						<rect x="448.76" y="1308.89" fill="none" width="1.98" height="1.98"/>
						<circle cx="449.75" cy="1309.88" r="0.99"/>
					</g>
					<g>
						<rect x="445.3" y="1308.89" fill="none" width="1.98" height="1.98"/>
						<circle cx="446.29" cy="1309.88" r="0.99"/>
					</g>
					<g>
						<rect x="441.84" y="1308.89" fill="none" width="1.98" height="1.98"/>
						<circle cx="442.83" cy="1309.88" r="0.99"/>
					</g>
					<g>
						<rect x="438.38" y="1308.89" fill="none" width="1.98" height="1.98"/>
						<circle cx="439.37" cy="1309.88" r="0.99"/>
					</g>
					<g>
						<rect x="434.91" y="1308.89" fill="none" width="1.98" height="1.98"/>
						<circle cx="435.9" cy="1309.88" r="0.99"/>
					</g>
					<g>
						<rect x="431.45" y="1308.89" fill="none" width="1.98" height="1.98"/>
						<circle cx="432.44" cy="1309.88" r="0.99"/>
					</g>
					<g>
						<rect x="427.99" y="1308.89" fill="none" width="1.98" height="1.98"/>
						<circle cx="428.98" cy="1309.88" r="0.99"/>
					</g>
					<g>
						<rect x="424.53" y="1308.89" fill="none" width="1.98" height="1.98"/>
						<circle cx="425.51" cy="1309.88" r="0.99"/>
					</g>
					<g>
						<rect x="421.06" y="1308.89" fill="none" width="1.98" height="1.98"/>
						<circle cx="422.05" cy="1309.88" r="0.99"/>
					</g>
					<g>
						<rect x="417.6" y="1308.89" fill="none" width="1.98" height="1.98"/>
						<circle cx="418.59" cy="1309.88" r="0.99"/>
					</g>
					<g>
						<rect x="414.14" y="1308.89" fill="none" width="1.98" height="1.98"/>
						<circle cx="415.13" cy="1309.88" r="0.99"/>
					</g>
					<g>
						<rect x="410.67" y="1308.89" fill="none" width="1.98" height="1.98"/>
						<circle cx="411.66" cy="1309.88" r="0.99"/>
					</g>
					<g>
						<rect x="407.21" y="1308.89" fill="none" width="1.98" height="1.98"/>
						<circle cx="408.2" cy="1309.88" r="0.99"/>
					</g>
					<g>
						<rect x="403.75" y="1308.89" fill="none" width="1.98" height="1.98"/>
						<circle cx="404.74" cy="1309.88" r="0.99"/>
					</g>
					<g>
						<rect x="400.29" y="1308.89" fill="none" width="1.98" height="1.98"/>
						<circle cx="401.28" cy="1309.88" r="0.99"/>
					</g>
					<g>
						<rect x="396.82" y="1308.89" fill="none" width="1.98" height="1.98"/>
						<circle cx="397.81" cy="1309.88" r="0.99"/>
					</g>
					<g>
						<rect x="393.36" y="1308.89" fill="none" width="1.98" height="1.98"/>
						<circle cx="394.35" cy="1309.88" r="0.99"/>
					</g>
					<g>
						<rect x="389.9" y="1308.89" fill="none" width="1.98" height="1.98"/>
						<circle cx="390.89" cy="1309.88" r="0.99"/>
					</g>
					<g>
						<rect x="386.44" y="1308.89" fill="none" width="1.98" height="1.98"/>
						<circle cx="387.43" cy="1309.88" r="0.99"/>
					</g>
					<g>
						<rect x="382.97" y="1308.89" fill="none" width="1.98" height="1.98"/>
						<circle cx="383.96" cy="1309.88" r="0.99"/>
					</g>
					<g>
						<rect x="379.51" y="1308.89" fill="none" width="1.98" height="1.98"/>
						<circle cx="380.5" cy="1309.88" r="0.99"/>
					</g>
					<g>
						<rect x="376.05" y="1308.89" fill="none" width="1.98" height="1.98"/>
						<circle cx="377.04" cy="1309.88" r="0.99"/>
					</g>
					<g>
						<rect x="372.59" y="1308.89" fill="none" width="1.98" height="1.98"/>
						<circle cx="373.58" cy="1309.88" r="0.99"/>
					</g>
					<g>
						<rect x="369.12" y="1308.89" fill="none" width="1.98" height="1.98"/>
						<circle cx="370.11" cy="1309.88" r="0.99"/>
					</g>
					<g>
						<rect x="365.66" y="1308.89" fill="none" width="1.98" height="1.98"/>
						<circle cx="366.65" cy="1309.88" r="0.99"/>
					</g>
					<g>
						<rect x="362.2" y="1308.89" fill="none" width="1.98" height="1.98"/>
						<circle cx="363.19" cy="1309.88" r="0.99"/>
					</g>
					<g>
						<rect x="358.74" y="1308.89" fill="none" width="1.98" height="1.98"/>
						<circle cx="359.72" cy="1309.88" r="0.99"/>
					</g>
					<g>
						<rect x="355.27" y="1308.89" fill="none" width="1.98" height="1.98"/>
						<circle cx="356.26" cy="1309.88" r="0.99"/>
					</g>
					<g>
						<rect x="351.81" y="1308.89" fill="none" width="1.98" height="1.98"/>
						<circle cx="352.8" cy="1309.88" r="0.99"/>
					</g>
					<g>
						<rect x="348.35" y="1308.89" fill="none" width="1.98" height="1.98"/>
						<circle cx="349.34" cy="1309.88" r="0.99"/>
					</g>
					<g>
						<rect x="344.89" y="1308.89" fill="none" width="1.98" height="1.98"/>
						<circle cx="345.87" cy="1309.88" r="0.99"/>
					</g>
					<g>
						<rect x="341.42" y="1308.89" fill="none" width="1.98" height="1.98"/>
						<circle cx="342.41" cy="1309.88" r="0.99"/>
					</g>
					<g>
						<rect x="337.96" y="1308.89" fill="none" width="1.98" height="1.98"/>
						<circle cx="338.95" cy="1309.88" r="0.99"/>
					</g>
					<g>
						<rect x="334.5" y="1308.89" fill="none" width="1.98" height="1.98"/>
						<circle cx="335.49" cy="1309.88" r="0.99"/>
					</g>
					<g>
						<rect x="331.03" y="1308.89" fill="none" width="1.98" height="1.98"/>
						<circle cx="332.02" cy="1309.88" r="0.99"/>
					</g>
					<g>
						<rect x="327.57" y="1308.89" fill="none" width="1.98" height="1.98"/>
						<circle cx="328.56" cy="1309.88" r="0.99"/>
					</g>
					<g>
						<rect x="324.11" y="1308.89" fill="none" width="1.98" height="1.98"/>
						<circle cx="325.1" cy="1309.88" r="0.99"/>
					</g>
					<g>
						<rect x="320.65" y="1308.89" fill="none" width="1.98" height="1.98"/>
						<circle cx="321.64" cy="1309.88" r="0.99"/>
					</g>
					<g>
						<rect x="317.18" y="1308.89" fill="none" width="1.98" height="1.98"/>
						<circle cx="318.17" cy="1309.88" r="0.99"/>
					</g>
					<g>
						<rect x="313.72" y="1308.89" fill="none" width="1.98" height="1.98"/>
						<circle cx="314.71" cy="1309.88" r="0.99"/>
					</g>
					<g>
						<rect x="310.26" y="1308.89" fill="none" width="1.98" height="1.98"/>
						<circle cx="311.25" cy="1309.88" r="0.99"/>
					</g>
					<g>
						<rect x="306.8" y="1308.89" fill="none" width="1.98" height="1.98"/>
						<circle cx="307.79" cy="1309.88" r="0.99"/>
					</g>
					<g>
						<rect x="303.33" y="1308.89" fill="none" width="1.98" height="1.98"/>
						<circle cx="304.32" cy="1309.88" r="0.99"/>
					</g>
					<g>
						<rect x="299.87" y="1308.89" fill="none" width="1.98" height="1.98"/>
						<circle cx="300.86" cy="1309.88" r="0.99"/>
					</g>
					<g>
						<rect x="296.41" y="1308.89" fill="none" width="1.98" height="1.98"/>
						<circle cx="297.4" cy="1309.88" r="0.99"/>
					</g>
				</g>
			</g>
		</g>
	</g>
</g>
<rect x="64.36" y="138.37" width="768" height="1024"/>
</svg>
