<?xml version="1.0" encoding="utf-8"?>
<!-- Generator: Adobe Illustrator 18.0.0, SVG Export Plug-In . SVG Version: 6.00 Build 0)  -->
<!DOCTYPE svg PUBLIC "-//W3C//DTD SVG 1.1//EN" "http://www.w3.org/Graphics/SVG/1.1/DTD/svg11.dtd">
<svg version="1.1" id="Layer_1" xmlns="http://www.w3.org/2000/svg" xmlns:xlink="http://www.w3.org/1999/xlink" x="0px" y="0px"
	 width="461px" height="875px" viewBox="0 0 461 875" enable-background="new 0 0 461 875" xml:space="preserve">
<path fill="#999999" d="M454.5,511.18L454.5,511.18c-2.21,0-4-1.79-4-4v-96c0-2.21,1.79-4,4-4l0,0c2.21,0,4,1.79,4,4v96
	C458.5,509.39,456.71,511.18,454.5,511.18z"/>
<path fill="#999999" d="M454.5,381.61L454.5,381.61c-2.21,0-4-1.79-4-4v-40c0-2.21,1.79-4,4-4l0,0c2.21,0,4,1.79,4,4v40
	C458.5,379.82,456.71,381.61,454.5,381.61z"/>
<path fill="#262626" stroke="#000000" stroke-width="1.727" stroke-linejoin="round" stroke-miterlimit="10" d="M230.5,869.42
	c56.79,0,158.65-2.22,185.76-7.27c17.13-3.19,39.23-14.69,39.23-42.64l0-763.12c0-27.11-23.66-42.99-42.7-46.41
	c-23.59-4.24-125.5-6.64-182.3-6.64S71.79,5.73,48.2,9.97C29.17,13.4,5.51,29.28,5.51,56.39l0,763.12
	c0,27.95,22.1,39.45,39.23,42.64C71.85,867.2,173.71,869.42,230.5,869.42z"/>
<path fill="#333333" d="M126.07,34.6h14.4c3.31,0,6-2.69,6-6v0c0-3.31-2.69-6-6-6h-14.4c-3.31,0-6,2.69-6,6v0
	C120.07,31.91,122.75,34.6,126.07,34.6z"/>
<linearGradient id="SVGID_1_" gradientUnits="userSpaceOnUse" x1="-14.5988" y1="118.45" x2="116.586" y2="212.5737">
	<stop  offset="0" style="stop-color:#FFFFFF;stop-opacity:0.15"/>
	<stop  offset="1" style="stop-color:#FFFFFF;stop-opacity:0"/>
</linearGradient>
<path fill="url(#SVGID_1_)" d="M8.87,55.39c0-26.58,24-40.55,40.12-43.46c22.64-4.08,120.85-6.59,181.29-6.59
	c17.03,0,37.65,0.22,58.58,0.61l-280,459.59L8.87,55.39z"/>
<g>
	<g>
		<circle fill="#5D5D5F" cx="358" cy="28.61" r="7.58"/>
		
			<radialGradient id="SVGID_2_" cx="357.8909" cy="30.5037" r="7.5809" gradientTransform="matrix(1.0003 0 0 1.0001 0.0695 -0.8149)" gradientUnits="userSpaceOnUse">
			<stop  offset="0" style="stop-color:#000000;stop-opacity:0"/>
			<stop  offset="0.5149" style="stop-color:#020202;stop-opacity:0.4119"/>
			<stop  offset="0.7003" style="stop-color:#090909;stop-opacity:0.5603"/>
			<stop  offset="0.8325" style="stop-color:#141414;stop-opacity:0.666"/>
			<stop  offset="0.9387" style="stop-color:#252525;stop-opacity:0.7509"/>
			<stop  offset="1" style="stop-color:#333333;stop-opacity:0.8"/>
		</radialGradient>
		<circle fill="url(#SVGID_2_)" cx="358" cy="28.61" r="7.58"/>
		<circle fill="#1B1A1F" cx="358" cy="28.61" r="4.25"/>
		<circle fill="#36284C" cx="358" cy="28.61" r="3.11"/>
		
			<radialGradient id="SVGID_3_" cx="357.6856" cy="32.3063" r="5.9525" gradientTransform="matrix(1.0003 0 0 1.0001 0.0695 -0.8149)" gradientUnits="userSpaceOnUse">
			<stop  offset="0" style="stop-color:#FFFFFF;stop-opacity:0.3"/>
			<stop  offset="1" style="stop-color:#000000;stop-opacity:0"/>
		</radialGradient>
		<circle fill="url(#SVGID_3_)" cx="358" cy="28.61" r="3.11"/>
		<g>
			<circle opacity="0.5" fill="#141414" cx="358" cy="28.61" r="1.71"/>
			
				<radialGradient id="SVGID_4_" cx="357.8539" cy="28.5313" r="1.9654" gradientTransform="matrix(1.0003 0 0 1.0001 0.0695 -0.8149)" gradientUnits="userSpaceOnUse">
				<stop  offset="0" style="stop-color:#FFFFFF;stop-opacity:0.3"/>
				<stop  offset="1" style="stop-color:#000000;stop-opacity:0"/>
			</radialGradient>
			<circle fill="url(#SVGID_4_)" cx="358" cy="28.61" r="1.71"/>
		</g>
		<linearGradient id="SVGID_5_" gradientUnits="userSpaceOnUse" x1="358.0053" y1="27.3931" x2="358.0053" y2="28.2704">
			<stop  offset="0" style="stop-color:#FFFFFF;stop-opacity:0.6"/>
			<stop  offset="1" style="stop-color:#FFFFFF;stop-opacity:0.1"/>
		</linearGradient>
		<path fill="url(#SVGID_5_)" d="M358,27.33c-0.38,0-0.71,0.17-0.94,0.43l0.4,0.4c0.13-0.16,0.32-0.27,0.54-0.27
			c0.23,0,0.42,0.11,0.55,0.28l0.4-0.4C358.72,27.51,358.39,27.33,358,27.33z"/>
	</g>
</g>
<g>
	<linearGradient id="SVGID_6_" gradientUnits="userSpaceOnUse" x1="340.7026" y1="436.2273" x2="453.4973" y2="436.2273">
		<stop  offset="0.6" style="stop-color:#FFFFFF;stop-opacity:0"/>
		<stop  offset="1" style="stop-color:#FFFFFF;stop-opacity:0.1"/>
	</linearGradient>
	<path fill="url(#SVGID_6_)" d="M453.5,56.39c0-27.19-24.55-41.48-41.05-44.45c-10.83-1.95-38.83-3.54-71.74-4.67
		c32.64,2.66,59.98,6.68,70.33,8.54c13.85,2.49,34.47,18.29,34.47,40.57l0,763.12c0,24.38-21.73,35.24-31.07,36.99
		c-11.31,2.11-36.46,5.54-66.13,8.69c30.22-1.18,55.97-2.84,67.59-5c8.82-1.64,37.6-9.44,37.6-40.67L453.5,56.39z"/>
</g>
<g>
	
		<linearGradient id="SVGID_7_" gradientUnits="userSpaceOnUse" x1="-12119.2979" y1="436.2273" x2="-12006.5029" y2="436.2273" gradientTransform="matrix(-1 0 0 1 -11999 0)">
		<stop  offset="0.6" style="stop-color:#FFFFFF;stop-opacity:0"/>
		<stop  offset="1" style="stop-color:#FFFFFF;stop-opacity:0.1"/>
	</linearGradient>
	<path fill="url(#SVGID_7_)" d="M7.5,56.39c0-27.19,24.55-41.48,41.05-44.45C59.38,9.99,87.39,8.4,120.3,7.27
		c-32.64,2.66-59.98,6.68-70.33,8.54C36.12,18.31,15.5,34.1,15.5,56.39l0,763.12c0,24.38,21.73,35.24,31.07,36.99
		c11.31,2.11,36.46,5.54,66.13,8.69c-30.22-1.18-55.97-2.84-67.59-5c-8.82-1.64-37.6-9.44-37.6-40.67L7.5,56.39z"/>
</g>
<path fill="#121314" d="M288.5,34.6h-116c-3.31,0-6-2.69-6-6v0c0-3.31,2.69-6,6-6h116c3.31,0,6,2.69,6,6v0
	C294.5,31.91,291.81,34.6,288.5,34.6z"/>
<path d="M172.5,32.65c-1.65,0-3-1.35-3-3s1.35-3,3-3h116c1.65,0,3,1.35,3,3s-1.35,3-3,3H172.5z"/>
<path fill="#262626" d="M172.5,31.6c-1.65,0-3-1.35-3-3s1.35-3,3-3h116c1.65,0,3,1.35,3,3s-1.35,3-3,3H172.5z"/>
<linearGradient id="SVGID_8_" gradientUnits="userSpaceOnUse" x1="195.6387" y1="8.0689" x2="201.3062" y2="6.0061" gradientTransform="matrix(0.9951 0 0 0.9951 -24.9836 21.6088)">
	<stop  offset="0" style="stop-color:#FFFFFF;stop-opacity:0.15"/>
	<stop  offset="0.1434" style="stop-color:#FFFFFF;stop-opacity:0.1285"/>
	<stop  offset="1" style="stop-color:#FFFFFF;stop-opacity:0"/>
</linearGradient>
<circle fill="url(#SVGID_8_)" cx="172.52" cy="28.61" r="3"/>
<linearGradient id="SVGID_9_" gradientUnits="userSpaceOnUse" x1="312.1959" y1="8801.8887" x2="317.8634" y2="8799.8262" gradientTransform="matrix(0.9951 0 0 -0.9951 -24.9836 8786.2861)">
	<stop  offset="0" style="stop-color:#FFFFFF;stop-opacity:0"/>
	<stop  offset="0.8566" style="stop-color:#FFFFFF;stop-opacity:0.1285"/>
	<stop  offset="1" style="stop-color:#FFFFFF;stop-opacity:0.15"/>
</linearGradient>
<circle fill="url(#SVGID_9_)" cx="288.5" cy="28.61" r="3"/>
<path fill="#121314" d="M288.5,850.04h-116c-3.31,0-6-2.69-6-6l0,0c0-3.31,2.69-6,6-6h116c3.31,0,6,2.69,6,6l0,0
	C294.5,847.35,291.81,850.04,288.5,850.04z"/>
<path d="M172.5,848.09c-1.65,0-3-1.35-3-3s1.35-3,3-3h116c1.65,0,3,1.35,3,3s-1.35,3-3,3H172.5z"/>
<path fill="#262626" d="M172.5,847.04c-1.65,0-3-1.35-3-3s1.35-3,3-3h116c1.65,0,3,1.35,3,3s-1.35,3-3,3H172.5z"/>
<linearGradient id="SVGID_10_" gradientUnits="userSpaceOnUse" x1="195.6388" y1="827.5308" x2="201.3063" y2="825.468" gradientTransform="matrix(0.9951 0 0 0.9951 -24.9836 21.6088)">
	<stop  offset="0" style="stop-color:#FFFFFF;stop-opacity:0.15"/>
	<stop  offset="0.1434" style="stop-color:#FFFFFF;stop-opacity:0.1285"/>
	<stop  offset="1" style="stop-color:#FFFFFF;stop-opacity:0"/>
</linearGradient>
<circle fill="url(#SVGID_10_)" cx="172.52" cy="844.05" r="3"/>
<linearGradient id="SVGID_11_" gradientUnits="userSpaceOnUse" x1="312.1959" y1="7982.4419" x2="317.8634" y2="7980.3789" gradientTransform="matrix(0.9951 0 0 -0.9951 -24.9836 8786.2861)">
	<stop  offset="0" style="stop-color:#FFFFFF;stop-opacity:0"/>
	<stop  offset="0.8566" style="stop-color:#FFFFFF;stop-opacity:0.1285"/>
	<stop  offset="1" style="stop-color:#FFFFFF;stop-opacity:0.15"/>
</linearGradient>
<circle fill="url(#SVGID_11_)" cx="288.5" cy="844.04" r="3"/>
<rect x="25" y="81.5" width="411" height="732"/>
</svg>
