<?xml version="1.0" encoding="utf-8"?>
<!-- Generator: Adobe Illustrator 18.0.0, SVG Export Plug-In . SVG Version: 6.00 Build 0)  -->
<!DOCTYPE svg PUBLIC "-//W3C//DTD SVG 1.1//EN" "http://www.w3.org/Graphics/SVG/1.1/DTD/svg11.dtd">
<svg version="1.1" id="Layer_1" xmlns="http://www.w3.org/2000/svg" xmlns:xlink="http://www.w3.org/1999/xlink" x="0px" y="0px"
	 width="878px" height="461px" viewBox="0 0 878 461" enable-background="new 0 0 878 461" xml:space="preserve">
<path fill="#999999" d="M513.78,7.09L513.78,7.09c0,2.21-1.79,4-4,4h-96c-2.21,0-4-1.79-4-4v0c0-2.21,1.79-4,4-4h96
	C511.99,3.09,513.78,4.88,513.78,7.09z"/>
<path fill="#999999" d="M384.22,7.09L384.22,7.09c0,2.21-1.79,4-4,4h-40c-2.21,0-4-1.79-4-4v0c0-2.21,1.79-4,4-4h40
	C382.42,3.09,384.22,4.88,384.22,7.09z"/>
<path fill="#262626" stroke="#000000" stroke-width="1.727" stroke-linejoin="round" stroke-miterlimit="10" d="M872.02,231.09
	c0-56.79-2.22-158.65-7.27-185.76c-3.19-17.13-14.69-39.23-42.64-39.23l-763.12,0c-27.11,0-42.99,23.66-46.41,42.7
	c-4.24,23.59-6.64,125.5-6.64,182.3s2.39,158.71,6.64,182.3c3.42,19.04,19.31,42.7,46.41,42.7l763.12,0
	c27.95,0,39.45-22.1,42.64-39.23C869.8,389.74,872.02,287.88,872.02,231.09z"/>
<path fill="#333333" d="M37.2,335.52v-14.4c0-3.31-2.69-6-6-6h0c-3.31,0-6,2.69-6,6v14.4c0,3.31,2.69,6,6,6h0
	C34.51,341.52,37.2,338.84,37.2,335.52z"/>
<linearGradient id="SVGID_1_" gradientUnits="userSpaceOnUse" x1="-9497.3945" y1="1805.3501" x2="-9366.2178" y2="1899.4678" gradientTransform="matrix(4.489700e-11 -1 1 4.489700e-11 -1684.4606 -9020.9785)">
	<stop  offset="0" style="stop-color:#FFFFFF;stop-opacity:0.15"/>
	<stop  offset="1" style="stop-color:#FFFFFF;stop-opacity:0"/>
</linearGradient>
<path fill="url(#SVGID_1_)" d="M57.99,453.08c-26.58,0-40.55-24.06-43.46-40.23c-4.08-22.69-6.59-121.16-6.59-181.77
	c0-17.07,0.22-37.75,0.61-58.74l459.59,280.73L57.99,453.08z"/>
<g>
	<g>
		<circle fill="#5D5D5F" cx="31.22" cy="103.59" r="7.58"/>
		
			<radialGradient id="SVGID_2_" cx="-9121.7627" cy="1717.3832" r="7.5809" gradientTransform="matrix(4.491000e-11 -1.0003 1.0001 4.490100e-11 -1685.2588 -9020.9795)" gradientUnits="userSpaceOnUse">
			<stop  offset="0" style="stop-color:#000000;stop-opacity:0"/>
			<stop  offset="0.5149" style="stop-color:#020202;stop-opacity:0.4119"/>
			<stop  offset="0.7003" style="stop-color:#090909;stop-opacity:0.5603"/>
			<stop  offset="0.8325" style="stop-color:#141414;stop-opacity:0.666"/>
			<stop  offset="0.9387" style="stop-color:#252525;stop-opacity:0.7509"/>
			<stop  offset="1" style="stop-color:#333333;stop-opacity:0.8"/>
		</radialGradient>
		<circle fill="url(#SVGID_2_)" cx="31.22" cy="103.59" r="7.58"/>
		<circle fill="#1B1A1F" cx="31.22" cy="103.59" r="4.25"/>
		<circle fill="#36284C" cx="31.22" cy="103.59" r="3.11"/>
		
			<radialGradient id="SVGID_3_" cx="-9121.9688" cy="1719.1858" r="5.9525" gradientTransform="matrix(4.491000e-11 -1.0003 1.0001 4.490100e-11 -1685.2588 -9020.9795)" gradientUnits="userSpaceOnUse">
			<stop  offset="0" style="stop-color:#FFFFFF;stop-opacity:0.3"/>
			<stop  offset="1" style="stop-color:#000000;stop-opacity:0"/>
		</radialGradient>
		<circle fill="url(#SVGID_3_)" cx="31.22" cy="103.59" r="3.11"/>
		<g>
			<circle opacity="0.5" fill="#141414" cx="31.22" cy="103.59" r="1.71"/>
			
				<radialGradient id="SVGID_4_" cx="-9121.7998" cy="1715.4108" r="1.9654" gradientTransform="matrix(4.491000e-11 -1.0003 1.0001 4.490100e-11 -1685.2588 -9020.9795)" gradientUnits="userSpaceOnUse">
				<stop  offset="0" style="stop-color:#FFFFFF;stop-opacity:0.3"/>
				<stop  offset="1" style="stop-color:#000000;stop-opacity:0"/>
			</radialGradient>
			<circle fill="url(#SVGID_4_)" cx="31.22" cy="103.59" r="1.71"/>
		</g>
		
			<linearGradient id="SVGID_5_" gradientUnits="userSpaceOnUse" x1="-9124.5605" y1="1714.4579" x2="-9124.5605" y2="1715.3353" gradientTransform="matrix(4.489700e-11 -1 1 4.489700e-11 -1684.4606 -9020.9785)">
			<stop  offset="0" style="stop-color:#FFFFFF;stop-opacity:0.6"/>
			<stop  offset="1" style="stop-color:#FFFFFF;stop-opacity:0.1"/>
		</linearGradient>
		<path fill="url(#SVGID_5_)" d="M29.93,103.59c0,0.38,0.17,0.71,0.43,0.94l0.4-0.4c-0.16-0.13-0.27-0.32-0.27-0.54
			c0-0.23,0.11-0.42,0.28-0.55l-0.4-0.4C30.11,102.87,29.93,103.2,29.93,103.59z"/>
	</g>
</g>
<g>
	
		<linearGradient id="SVGID_6_" gradientUnits="userSpaceOnUse" x1="-9141.8633" y1="2123.2922" x2="-9029.0693" y2="2123.2922" gradientTransform="matrix(4.489700e-11 -1 1 4.489700e-11 -1684.4606 -9020.9785)">
		<stop  offset="0.6" style="stop-color:#FFFFFF;stop-opacity:0"/>
		<stop  offset="1" style="stop-color:#FFFFFF;stop-opacity:0.1"/>
	</linearGradient>
	<path fill="url(#SVGID_6_)" d="M58.99,8.09c-27.19,0-41.48,24.55-44.45,41.05c-1.95,10.83-3.54,38.83-4.67,71.74
		c2.66-32.64,6.68-59.98,8.54-70.33c2.49-13.85,18.29-34.47,40.57-34.47l763.12,0c24.38,0,35.24,21.73,36.99,31.07
		c2.11,11.31,5.54,36.46,8.69,66.13c-1.18-30.22-2.84-55.97-5-67.59c-1.64-8.82-9.44-37.6-40.67-37.6L58.99,8.09z"/>
</g>
<g>
	
		<linearGradient id="SVGID_7_" gradientUnits="userSpaceOnUse" x1="-2180.7317" y1="2123.2922" x2="-2067.937" y2="2123.2922" gradientTransform="matrix(0 1 1 0 -1684.4606 2522.0217)">
		<stop  offset="0.6" style="stop-color:#FFFFFF;stop-opacity:0"/>
		<stop  offset="1" style="stop-color:#FFFFFF;stop-opacity:0.1"/>
	</linearGradient>
	<path fill="url(#SVGID_7_)" d="M58.99,454.08c-27.19,0-41.48-24.55-44.45-41.05c-1.95-10.83-3.54-38.83-4.67-71.74
		c2.66,32.64,6.68,59.98,8.54,70.33c2.49,13.85,18.29,34.47,40.57,34.47l763.12,0c24.38,0,35.24-21.73,36.99-31.07
		c2.11-11.31,5.54-36.46,8.69-66.13c-1.18,30.22-2.84,55.97-5,67.59c-1.64,8.82-9.44,37.6-40.67,37.6L58.99,454.08z"/>
</g>
<path fill="#121314" d="M37.2,173.09v116c0,3.31-2.69,6-6,6h0c-3.31,0-6-2.69-6-6v-116c0-3.31,2.69-6,6-6h0
	C34.51,167.09,37.2,169.77,37.2,173.09z"/>
<path d="M35.25,289.09c0,1.65-1.35,3-3,3s-3-1.35-3-3v-116c0-1.65,1.35-3,3-3s3,1.35,3,3V289.09z"/>
<path fill="#262626" d="M34.2,289.09c0,1.65-1.35,3-3,3s-3-1.35-3-3v-116c0-1.65,1.35-3,3-3s3,1.35,3,3V289.09z"/>
<linearGradient id="SVGID_8_" gradientUnits="userSpaceOnUse" x1="-9334.8086" y1="1704.276" x2="-9329.1416" y2="1702.2131" gradientTransform="matrix(4.467600e-11 -0.9951 0.9951 4.467600e-11 -1663.6711 -8997.1133)">
	<stop  offset="0" style="stop-color:#FFFFFF;stop-opacity:0.15"/>
	<stop  offset="0.1434" style="stop-color:#FFFFFF;stop-opacity:0.1285"/>
	<stop  offset="1" style="stop-color:#FFFFFF;stop-opacity:0"/>
</linearGradient>
<circle fill="url(#SVGID_8_)" cx="31.22" cy="289.07" r="3"/>
<linearGradient id="SVGID_9_" gradientUnits="userSpaceOnUse" x1="-9218.252" y1="6771.6816" x2="-9212.584" y2="6769.6187" gradientTransform="matrix(4.467600e-11 -0.9951 -0.9951 -4.467600e-11 6768.645 -8997.1133)">
	<stop  offset="0" style="stop-color:#FFFFFF;stop-opacity:0"/>
	<stop  offset="0.8566" style="stop-color:#FFFFFF;stop-opacity:0.1285"/>
	<stop  offset="1" style="stop-color:#FFFFFF;stop-opacity:0.15"/>
</linearGradient>
<circle fill="url(#SVGID_9_)" cx="31.22" cy="173.09" r="3"/>
<path fill="#121314" d="M852.64,173.09v116c0,3.31-2.69,6-6,6l0,0c-3.31,0-6-2.69-6-6v-116c0-3.31,2.69-6,6-6l0,0
	C849.96,167.09,852.64,169.77,852.64,173.09z"/>
<path d="M850.69,289.09c0,1.65-1.35,3-3,3s-3-1.35-3-3v-116c0-1.65,1.35-3,3-3s3,1.35,3,3V289.09z"/>
<path fill="#262626" d="M849.64,289.09c0,1.65-1.35,3-3,3s-3-1.35-3-3v-116c0-1.65,1.35-3,3-3s3,1.35,3,3V289.09z"/>
<linearGradient id="SVGID_10_" gradientUnits="userSpaceOnUse" x1="-9334.8086" y1="2523.7378" x2="-9329.1416" y2="2521.675" gradientTransform="matrix(4.467600e-11 -0.9951 0.9951 4.467600e-11 -1663.6711 -8997.1133)">
	<stop  offset="0" style="stop-color:#FFFFFF;stop-opacity:0.15"/>
	<stop  offset="0.1434" style="stop-color:#FFFFFF;stop-opacity:0.1285"/>
	<stop  offset="1" style="stop-color:#FFFFFF;stop-opacity:0"/>
</linearGradient>
<circle fill="url(#SVGID_10_)" cx="846.66" cy="289.07" r="3"/>
<linearGradient id="SVGID_11_" gradientUnits="userSpaceOnUse" x1="-9218.252" y1="5952.2349" x2="-9212.584" y2="5950.1719" gradientTransform="matrix(4.467600e-11 -0.9951 -0.9951 -4.467600e-11 6768.645 -8997.1133)">
	<stop  offset="0" style="stop-color:#FFFFFF;stop-opacity:0"/>
	<stop  offset="0.8566" style="stop-color:#FFFFFF;stop-opacity:0.1285"/>
	<stop  offset="1" style="stop-color:#FFFFFF;stop-opacity:0.15"/>
</linearGradient>
<circle fill="url(#SVGID_11_)" cx="846.64" cy="173.09" r="3"/>
<rect x="84" y="25" width="732" height="411"/>
<g>
</g>
<g>
</g>
<g>
</g>
<g>
</g>
<g>
</g>
<g>
</g>
<g>
</g>
<g>
</g>
<g>
</g>
<g>
</g>
<g>
</g>
<g>
</g>
<g>
</g>
<g>
</g>
<g>
</g>
<g>
</g>
</svg>
