<?xml version="1.0" encoding="utf-8"?>
<!-- Generator: Adobe Illustrator 18.0.0, SVG Export Plug-In . SVG Version: 6.00 Build 0)  -->
<!DOCTYPE svg PUBLIC "-//W3C//DTD SVG 1.1//EN" "http://www.w3.org/Graphics/SVG/1.1/DTD/svg11.dtd">
<svg version="1.1" id="Layer_1" xmlns="http://www.w3.org/2000/svg" xmlns:xlink="http://www.w3.org/1999/xlink" x="0px" y="0px"
	 width="1330px" height="895px" viewBox="0 0 1330 895" enable-background="new 0 0 1330 895" xml:space="preserve">
<g>
	<g>
		<path fill="#232323" d="M1279.87,3c24.5,0,44.54,20.05,44.54,44.55v789.78c0,24.5-20.04,44.55-44.54,44.55H55.59
			c-24.5,0-44.54-20.05-44.54-44.55V47.55C11.05,23.05,31.1,3,55.59,3H1279.87z"/>
	</g>
	<linearGradient id="SVGID_1_" gradientUnits="userSpaceOnUse" x1="134.896" y1="-90.397" x2="424.0065" y2="198.7135">
		<stop  offset="0" style="stop-color:#FFFFFF;stop-opacity:0.15"/>
		<stop  offset="1" style="stop-color:#FFFFFF;stop-opacity:0"/>
	</linearGradient>
	<path fill="url(#SVGID_1_)" d="M19,48.76c0-10.05,3.94-19.54,11.11-26.7c7.16-7.16,16.64-11.11,26.69-11.11h1221.86
		c10.05,0,19.53,3.94,26.69,11.11s11.1,16.64,11.1,26.7v787.36c0,10.05-3.94,19.54-11.1,26.7c-7.16,7.16-16.64,11.11-26.69,11.11
		H56.8c-10.05,0-19.53-3.95-26.69-11.11C22.95,855.65,19,846.17,19,836.11V48.76"/>
	<g>
		<g>
			<circle fill-rule="evenodd" clip-rule="evenodd" fill="#262626" cx="1249.52" cy="432.49" r="7.64"/>
			<circle fill-rule="evenodd" clip-rule="evenodd" fill="#29292A" cx="1249.52" cy="432.49" r="7.38"/>
			<circle fill-rule="evenodd" clip-rule="evenodd" fill="#2C2B2D" cx="1249.52" cy="432.49" r="7.12"/>
			<circle fill-rule="evenodd" clip-rule="evenodd" fill="#2E2E31" cx="1249.52" cy="432.49" r="6.86"/>
			<circle fill-rule="evenodd" clip-rule="evenodd" fill="#313135" cx="1249.52" cy="432.49" r="6.6"/>
			<circle fill-rule="evenodd" clip-rule="evenodd" fill="#343338" cx="1249.52" cy="432.49" r="6.35"/>
			<circle fill-rule="evenodd" clip-rule="evenodd" fill="#37363C" cx="1249.52" cy="432.49" r="6.09"/>
			<circle fill-rule="evenodd" clip-rule="evenodd" fill="#3A383F" cx="1249.52" cy="432.49" r="5.83"/>
			<circle fill-rule="evenodd" clip-rule="evenodd" fill="#3D3B43" cx="1249.52" cy="432.49" r="5.57"/>
			<circle fill-rule="evenodd" clip-rule="evenodd" fill="#3F3E47" cx="1249.52" cy="432.49" r="5.31"/>
			<circle fill-rule="evenodd" clip-rule="evenodd" fill="#42404A" cx="1249.52" cy="432.49" r="5.05"/>
			<circle fill-rule="evenodd" clip-rule="evenodd" fill="#45434E" cx="1249.52" cy="432.49" r="4.79"/>
		</g>
		<g>
			<circle fill-rule="evenodd" clip-rule="evenodd" fill="#45434E" cx="1249.52" cy="432.49" r="4.79"/>
			<circle fill-rule="evenodd" clip-rule="evenodd" fill="#52505B" cx="1249.52" cy="432.49" r="4.43"/>
			<circle fill-rule="evenodd" clip-rule="evenodd" fill="#5F5D69" cx="1249.52" cy="432.49" r="4.06"/>
			<circle fill-rule="evenodd" clip-rule="evenodd" fill="#6C6A76" cx="1249.52" cy="432.49" r="3.7"/>
			<circle fill-rule="evenodd" clip-rule="evenodd" fill="#797783" cx="1249.52" cy="432.49" r="3.33"/>
			<circle fill-rule="evenodd" clip-rule="evenodd" fill="#868491" cx="1249.52" cy="432.49" r="2.97"/>
			<circle fill-rule="evenodd" clip-rule="evenodd" fill="#94929E" cx="1249.52" cy="432.49" r="2.6"/>
			<circle fill-rule="evenodd" clip-rule="evenodd" fill="#A19FAC" cx="1249.52" cy="432.49" r="2.24"/>
			<circle fill-rule="evenodd" clip-rule="evenodd" fill="#AEACB9" cx="1249.52" cy="432.49" r="1.87"/>
			<circle fill-rule="evenodd" clip-rule="evenodd" fill="#BBB9C6" cx="1249.52" cy="432.49" r="1.5"/>
			<circle fill-rule="evenodd" clip-rule="evenodd" fill="#C8C6D4" cx="1249.52" cy="432.49" r="1.14"/>
			<circle fill-rule="evenodd" clip-rule="evenodd" fill="#D5D3E1" cx="1249.52" cy="432.49" r="0.77"/>
		</g>
		<circle fill-rule="evenodd" clip-rule="evenodd" fill="#FFFFFF" cx="1249.52" cy="432.49" r="0.77"/>
	</g>
	<g>
		<g>
			<circle fill="#5D5D5F" cx="81.94" cy="442.44" r="7.93"/>
			
				<radialGradient id="SVGID_2_" cx="-2601.199" cy="-3957.0852" r="5.0777" gradientTransform="matrix(1.5616 0 0 1.5613 4144.0391 6621.7637)" gradientUnits="userSpaceOnUse">
				<stop  offset="0" style="stop-color:#000000;stop-opacity:0"/>
				<stop  offset="0.5149" style="stop-color:#020202;stop-opacity:0.4119"/>
				<stop  offset="0.7003" style="stop-color:#090909;stop-opacity:0.5603"/>
				<stop  offset="0.8325" style="stop-color:#141414;stop-opacity:0.666"/>
				<stop  offset="0.9387" style="stop-color:#252525;stop-opacity:0.7509"/>
				<stop  offset="1" style="stop-color:#333333;stop-opacity:0.8"/>
			</radialGradient>
			<circle fill="url(#SVGID_2_)" cx="81.94" cy="442.44" r="7.93"/>
			<circle fill="#1B1A1F" cx="81.94" cy="442.44" r="4.44"/>
			<circle fill="#36284C" cx="81.94" cy="442.44" r="3.25"/>
			
				<radialGradient id="SVGID_3_" cx="-2601.3359" cy="-3955.8796" r="3.9879" gradientTransform="matrix(1.5616 0 0 1.5613 4144.0391 6621.7637)" gradientUnits="userSpaceOnUse">
				<stop  offset="0" style="stop-color:#FFFFFF;stop-opacity:0.3"/>
				<stop  offset="1" style="stop-color:#000000;stop-opacity:0"/>
			</radialGradient>
			<circle fill="url(#SVGID_3_)" cx="81.94" cy="442.44" r="3.25"/>
			<g>
				<circle opacity="0.5" fill="#141414" cx="81.94" cy="442.44" r="1.79"/>
				
					<radialGradient id="SVGID_4_" cx="-2601.2239" cy="-3958.4067" r="1.3166" gradientTransform="matrix(1.5616 0 0 1.5613 4144.0391 6621.7637)" gradientUnits="userSpaceOnUse">
					<stop  offset="0" style="stop-color:#FFFFFF;stop-opacity:0.3"/>
					<stop  offset="1" style="stop-color:#000000;stop-opacity:0"/>
				</radialGradient>
				<circle fill="url(#SVGID_4_)" cx="81.94" cy="442.44" r="1.79"/>
			</g>
			
				<linearGradient id="SVGID_5_" gradientUnits="userSpaceOnUse" x1="-3273.4172" y1="-6824.8374" x2="-3273.4172" y2="-6823.9209" gradientTransform="matrix(1 0 0 1 3355.3574 7266)">
				<stop  offset="0" style="stop-color:#FFFFFF;stop-opacity:0.6"/>
				<stop  offset="1" style="stop-color:#FFFFFF;stop-opacity:0.1"/>
			</linearGradient>
			<path fill="url(#SVGID_5_)" d="M81.94,441.09c-0.4,0-0.74,0.18-0.99,0.45l0.42,0.42c0.14-0.17,0.34-0.28,0.57-0.28
				c0.24,0,0.44,0.12,0.58,0.29l0.42-0.42C82.69,441.28,82.34,441.09,81.94,441.09z"/>
		</g>
	</g>
	<path fill="#595959" d="M19,48.76c0-10.05,3.94-19.54,11.11-26.7c7.16-7.16,16.64-11.11,26.69-11.11h1221.86
		c10.05,0,19.53,3.94,26.69,11.11s11.1,16.64,11.1,26.7v787.36c0,10.05-3.94,19.54-11.1,26.7c-7.16,7.16-16.64,11.11-26.69,11.11
		H56.8c-10.05,0-19.53-3.95-26.69-11.11C22.95,855.65,19,846.17,19,836.11V48.76 M16.66,48.76v787.36
		c0,22.08,18.06,40.15,40.14,40.15h1221.86c22.08,0,40.14-18.07,40.14-40.15V48.76c0-22.08-18.06-40.15-40.14-40.15H56.8
		C34.72,8.61,16.66,26.67,16.66,48.76L16.66,48.76z"/>
	<path fill="#808080" d="M30.11,22.06C22.95,29.22,19,38.7,19,48.76v787.36c0,10.05,3.94,19.54,11.11,26.7
		c7.16,7.16,16.64,11.11,26.69,11.11h0.32c-10.05,0-19.53-3.95-26.69-11.11c-7.16-7.16-11.11-16.65-10.7-26.7V48.76
		c-0.41-10.05,3.54-19.54,10.7-26.7c7.16-7.16,16.64-11.11,26.69-11.11H56.8C46.75,10.95,37.27,14.9,30.11,22.06z"/>
	<g>
		<polygon fill="#4D4D4D" points="24.24,288.23 24.24,596.64 19.28,599.55 19.28,285.32 		"/>
		<polygon fill="#808080" points="23.61,288.23 23.61,596.64 19.28,599.38 19.28,599.55 24.24,596.64 24.24,288.23 19.28,285.32 
			19.28,285.49 		"/>
		<g>
			<g>
				<g>
					<rect x="20.77" y="290.35" fill="none" width="1.98" height="1.98"/>
					<circle cx="21.76" cy="291.34" r="0.99"/>
				</g>
				<g>
					<rect x="20.77" y="293.81" fill="none" width="1.98" height="1.98"/>
					<circle cx="21.76" cy="294.8" r="0.99"/>
				</g>
				<g>
					<rect x="20.77" y="297.27" fill="none" width="1.98" height="1.98"/>
					<circle cx="21.76" cy="298.26" r="0.99"/>
				</g>
				<g>
					<rect x="20.77" y="300.74" fill="none" width="1.98" height="1.98"/>
					<circle cx="21.76" cy="301.73" r="0.99"/>
				</g>
				<g>
					<rect x="20.77" y="304.2" fill="none" width="1.98" height="1.98"/>
					<circle cx="21.76" cy="305.19" r="0.99"/>
				</g>
				<g>
					<rect x="20.77" y="307.66" fill="none" width="1.98" height="1.98"/>
					<circle cx="21.76" cy="308.65" r="0.99"/>
				</g>
				<g>
					<rect x="20.77" y="311.13" fill="none" width="1.98" height="1.98"/>
					<circle cx="21.76" cy="312.12" r="0.99"/>
				</g>
				<g>
					<rect x="20.77" y="314.59" fill="none" width="1.98" height="1.98"/>
					<circle cx="21.76" cy="315.58" r="0.99"/>
				</g>
				<g>
					<rect x="20.77" y="318.05" fill="none" width="1.98" height="1.98"/>
					<circle cx="21.76" cy="319.04" r="0.99"/>
				</g>
				<g>
					<rect x="20.77" y="321.52" fill="none" width="1.98" height="1.98"/>
					<circle cx="21.76" cy="322.51" r="0.99"/>
				</g>
				<g>
					<rect x="20.77" y="324.98" fill="none" width="1.98" height="1.98"/>
					<circle cx="21.76" cy="325.97" r="0.99"/>
				</g>
				<g>
					<rect x="20.77" y="328.44" fill="none" width="1.98" height="1.98"/>
					<circle cx="21.76" cy="329.43" r="0.99"/>
				</g>
				<g>
					<rect x="20.77" y="331.91" fill="none" width="1.98" height="1.98"/>
					<circle cx="21.76" cy="332.9" r="0.99"/>
				</g>
				<g>
					<rect x="20.77" y="335.37" fill="none" width="1.98" height="1.98"/>
					<circle cx="21.76" cy="336.36" r="0.99"/>
				</g>
				<g>
					<rect x="20.77" y="338.84" fill="none" width="1.98" height="1.98"/>
					<circle cx="21.76" cy="339.83" r="0.99"/>
				</g>
				<g>
					<rect x="20.77" y="342.3" fill="none" width="1.98" height="1.98"/>
					<circle cx="21.76" cy="343.29" r="0.99"/>
				</g>
				<g>
					<rect x="20.77" y="345.76" fill="none" width="1.98" height="1.98"/>
					<circle cx="21.76" cy="346.75" r="0.99"/>
				</g>
				<g>
					<rect x="20.77" y="349.23" fill="none" width="1.98" height="1.98"/>
					<circle cx="21.76" cy="350.22" r="0.99"/>
				</g>
				<g>
					<rect x="20.77" y="352.69" fill="none" width="1.98" height="1.98"/>
					<circle cx="21.76" cy="353.68" r="0.99"/>
				</g>
				<g>
					<rect x="20.77" y="356.15" fill="none" width="1.98" height="1.98"/>
					<circle cx="21.76" cy="357.14" r="0.99"/>
				</g>
				<g>
					<rect x="20.77" y="359.62" fill="none" width="1.98" height="1.98"/>
					<circle cx="21.76" cy="360.61" r="0.99"/>
				</g>
				<g>
					<rect x="20.77" y="363.08" fill="none" width="1.98" height="1.98"/>
					<circle cx="21.76" cy="364.07" r="0.99"/>
				</g>
				<g>
					<rect x="20.77" y="366.54" fill="none" width="1.98" height="1.98"/>
					<circle cx="21.76" cy="367.53" r="0.99"/>
				</g>
				<g>
					<rect x="20.77" y="370.01" fill="none" width="1.98" height="1.98"/>
					<circle cx="21.76" cy="371" r="0.99"/>
				</g>
				<g>
					<rect x="20.77" y="373.47" fill="none" width="1.98" height="1.98"/>
					<circle cx="21.76" cy="374.46" r="0.99"/>
				</g>
				<g>
					<rect x="20.77" y="376.94" fill="none" width="1.98" height="1.98"/>
					<circle cx="21.76" cy="377.92" r="0.99"/>
				</g>
				<g>
					<rect x="20.77" y="380.4" fill="none" width="1.98" height="1.98"/>
					<circle cx="21.76" cy="381.39" r="0.99"/>
				</g>
				<g>
					<rect x="20.77" y="383.86" fill="none" width="1.98" height="1.98"/>
					<circle cx="21.76" cy="384.85" r="0.99"/>
				</g>
				<g>
					<rect x="20.77" y="387.33" fill="none" width="1.98" height="1.98"/>
					<circle cx="21.76" cy="388.32" r="0.99"/>
				</g>
				<g>
					<rect x="20.77" y="390.79" fill="none" width="1.98" height="1.98"/>
					<circle cx="21.76" cy="391.78" r="0.99"/>
				</g>
				<g>
					<rect x="20.77" y="394.25" fill="none" width="1.98" height="1.98"/>
					<circle cx="21.76" cy="395.24" r="0.99"/>
				</g>
				<g>
					<rect x="20.77" y="397.72" fill="none" width="1.98" height="1.98"/>
					<circle cx="21.76" cy="398.71" r="0.99"/>
				</g>
				<g>
					<rect x="20.77" y="401.18" fill="none" width="1.98" height="1.98"/>
					<circle cx="21.76" cy="402.17" r="0.99"/>
				</g>
				<g>
					<rect x="20.77" y="404.64" fill="none" width="1.98" height="1.98"/>
					<circle cx="21.76" cy="405.63" r="0.99"/>
				</g>
				<g>
					<rect x="20.77" y="408.11" fill="none" width="1.98" height="1.98"/>
					<circle cx="21.76" cy="409.1" r="0.99"/>
				</g>
				<g>
					<rect x="20.77" y="411.57" fill="none" width="1.98" height="1.98"/>
					<circle cx="21.76" cy="412.56" r="0.99"/>
				</g>
				<g>
					<rect x="20.77" y="415.03" fill="none" width="1.98" height="1.98"/>
					<circle cx="21.76" cy="416.02" r="0.99"/>
				</g>
				<g>
					<rect x="20.77" y="418.5" fill="none" width="1.98" height="1.98"/>
					<circle cx="21.76" cy="419.49" r="0.99"/>
				</g>
				<g>
					<rect x="20.77" y="421.96" fill="none" width="1.98" height="1.98"/>
					<circle cx="21.76" cy="422.95" r="0.99"/>
				</g>
				<g>
					<rect x="20.77" y="425.43" fill="none" width="1.98" height="1.98"/>
					<circle cx="21.76" cy="426.41" r="0.99"/>
				</g>
				<g>
					<rect x="20.77" y="428.89" fill="none" width="1.98" height="1.98"/>
					<circle cx="21.76" cy="429.88" r="0.99"/>
				</g>
				<g>
					<rect x="20.77" y="432.35" fill="none" width="1.98" height="1.98"/>
					<circle cx="21.76" cy="433.34" r="0.99"/>
				</g>
				<g>
					<rect x="20.77" y="435.82" fill="none" width="1.98" height="1.98"/>
					<circle cx="21.76" cy="436.81" r="0.99"/>
				</g>
				<g>
					<rect x="20.77" y="439.28" fill="none" width="1.98" height="1.98"/>
					<circle cx="21.76" cy="440.27" r="0.99"/>
				</g>
				<g>
					<rect x="20.77" y="442.74" fill="none" width="1.98" height="1.98"/>
					<circle cx="21.76" cy="443.73" r="0.99"/>
				</g>
				<g>
					<rect x="20.77" y="446.21" fill="none" width="1.98" height="1.98"/>
					<circle cx="21.76" cy="447.2" r="0.99"/>
				</g>
				<g>
					<rect x="20.77" y="449.67" fill="none" width="1.98" height="1.98"/>
					<circle cx="21.76" cy="450.66" r="0.99"/>
				</g>
				<g>
					<rect x="20.77" y="453.13" fill="none" width="1.98" height="1.98"/>
					<circle cx="21.76" cy="454.12" r="0.99"/>
				</g>
				<g>
					<rect x="20.77" y="456.6" fill="none" width="1.98" height="1.98"/>
					<circle cx="21.76" cy="457.59" r="0.99"/>
				</g>
				<g>
					<rect x="20.77" y="460.06" fill="none" width="1.98" height="1.98"/>
					<circle cx="21.76" cy="461.05" r="0.99"/>
				</g>
				<g>
					<rect x="20.77" y="463.52" fill="none" width="1.98" height="1.98"/>
					<circle cx="21.76" cy="464.51" r="0.99"/>
				</g>
				<g>
					<rect x="20.77" y="466.99" fill="none" width="1.98" height="1.98"/>
					<circle cx="21.76" cy="467.98" r="0.99"/>
				</g>
				<g>
					<rect x="20.77" y="470.45" fill="none" width="1.98" height="1.98"/>
					<circle cx="21.76" cy="471.44" r="0.99"/>
				</g>
				<g>
					<rect x="20.77" y="473.92" fill="none" width="1.98" height="1.98"/>
					<circle cx="21.76" cy="474.9" r="0.99"/>
				</g>
				<g>
					<rect x="20.77" y="477.38" fill="none" width="1.98" height="1.98"/>
					<circle cx="21.76" cy="478.37" r="0.99"/>
				</g>
				<g>
					<rect x="20.77" y="480.84" fill="none" width="1.98" height="1.98"/>
					<circle cx="21.76" cy="481.83" r="0.99"/>
				</g>
				<g>
					<rect x="20.77" y="484.31" fill="none" width="1.98" height="1.98"/>
					<circle cx="21.76" cy="485.3" r="0.99"/>
				</g>
				<g>
					<rect x="20.77" y="487.77" fill="none" width="1.98" height="1.98"/>
					<circle cx="21.76" cy="488.76" r="0.99"/>
				</g>
				<g>
					<rect x="20.77" y="491.23" fill="none" width="1.98" height="1.98"/>
					<circle cx="21.76" cy="492.22" r="0.99"/>
				</g>
				<g>
					<rect x="20.77" y="494.7" fill="none" width="1.98" height="1.98"/>
					<circle cx="21.76" cy="495.69" r="0.99"/>
				</g>
				<g>
					<rect x="20.77" y="498.16" fill="none" width="1.98" height="1.98"/>
					<circle cx="21.76" cy="499.15" r="0.99"/>
				</g>
				<g>
					<rect x="20.77" y="501.62" fill="none" width="1.98" height="1.98"/>
					<circle cx="21.76" cy="502.61" r="0.99"/>
				</g>
				<g>
					<rect x="20.77" y="505.09" fill="none" width="1.98" height="1.98"/>
					<circle cx="21.76" cy="506.08" r="0.99"/>
				</g>
				<g>
					<rect x="20.77" y="508.55" fill="none" width="1.98" height="1.98"/>
					<circle cx="21.76" cy="509.54" r="0.99"/>
				</g>
				<g>
					<rect x="20.77" y="512.01" fill="none" width="1.98" height="1.98"/>
					<circle cx="21.76" cy="513" r="0.99"/>
				</g>
				<g>
					<rect x="20.77" y="515.48" fill="none" width="1.98" height="1.98"/>
					<circle cx="21.76" cy="516.47" r="0.99"/>
				</g>
				<g>
					<rect x="20.77" y="518.94" fill="none" width="1.98" height="1.98"/>
					<circle cx="21.76" cy="519.93" r="0.99"/>
				</g>
				<g>
					<rect x="20.77" y="522.41" fill="none" width="1.98" height="1.98"/>
					<circle cx="21.76" cy="523.4" r="0.99"/>
				</g>
				<g>
					<rect x="20.77" y="525.87" fill="none" width="1.98" height="1.98"/>
					<circle cx="21.76" cy="526.86" r="0.99"/>
				</g>
				<g>
					<rect x="20.77" y="529.33" fill="none" width="1.98" height="1.98"/>
					<circle cx="21.76" cy="530.32" r="0.99"/>
				</g>
				<g>
					<rect x="20.77" y="532.8" fill="none" width="1.98" height="1.98"/>
					<circle cx="21.76" cy="533.79" r="0.99"/>
				</g>
				<g>
					<rect x="20.77" y="536.26" fill="none" width="1.98" height="1.98"/>
					<circle cx="21.76" cy="537.25" r="0.99"/>
				</g>
				<g>
					<rect x="20.77" y="539.72" fill="none" width="1.98" height="1.98"/>
					<circle cx="21.76" cy="540.71" r="0.99"/>
				</g>
				<g>
					<rect x="20.77" y="543.19" fill="none" width="1.98" height="1.98"/>
					<circle cx="21.76" cy="544.18" r="0.99"/>
				</g>
				<g>
					<rect x="20.77" y="546.65" fill="none" width="1.98" height="1.98"/>
					<circle cx="21.76" cy="547.64" r="0.99"/>
				</g>
				<g>
					<rect x="20.77" y="550.11" fill="none" width="1.98" height="1.98"/>
					<circle cx="21.76" cy="551.1" r="0.99"/>
				</g>
				<g>
					<rect x="20.77" y="553.58" fill="none" width="1.98" height="1.98"/>
					<circle cx="21.76" cy="554.57" r="0.99"/>
				</g>
				<g>
					<rect x="20.77" y="557.04" fill="none" width="1.98" height="1.98"/>
					<circle cx="21.76" cy="558.03" r="0.99"/>
				</g>
				<g>
					<rect x="20.77" y="560.5" fill="none" width="1.98" height="1.98"/>
					<circle cx="21.76" cy="561.49" r="0.99"/>
				</g>
				<g>
					<rect x="20.77" y="563.97" fill="none" width="1.98" height="1.98"/>
					<circle cx="21.76" cy="564.96" r="0.99"/>
				</g>
				<g>
					<rect x="20.77" y="567.43" fill="none" width="1.98" height="1.98"/>
					<circle cx="21.76" cy="568.42" r="0.99"/>
				</g>
				<g>
					<rect x="20.77" y="570.9" fill="none" width="1.98" height="1.98"/>
					<circle cx="21.76" cy="571.89" r="0.99"/>
				</g>
				<g>
					<rect x="20.77" y="574.36" fill="none" width="1.98" height="1.98"/>
					<circle cx="21.76" cy="575.35" r="0.99"/>
				</g>
				<g>
					<rect x="20.77" y="577.82" fill="none" width="1.98" height="1.98"/>
					<circle cx="21.76" cy="578.81" r="0.99"/>
				</g>
				<g>
					<rect x="20.77" y="581.29" fill="none" width="1.98" height="1.98"/>
					<circle cx="21.76" cy="582.28" r="0.99"/>
				</g>
				<g>
					<rect x="20.77" y="584.75" fill="none" width="1.98" height="1.98"/>
					<circle cx="21.76" cy="585.74" r="0.99"/>
				</g>
				<g>
					<rect x="20.77" y="588.21" fill="none" width="1.98" height="1.98"/>
					<circle cx="21.76" cy="589.2" r="0.99"/>
				</g>
				<g>
					<rect x="20.77" y="591.68" fill="none" width="1.98" height="1.98"/>
					<circle cx="21.76" cy="592.67" r="0.99"/>
				</g>
			</g>
		</g>
	</g>
	<g>
		<polygon fill="#4D4D4D" points="1311.46,288.23 1311.46,596.64 1316.42,599.55 1316.42,285.32 		"/>
		<polygon points="1312.09,288.23 1312.09,596.64 1316.42,599.38 1316.42,599.55 1311.46,596.64 1311.46,288.23 1316.42,285.32 
			1316.42,285.49 		"/>
		<g>
			<g>
				<g>
					<rect x="1312.95" y="290.35" fill="none" width="1.98" height="1.98"/>
					<circle cx="1313.94" cy="291.34" r="0.99"/>
				</g>
				<g>
					<rect x="1312.95" y="293.81" fill="none" width="1.98" height="1.98"/>
					<circle cx="1313.94" cy="294.8" r="0.99"/>
				</g>
				<g>
					<rect x="1312.95" y="297.27" fill="none" width="1.98" height="1.98"/>
					<circle cx="1313.94" cy="298.26" r="0.99"/>
				</g>
				<g>
					<rect x="1312.95" y="300.74" fill="none" width="1.98" height="1.98"/>
					<circle cx="1313.94" cy="301.73" r="0.99"/>
				</g>
				<g>
					<rect x="1312.95" y="304.2" fill="none" width="1.98" height="1.98"/>
					<circle cx="1313.94" cy="305.19" r="0.99"/>
				</g>
				<g>
					<rect x="1312.95" y="307.66" fill="none" width="1.98" height="1.98"/>
					<circle cx="1313.94" cy="308.65" r="0.99"/>
				</g>
				<g>
					<rect x="1312.95" y="311.13" fill="none" width="1.98" height="1.98"/>
					<circle cx="1313.94" cy="312.12" r="0.99"/>
				</g>
				<g>
					<rect x="1312.95" y="314.59" fill="none" width="1.98" height="1.98"/>
					<circle cx="1313.94" cy="315.58" r="0.99"/>
				</g>
				<g>
					<rect x="1312.95" y="318.05" fill="none" width="1.98" height="1.98"/>
					<circle cx="1313.94" cy="319.04" r="0.99"/>
				</g>
				<g>
					<rect x="1312.95" y="321.52" fill="none" width="1.98" height="1.98"/>
					<circle cx="1313.94" cy="322.51" r="0.99"/>
				</g>
				<g>
					<rect x="1312.95" y="324.98" fill="none" width="1.98" height="1.98"/>
					<circle cx="1313.94" cy="325.97" r="0.99"/>
				</g>
				<g>
					<rect x="1312.95" y="328.44" fill="none" width="1.98" height="1.98"/>
					<circle cx="1313.94" cy="329.43" r="0.99"/>
				</g>
				<g>
					<rect x="1312.95" y="331.91" fill="none" width="1.98" height="1.98"/>
					<circle cx="1313.94" cy="332.9" r="0.99"/>
				</g>
				<g>
					<rect x="1312.95" y="335.37" fill="none" width="1.98" height="1.98"/>
					<circle cx="1313.94" cy="336.36" r="0.99"/>
				</g>
				<g>
					<rect x="1312.95" y="338.84" fill="none" width="1.98" height="1.98"/>
					<circle cx="1313.94" cy="339.83" r="0.99"/>
				</g>
				<g>
					<rect x="1312.95" y="342.3" fill="none" width="1.98" height="1.98"/>
					<circle cx="1313.94" cy="343.29" r="0.99"/>
				</g>
				<g>
					<rect x="1312.95" y="345.76" fill="none" width="1.98" height="1.98"/>
					<circle cx="1313.94" cy="346.75" r="0.99"/>
				</g>
				<g>
					<rect x="1312.95" y="349.23" fill="none" width="1.98" height="1.98"/>
					<circle cx="1313.94" cy="350.22" r="0.99"/>
				</g>
				<g>
					<rect x="1312.95" y="352.69" fill="none" width="1.98" height="1.98"/>
					<circle cx="1313.94" cy="353.68" r="0.99"/>
				</g>
				<g>
					<rect x="1312.95" y="356.15" fill="none" width="1.98" height="1.98"/>
					<circle cx="1313.94" cy="357.14" r="0.99"/>
				</g>
				<g>
					<rect x="1312.95" y="359.62" fill="none" width="1.98" height="1.98"/>
					<circle cx="1313.94" cy="360.61" r="0.99"/>
				</g>
				<g>
					<rect x="1312.95" y="363.08" fill="none" width="1.98" height="1.98"/>
					<circle cx="1313.94" cy="364.07" r="0.99"/>
				</g>
				<g>
					<rect x="1312.95" y="366.54" fill="none" width="1.98" height="1.98"/>
					<circle cx="1313.94" cy="367.53" r="0.99"/>
				</g>
				<g>
					<rect x="1312.95" y="370.01" fill="none" width="1.98" height="1.98"/>
					<circle cx="1313.94" cy="371" r="0.99"/>
				</g>
				<g>
					<rect x="1312.95" y="373.47" fill="none" width="1.98" height="1.98"/>
					<circle cx="1313.94" cy="374.46" r="0.99"/>
				</g>
				<g>
					<rect x="1312.95" y="376.94" fill="none" width="1.98" height="1.98"/>
					<circle cx="1313.94" cy="377.92" r="0.99"/>
				</g>
				<g>
					<rect x="1312.95" y="380.4" fill="none" width="1.98" height="1.98"/>
					<circle cx="1313.94" cy="381.39" r="0.99"/>
				</g>
				<g>
					<rect x="1312.95" y="383.86" fill="none" width="1.98" height="1.98"/>
					<circle cx="1313.94" cy="384.85" r="0.99"/>
				</g>
				<g>
					<rect x="1312.95" y="387.33" fill="none" width="1.98" height="1.98"/>
					<circle cx="1313.94" cy="388.32" r="0.99"/>
				</g>
				<g>
					<rect x="1312.95" y="390.79" fill="none" width="1.98" height="1.98"/>
					<circle cx="1313.94" cy="391.78" r="0.99"/>
				</g>
				<g>
					<rect x="1312.95" y="394.25" fill="none" width="1.98" height="1.98"/>
					<circle cx="1313.94" cy="395.24" r="0.99"/>
				</g>
				<g>
					<rect x="1312.95" y="397.72" fill="none" width="1.98" height="1.98"/>
					<circle cx="1313.94" cy="398.71" r="0.99"/>
				</g>
				<g>
					<rect x="1312.95" y="401.18" fill="none" width="1.98" height="1.98"/>
					<circle cx="1313.94" cy="402.17" r="0.99"/>
				</g>
				<g>
					<rect x="1312.95" y="404.64" fill="none" width="1.98" height="1.98"/>
					<circle cx="1313.94" cy="405.63" r="0.99"/>
				</g>
				<g>
					<rect x="1312.95" y="408.11" fill="none" width="1.98" height="1.98"/>
					<circle cx="1313.94" cy="409.1" r="0.99"/>
				</g>
				<g>
					<rect x="1312.95" y="411.57" fill="none" width="1.98" height="1.98"/>
					<circle cx="1313.94" cy="412.56" r="0.99"/>
				</g>
				<g>
					<rect x="1312.95" y="415.03" fill="none" width="1.98" height="1.98"/>
					<circle cx="1313.94" cy="416.02" r="0.99"/>
				</g>
				<g>
					<rect x="1312.95" y="418.5" fill="none" width="1.98" height="1.98"/>
					<circle cx="1313.94" cy="419.49" r="0.99"/>
				</g>
				<g>
					<rect x="1312.95" y="421.96" fill="none" width="1.98" height="1.98"/>
					<circle cx="1313.94" cy="422.95" r="0.99"/>
				</g>
				<g>
					<rect x="1312.95" y="425.43" fill="none" width="1.98" height="1.98"/>
					<circle cx="1313.94" cy="426.41" r="0.99"/>
				</g>
				<g>
					<rect x="1312.95" y="428.89" fill="none" width="1.98" height="1.98"/>
					<circle cx="1313.94" cy="429.88" r="0.99"/>
				</g>
				<g>
					<rect x="1312.95" y="432.35" fill="none" width="1.98" height="1.98"/>
					<circle cx="1313.94" cy="433.34" r="0.99"/>
				</g>
				<g>
					<rect x="1312.95" y="435.82" fill="none" width="1.98" height="1.98"/>
					<circle cx="1313.94" cy="436.81" r="0.99"/>
				</g>
				<g>
					<rect x="1312.95" y="439.28" fill="none" width="1.98" height="1.98"/>
					<circle cx="1313.94" cy="440.27" r="0.99"/>
				</g>
				<g>
					<rect x="1312.95" y="442.74" fill="none" width="1.98" height="1.98"/>
					<circle cx="1313.94" cy="443.73" r="0.99"/>
				</g>
				<g>
					<rect x="1312.95" y="446.21" fill="none" width="1.98" height="1.98"/>
					<circle cx="1313.94" cy="447.2" r="0.99"/>
				</g>
				<g>
					<rect x="1312.95" y="449.67" fill="none" width="1.98" height="1.98"/>
					<circle cx="1313.94" cy="450.66" r="0.99"/>
				</g>
				<g>
					<rect x="1312.95" y="453.13" fill="none" width="1.98" height="1.98"/>
					<circle cx="1313.94" cy="454.12" r="0.99"/>
				</g>
				<g>
					<rect x="1312.95" y="456.6" fill="none" width="1.98" height="1.98"/>
					<circle cx="1313.94" cy="457.59" r="0.99"/>
				</g>
				<g>
					<rect x="1312.95" y="460.06" fill="none" width="1.98" height="1.98"/>
					<circle cx="1313.94" cy="461.05" r="0.99"/>
				</g>
				<g>
					<rect x="1312.95" y="463.52" fill="none" width="1.98" height="1.98"/>
					<circle cx="1313.94" cy="464.51" r="0.99"/>
				</g>
				<g>
					<rect x="1312.95" y="466.99" fill="none" width="1.98" height="1.98"/>
					<circle cx="1313.94" cy="467.98" r="0.99"/>
				</g>
				<g>
					<rect x="1312.95" y="470.45" fill="none" width="1.98" height="1.98"/>
					<circle cx="1313.94" cy="471.44" r="0.99"/>
				</g>
				<g>
					<rect x="1312.95" y="473.92" fill="none" width="1.98" height="1.98"/>
					<circle cx="1313.94" cy="474.9" r="0.99"/>
				</g>
				<g>
					<rect x="1312.95" y="477.38" fill="none" width="1.98" height="1.98"/>
					<circle cx="1313.94" cy="478.37" r="0.99"/>
				</g>
				<g>
					<rect x="1312.95" y="480.84" fill="none" width="1.98" height="1.98"/>
					<circle cx="1313.94" cy="481.83" r="0.99"/>
				</g>
				<g>
					<rect x="1312.95" y="484.31" fill="none" width="1.98" height="1.98"/>
					<circle cx="1313.94" cy="485.3" r="0.99"/>
				</g>
				<g>
					<rect x="1312.95" y="487.77" fill="none" width="1.98" height="1.98"/>
					<circle cx="1313.94" cy="488.76" r="0.99"/>
				</g>
				<g>
					<rect x="1312.95" y="491.23" fill="none" width="1.98" height="1.98"/>
					<circle cx="1313.94" cy="492.22" r="0.99"/>
				</g>
				<g>
					<rect x="1312.95" y="494.7" fill="none" width="1.98" height="1.98"/>
					<circle cx="1313.94" cy="495.69" r="0.99"/>
				</g>
				<g>
					<rect x="1312.95" y="498.16" fill="none" width="1.98" height="1.98"/>
					<circle cx="1313.94" cy="499.15" r="0.99"/>
				</g>
				<g>
					<rect x="1312.95" y="501.62" fill="none" width="1.98" height="1.98"/>
					<circle cx="1313.94" cy="502.61" r="0.99"/>
				</g>
				<g>
					<rect x="1312.95" y="505.09" fill="none" width="1.98" height="1.98"/>
					<circle cx="1313.94" cy="506.08" r="0.99"/>
				</g>
				<g>
					<rect x="1312.95" y="508.55" fill="none" width="1.98" height="1.98"/>
					<circle cx="1313.94" cy="509.54" r="0.99"/>
				</g>
				<g>
					<rect x="1312.95" y="512.01" fill="none" width="1.98" height="1.98"/>
					<circle cx="1313.94" cy="513" r="0.99"/>
				</g>
				<g>
					<rect x="1312.95" y="515.48" fill="none" width="1.98" height="1.98"/>
					<circle cx="1313.94" cy="516.47" r="0.99"/>
				</g>
				<g>
					<rect x="1312.95" y="518.94" fill="none" width="1.98" height="1.98"/>
					<circle cx="1313.94" cy="519.93" r="0.99"/>
				</g>
				<g>
					<rect x="1312.95" y="522.41" fill="none" width="1.98" height="1.98"/>
					<circle cx="1313.94" cy="523.4" r="0.99"/>
				</g>
				<g>
					<rect x="1312.95" y="525.87" fill="none" width="1.98" height="1.98"/>
					<circle cx="1313.94" cy="526.86" r="0.99"/>
				</g>
				<g>
					<rect x="1312.95" y="529.33" fill="none" width="1.98" height="1.98"/>
					<circle cx="1313.94" cy="530.32" r="0.99"/>
				</g>
				<g>
					<rect x="1312.95" y="532.8" fill="none" width="1.98" height="1.98"/>
					<circle cx="1313.94" cy="533.79" r="0.99"/>
				</g>
				<g>
					<rect x="1312.95" y="536.26" fill="none" width="1.98" height="1.98"/>
					<circle cx="1313.94" cy="537.25" r="0.99"/>
				</g>
				<g>
					<rect x="1312.95" y="539.72" fill="none" width="1.98" height="1.98"/>
					<circle cx="1313.94" cy="540.71" r="0.99"/>
				</g>
				<g>
					<rect x="1312.95" y="543.19" fill="none" width="1.98" height="1.98"/>
					<circle cx="1313.94" cy="544.18" r="0.99"/>
				</g>
				<g>
					<rect x="1312.95" y="546.65" fill="none" width="1.98" height="1.98"/>
					<circle cx="1313.94" cy="547.64" r="0.99"/>
				</g>
				<g>
					<rect x="1312.95" y="550.11" fill="none" width="1.98" height="1.98"/>
					<circle cx="1313.94" cy="551.1" r="0.99"/>
				</g>
				<g>
					<rect x="1312.95" y="553.58" fill="none" width="1.98" height="1.98"/>
					<circle cx="1313.94" cy="554.57" r="0.99"/>
				</g>
				<g>
					<rect x="1312.95" y="557.04" fill="none" width="1.98" height="1.98"/>
					<circle cx="1313.94" cy="558.03" r="0.99"/>
				</g>
				<g>
					<rect x="1312.95" y="560.5" fill="none" width="1.98" height="1.98"/>
					<circle cx="1313.94" cy="561.49" r="0.99"/>
				</g>
				<g>
					<rect x="1312.95" y="563.97" fill="none" width="1.98" height="1.98"/>
					<circle cx="1313.94" cy="564.96" r="0.99"/>
				</g>
				<g>
					<rect x="1312.95" y="567.43" fill="none" width="1.98" height="1.98"/>
					<circle cx="1313.94" cy="568.42" r="0.99"/>
				</g>
				<g>
					<rect x="1312.95" y="570.9" fill="none" width="1.98" height="1.98"/>
					<circle cx="1313.94" cy="571.89" r="0.99"/>
				</g>
				<g>
					<rect x="1312.95" y="574.36" fill="none" width="1.98" height="1.98"/>
					<circle cx="1313.94" cy="575.35" r="0.99"/>
				</g>
				<g>
					<rect x="1312.95" y="577.82" fill="none" width="1.98" height="1.98"/>
					<circle cx="1313.94" cy="578.81" r="0.99"/>
				</g>
				<g>
					<rect x="1312.95" y="581.29" fill="none" width="1.98" height="1.98"/>
					<circle cx="1313.94" cy="582.28" r="0.99"/>
				</g>
				<g>
					<rect x="1312.95" y="584.75" fill="none" width="1.98" height="1.98"/>
					<circle cx="1313.94" cy="585.74" r="0.99"/>
				</g>
				<g>
					<rect x="1312.95" y="588.21" fill="none" width="1.98" height="1.98"/>
					<circle cx="1313.94" cy="589.2" r="0.99"/>
				</g>
				<g>
					<rect x="1312.95" y="591.68" fill="none" width="1.98" height="1.98"/>
					<circle cx="1313.94" cy="592.67" r="0.99"/>
				</g>
			</g>
		</g>
	</g>
</g>
<rect x="141.5" y="58.52" width="1024" height="768"/>
</svg>
