<?xml version="1.0" encoding="utf-8"?>
<!-- Generator: Adobe Illustrator 18.0.0, SVG Export Plug-In . SVG Version: 6.00 Build 0)  -->
<!DOCTYPE svg PUBLIC "-//W3C//DTD SVG 1.1//EN" "http://www.w3.org/Graphics/SVG/1.1/DTD/svg11.dtd">
<svg version="1.1" id="Layer_1" xmlns="http://www.w3.org/2000/svg" xmlns:xlink="http://www.w3.org/1999/xlink" x="0px" y="0px"
	 width="406px" height="804px" viewBox="0 0 406 804" enable-background="new 0 0 406 804" xml:space="preserve">
<g>
	<g>
		<path fill="#1A1A1A" d="M4.3,156.42c-1.27,0-2.3,1.04-2.3,2.3v102.34c0,1.27,1.04,2.3,2.3,2.3h4.31V156.42H4.3z"/>
		<linearGradient id="SVGID_1_" gradientUnits="userSpaceOnUse" x1="3.0527" y1="209.8951" x2="5.5931" y2="209.8951">
			<stop  offset="0" style="stop-color:#636363;stop-opacity:0"/>
			<stop  offset="1" style="stop-color:#000000"/>
		</linearGradient>
		<path opacity="0.6" fill="url(#SVGID_1_)" d="M4.3,156.42c-1.27,0-2.3,1.04-2.3,2.3v102.34c0,1.27,1.04,2.3,2.3,2.3h4.31V156.42
			H4.3z"/>
		<path opacity="0.5" fill="#FFFFFF" d="M4.3,156.42c-1.27,0-2.3,1.04-2.3,2.3v0.86c0-1.27,1.04-2.3,2.3-2.3h4.31v-0.86H4.3z"/>
		<g>
			<path fill="#1A1A1A" d="M402.7,103.56c1.27,0,2.3,1.04,2.3,2.3v47.94c0,1.27-1.04,2.3-2.3,2.3h-2.43v-52.54H402.7z"/>
			<linearGradient id="SVGID_2_" gradientUnits="userSpaceOnUse" x1="404.6853" y1="129.8262" x2="396.3967" y2="129.8262">
				<stop  offset="0" style="stop-color:#636363;stop-opacity:0"/>
				<stop  offset="1" style="stop-color:#000000"/>
			</linearGradient>
			<path opacity="0.6" fill="url(#SVGID_2_)" d="M402.7,103.56c1.27,0,2.3,1.04,2.3,2.3v47.94c0,1.27-1.04,2.3-2.3,2.3h-2.43v-52.54
				H402.7z"/>
			<path opacity="0.5" fill="#FFFFFF" d="M402.7,103.56h-2.44v0.91h2.44c1.27,0,2.3,1.04,2.3,2.3v-0.91
				C405,104.59,403.96,103.56,402.7,103.56z"/>
		</g>
		<path fill="#232323" d="M401.5,48.25c0,0,0.74-22.01-19.41-31.21C360.16,7.02,250.63,2,203.44,2C156.24,2,46.71,7.02,24.78,17.04
			C4.63,26.24,5.5,48.25,5.5,48.25V756c0,0-0.87,22,19.28,31.21c21.93,10.02,131.46,15.05,178.66,15.05
			c47.19,0,156.72-5.03,178.65-15.05C402.24,778,401.5,756,401.5,756V48.25z"/>
		<path fill="#404040" d="M203.44,799.38c-49.25,0-156.52-5.22-177.46-14.79C7.89,776.33,8.31,756.92,8.34,756.1l0-707.85
			c-0.03-0.92-0.45-20.33,17.64-28.59C46.92,10.09,154.19,4.88,203.44,4.88c49.24,0,156.52,5.22,177.46,14.78
			c18.18,8.31,17.65,28.28,17.64,28.48l0,707.85c0.03,0.92,0.45,20.33-17.64,28.59C359.95,794.16,252.68,799.38,203.44,799.38z"/>
		<g>
			<linearGradient id="SVGID_3_" gradientUnits="userSpaceOnUse" x1="8.3311" y1="402.9893" x2="8.3369" y2="402.9893">
				<stop  offset="0" style="stop-color:#FFFFFF;stop-opacity:0.3"/>
				<stop  offset="0.8587" style="stop-color:#FFFFFF;stop-opacity:0.0424"/>
				<stop  offset="1" style="stop-color:#FFFFFF;stop-opacity:0"/>
			</linearGradient>
			<path fill="url(#SVGID_3_)" d="M8.34,49.09L8.34,49.09l0,707.01c0,0.08-0.01,0.36,0,0.79L8.34,49.09z"/>
			<linearGradient id="SVGID_4_" gradientUnits="userSpaceOnUse" x1="398.5308" y1="756.418" x2="398.537" y2="756.418">
				<stop  offset="0" style="stop-color:#FFFFFF;stop-opacity:0.3"/>
				<stop  offset="0.8587" style="stop-color:#FFFFFF;stop-opacity:0.0424"/>
				<stop  offset="1" style="stop-color:#FFFFFF;stop-opacity:0"/>
			</linearGradient>
			<path fill="url(#SVGID_4_)" d="M398.53,756v0.83c0,0,0,0,0,0C398.54,756.39,398.54,756.09,398.53,756z"/>
			<linearGradient id="SVGID_5_" gradientUnits="userSpaceOnUse" x1="8.3313" y1="26.6494" x2="398.5369" y2="26.6494">
				<stop  offset="0" style="stop-color:#FFFFFF;stop-opacity:0.3"/>
				<stop  offset="0.8587" style="stop-color:#FFFFFF;stop-opacity:0.0424"/>
				<stop  offset="1" style="stop-color:#FFFFFF;stop-opacity:0"/>
			</linearGradient>
			<path fill="url(#SVGID_5_)" d="M25.98,20.5C46.92,10.93,154.19,5.71,203.44,5.71c49.24,0,156.52,5.22,177.46,14.79
				c16.47,7.52,17.58,24.61,17.64,27.92v-0.28c0.01-0.2,0.54-20.18-17.64-28.48C359.95,10.09,252.68,4.88,203.44,4.88
				c-49.25,0-156.52,5.22-177.46,14.78C7.89,27.92,8.31,47.31,8.34,48.25C8.41,44.31,9.73,27.92,25.98,20.5z"/>
		</g>
		<g>
			<path fill="#262626" d="M203.44,795.63c-50.87,0-156.29-5.48-175.9-14.45c-15.77-7.2-15.48-24.25-15.46-24.98l0-708.17
				c-0.01-3.02,0.67-18.22,15.46-24.97C47.15,14.1,152.57,8.62,203.44,8.62c50.87,0,156.29,5.48,175.9,14.44
				c15.87,7.25,15.46,24.76,15.45,24.94v708.21c0.02,0.75,0.3,17.78-15.45,24.97C359.72,790.15,254.3,795.63,203.44,795.63z"/>
			<g>
				<path d="M203.44,9.48c50.8,0,156.04,5.45,175.55,14.37c15.28,6.98,14.96,23.96,14.95,24.12c0,0.02,0,0.05,0,0.07l0,708.22
					c0.02,0.7,0.29,17.18-14.95,24.14c-19.51,8.91-124.74,14.37-175.55,14.37c-50.8,0-156.03-5.45-175.55-14.37
					c-15.26-6.97-14.97-23.47-14.95-24.22l0-708.2c-0.01-2.88,0.65-17.6,14.95-24.14C47.4,14.94,152.63,9.48,203.44,9.48
					 M203.44,7.76c-50.93,0-156.54,5.51-176.26,14.52C10.9,29.71,11.21,47.3,11.21,48.04l0,708.15
					c-0.02,0.75-0.31,18.35,15.96,25.79c19.72,9.01,125.33,14.52,176.26,14.52c50.93,0,156.54-5.51,176.26-14.52
					c16.27-7.43,15.98-25.04,15.96-25.76V48.04c0.01-0.18,0.49-18.25-15.96-25.76C359.98,13.27,254.37,7.76,203.44,7.76L203.44,7.76
					z"/>
			</g>
		</g>
		<g>
			<g>
				<circle fill-rule="evenodd" clip-rule="evenodd" fill="#262626" cx="203.44" cy="758.21" r="7.31"/>
				<circle fill-rule="evenodd" clip-rule="evenodd" fill="#29292A" cx="203.44" cy="758.21" r="7.06"/>
				<circle fill-rule="evenodd" clip-rule="evenodd" fill="#2C2B2D" cx="203.44" cy="758.21" r="6.81"/>
				<circle fill-rule="evenodd" clip-rule="evenodd" fill="#2E2E31" cx="203.44" cy="758.21" r="6.56"/>
				<circle fill-rule="evenodd" clip-rule="evenodd" fill="#313135" cx="203.44" cy="758.21" r="6.32"/>
				<circle fill-rule="evenodd" clip-rule="evenodd" fill="#343338" cx="203.44" cy="758.21" r="6.07"/>
				<circle fill-rule="evenodd" clip-rule="evenodd" fill="#37363C" cx="203.44" cy="758.21" r="5.82"/>
				<circle fill-rule="evenodd" clip-rule="evenodd" fill="#3A383F" cx="203.44" cy="758.21" r="5.57"/>
				<circle fill-rule="evenodd" clip-rule="evenodd" fill="#3D3B43" cx="203.44" cy="758.21" r="5.33"/>
				<circle fill-rule="evenodd" clip-rule="evenodd" fill="#3F3E47" cx="203.44" cy="758.21" r="5.08"/>
				<circle fill-rule="evenodd" clip-rule="evenodd" fill="#42404A" cx="203.44" cy="758.21" r="4.83"/>
				<circle fill-rule="evenodd" clip-rule="evenodd" fill="#45434E" cx="203.44" cy="758.21" r="4.58"/>
			</g>
			<g>
				<circle fill-rule="evenodd" clip-rule="evenodd" fill="#45434E" cx="203.44" cy="758.21" r="4.58"/>
				<circle fill-rule="evenodd" clip-rule="evenodd" fill="#52505B" cx="203.44" cy="758.21" r="4.23"/>
				<circle fill-rule="evenodd" clip-rule="evenodd" fill="#5F5D69" cx="203.44" cy="758.21" r="3.88"/>
				<circle fill-rule="evenodd" clip-rule="evenodd" fill="#6C6A76" cx="203.44" cy="758.21" r="3.54"/>
				<circle fill-rule="evenodd" clip-rule="evenodd" fill="#797783" cx="203.44" cy="758.21" r="3.19"/>
				<circle fill-rule="evenodd" clip-rule="evenodd" fill="#868491" cx="203.44" cy="758.21" r="2.84"/>
				<circle fill-rule="evenodd" clip-rule="evenodd" fill="#94929E" cx="203.44" cy="758.21" r="2.49"/>
				<circle fill-rule="evenodd" clip-rule="evenodd" fill="#A19FAC" cx="203.43" cy="758.21" r="2.14"/>
				<circle fill-rule="evenodd" clip-rule="evenodd" fill="#AEACB9" cx="203.43" cy="758.21" r="1.79"/>
				<circle fill-rule="evenodd" clip-rule="evenodd" fill="#BBB9C6" cx="203.43" cy="758.21" r="1.44"/>
				<circle fill-rule="evenodd" clip-rule="evenodd" fill="#C8C6D4" cx="203.43" cy="758.21" r="1.09"/>
				<circle fill-rule="evenodd" clip-rule="evenodd" fill="#D5D3E1" cx="203.43" cy="758.21" r="0.74"/>
			</g>
			<circle fill-rule="evenodd" clip-rule="evenodd" fill="#FFFFFF" cx="203.43" cy="758.21" r="0.74"/>
		</g>
		<g>
			<g>
				<linearGradient id="SVGID_6_" gradientUnits="userSpaceOnUse" x1="395.6572" y1="48.937" x2="395.6599" y2="48.937">
					<stop  offset="0" style="stop-color:#FFFFFF;stop-opacity:0.3"/>
					<stop  offset="0.8587" style="stop-color:#FFFFFF;stop-opacity:0.0424"/>
					<stop  offset="1" style="stop-color:#FFFFFF;stop-opacity:0"/>
				</linearGradient>
				<path fill="url(#SVGID_6_)" d="M395.66,48.68v0.5C395.66,49.17,395.66,49,395.66,48.68z"/>
			</g>
			<g>
				<linearGradient id="SVGID_7_" gradientUnits="userSpaceOnUse" x1="11.2088" y1="777.1978" x2="395.6601" y2="777.1978">
					<stop  offset="0" style="stop-color:#FFFFFF;stop-opacity:0.3"/>
					<stop  offset="0.8587" style="stop-color:#FFFFFF;stop-opacity:0.0424"/>
					<stop  offset="1" style="stop-color:#FFFFFF;stop-opacity:0"/>
				</linearGradient>
				<path fill="url(#SVGID_7_)" d="M395.66,756.75c-0.05,3.09-1.06,18.42-15.96,25.22c-19.72,9.01-125.33,14.52-176.26,14.52
					c-50.93,0-156.54-5.51-176.26-14.52c-14.87-6.79-15.91-22.07-15.96-25.22v0.59c-0.02,0.75-0.31,18.36,15.96,25.79
					c19.72,9.01,125.33,14.53,176.26,14.53c50.93,0,156.54-5.52,176.26-14.53c16.27-7.43,15.98-25.04,15.96-25.76V756.75z"/>
			</g>
			<g>
				<linearGradient id="SVGID_8_" gradientUnits="userSpaceOnUse" x1="11.2112" y1="402.5791" x2="11.2119" y2="402.5791">
					<stop  offset="0" style="stop-color:#FFFFFF;stop-opacity:0.3"/>
					<stop  offset="0.8587" style="stop-color:#FFFFFF;stop-opacity:0.0424"/>
					<stop  offset="1" style="stop-color:#FFFFFF;stop-opacity:0"/>
				</linearGradient>
				<path fill="url(#SVGID_8_)" d="M11.21,756.18L11.21,756.18l0-707.21c0,0.1,0,0.18,0,0.22L11.21,756.18z"/>
			</g>
		</g>
		<circle fill="#4D4D4D" cx="203.44" cy="41.26" r="10.64"/>
		<linearGradient id="SVGID_9_" gradientUnits="userSpaceOnUse" x1="203.4353" y1="52.373" x2="203.4353" y2="45.0016">
			<stop  offset="0" style="stop-color:#FFFFFF;stop-opacity:0.5"/>
			<stop  offset="0.8587" style="stop-color:#FFFFFF;stop-opacity:0.0707"/>
			<stop  offset="1" style="stop-color:#FFFFFF;stop-opacity:0"/>
		</linearGradient>
		<path opacity="0.4" fill="url(#SVGID_9_)" d="M203.44,51.2c-5.76,0-10.44-4.58-10.63-10.29c-0.01,0.12-0.02,0.23-0.02,0.35
			c0,5.88,4.77,10.64,10.64,10.64c5.88,0,10.64-4.76,10.64-10.64c0-0.12-0.01-0.24-0.02-0.35C213.88,46.62,209.2,51.2,203.44,51.2z"
			/>
		<path fill="#1A1A1A" d="M203.44,31.32c5.76,0,10.44,4.58,10.63,10.29c0.01-0.12,0.02-0.23,0.02-0.35
			c0-5.88-4.77-10.64-10.64-10.64c-5.88,0-10.64,4.76-10.64,10.64c0,0.12,0.01,0.24,0.02,0.35C193,35.9,197.68,31.32,203.44,31.32z"
			/>
		<g>
			<circle cx="210.54" cy="41.36" r="0.75"/>
			<circle cx="210.54" cy="41.36" r="0.75"/>
			<circle cx="208.46" cy="36.33" r="0.75"/>
			<circle cx="203.44" cy="34.25" r="0.75"/>
			<path d="M197.88,35.8c0.29-0.29,0.77-0.29,1.07,0c0.29,0.3,0.29,0.78,0,1.07c-0.3,0.3-0.77,0.3-1.07,0
				C197.58,36.58,197.58,36.1,197.88,35.8z"/>
			<circle cx="196.33" cy="41.36" r="0.75"/>
			<circle cx="198.41" cy="46.39" r="0.75"/>
			<path d="M203.44,45.67c-0.42,0-0.75-0.34-0.75-0.75c0-0.42,0.34-0.75,0.75-0.75c0.42,0,0.76,0.34,0.76,0.75
				C204.19,45.33,203.85,45.67,203.44,45.67z"/>
			<circle cx="203.44" cy="48.47" r="0.75"/>
			<g>
				<circle cx="203.44" cy="41.36" r="0.75"/>
				<circle cx="206.99" cy="41.36" r="0.75"/>
				<circle cx="206.99" cy="41.36" r="0.75"/>
				<circle cx="205.95" cy="38.85" r="0.75"/>
				<circle cx="203.43" cy="37.81" r="0.75"/>
				<circle cx="200.92" cy="38.85" r="0.75"/>
				<path d="M199.13,41.36c0-0.42,0.34-0.76,0.75-0.76c0.42,0,0.75,0.34,0.75,0.76c0,0.42-0.34,0.75-0.75,0.75
					C199.47,42.12,199.13,41.78,199.13,41.36z"/>
				<circle cx="200.92" cy="43.88" r="0.75"/>
				<path d="M206.48,44.41c-0.3,0.29-0.77,0.29-1.07,0c-0.29-0.3-0.29-0.77,0-1.07c0.3-0.3,0.77-0.3,1.07,0
					C206.78,43.63,206.78,44.11,206.48,44.41z"/>
			</g>
			<circle cx="208.46" cy="46.39" r="0.75"/>
			<circle cx="209.99" cy="38.62" r="0.75"/>
			<circle cx="209.99" cy="38.62" r="0.75"/>
			<circle cx="206.14" cy="34.79" r="0.75"/>
			<circle cx="200.7" cy="34.8" r="0.75"/>
			<path d="M196.16,38.37c0.16-0.38,0.6-0.57,0.98-0.41c0.39,0.16,0.57,0.6,0.41,0.98c-0.16,0.39-0.6,0.57-0.99,0.41
				C196.19,39.2,196,38.76,196.16,38.37z"/>
			<circle cx="196.87" cy="44.1" r="0.76"/>
			<circle cx="200.73" cy="47.93" r="0.75"/>
			<path d="M206.46,48.61c-0.38,0.16-0.82-0.02-0.99-0.4c-0.16-0.38,0.02-0.83,0.41-0.99c0.38-0.16,0.83,0.02,0.99,0.41
				C207.03,48.01,206.85,48.45,206.46,48.61z"/>
			<circle cx="210.01" cy="44.06" r="0.75"/>
		</g>
		<g>
			<g>
				<circle fill="#5D5D5F" cx="67.59" cy="41.26" r="7.58"/>
				
					<radialGradient id="SVGID_10_" cx="67.5664" cy="43.1502" r="7.5809" gradientTransform="matrix(1.0003 0 0 1.0001 0.0695 -0.8151)" gradientUnits="userSpaceOnUse">
					<stop  offset="0" style="stop-color:#000000;stop-opacity:0"/>
					<stop  offset="0.5149" style="stop-color:#020202;stop-opacity:0.4119"/>
					<stop  offset="0.7003" style="stop-color:#090909;stop-opacity:0.5603"/>
					<stop  offset="0.8325" style="stop-color:#141414;stop-opacity:0.666"/>
					<stop  offset="0.9387" style="stop-color:#252525;stop-opacity:0.7509"/>
					<stop  offset="1" style="stop-color:#333333;stop-opacity:0.8"/>
				</radialGradient>
				<circle fill="url(#SVGID_10_)" cx="67.59" cy="41.26" r="7.58"/>
				<circle fill="#1B1A1F" cx="67.59" cy="41.26" r="4.25"/>
				<circle fill="#36284C" cx="67.59" cy="41.26" r="3.11"/>
				
					<radialGradient id="SVGID_11_" cx="67.3611" cy="44.9528" r="5.9525" gradientTransform="matrix(1.0003 0 0 1.0001 0.0695 -0.8151)" gradientUnits="userSpaceOnUse">
					<stop  offset="0" style="stop-color:#FFFFFF;stop-opacity:0.3"/>
					<stop  offset="1" style="stop-color:#000000;stop-opacity:0"/>
				</radialGradient>
				<circle fill="url(#SVGID_11_)" cx="67.59" cy="41.26" r="3.11"/>
				<g>
					<circle opacity="0.5" fill="#141414" cx="67.59" cy="41.26" r="1.71"/>
					
						<radialGradient id="SVGID_12_" cx="67.5295" cy="41.1777" r="1.9654" gradientTransform="matrix(1.0003 0 0 1.0001 0.0695 -0.8151)" gradientUnits="userSpaceOnUse">
						<stop  offset="0" style="stop-color:#FFFFFF;stop-opacity:0.3"/>
						<stop  offset="1" style="stop-color:#000000;stop-opacity:0"/>
					</radialGradient>
					<circle fill="url(#SVGID_12_)" cx="67.59" cy="41.26" r="1.71"/>
				</g>
				<linearGradient id="SVGID_13_" gradientUnits="userSpaceOnUse" x1="67.5938" y1="40.0405" x2="67.5938" y2="40.9179">
					<stop  offset="0" style="stop-color:#FFFFFF;stop-opacity:0.6"/>
					<stop  offset="1" style="stop-color:#FFFFFF;stop-opacity:0.1"/>
				</linearGradient>
				<path fill="url(#SVGID_13_)" d="M67.59,39.98c-0.38,0-0.71,0.17-0.94,0.43l0.4,0.4c0.13-0.16,0.32-0.27,0.54-0.27
					c0.23,0,0.42,0.11,0.55,0.28l0.4-0.4C68.31,40.16,67.97,39.98,67.59,39.98z"/>
			</g>
		</g>
	</g>
	<g>
		<linearGradient id="SVGID_14_" gradientUnits="userSpaceOnUse" x1="-33.2138" y1="135.8493" x2="154.0053" y2="244.3515">
			<stop  offset="0" style="stop-color:#FFFFFF;stop-opacity:0.15"/>
			<stop  offset="1" style="stop-color:#FFFFFF;stop-opacity:0"/>
		</linearGradient>
		<path fill="url(#SVGID_14_)" d="M203.44,7.76c-50.93,0-156.54,5.51-176.26,14.52C10.9,29.71,11.21,47.3,11.21,48.04v429.07
			L296.02,11.14C262.77,8.95,227.17,7.76,203.44,7.76z"/>
	</g>
</g>
<rect x="22" y="67" width="360" height="640"/>
</svg>
