<?xml version="1.0" encoding="utf-8"?>
<!-- Generator: Adobe Illustrator 18.0.0, SVG Export Plug-In . SVG Version: 6.00 Build 0)  -->
<!DOCTYPE svg PUBLIC "-//W3C//DTD SVG 1.1//EN" "http://www.w3.org/Graphics/SVG/1.1/DTD/svg11.dtd">
<svg version="1.1" id="Layer_1" xmlns="http://www.w3.org/2000/svg" xmlns:xlink="http://www.w3.org/1999/xlink" x="0px" y="0px"
	 width="241px" height="415px" viewBox="0 0 241 415" enable-background="new 0 0 241 415" xml:space="preserve">
<g>
	<linearGradient id="SVGID_1_" gradientUnits="userSpaceOnUse" x1="120.2729" y1="72.2105" x2="120.2729" y2="-12.548">
		<stop  offset="0" style="stop-color:#333333"/>
		<stop  offset="0.2581" style="stop-color:#2D2D2D"/>
		<stop  offset="0.5992" style="stop-color:#1C1C1C"/>
		<stop  offset="0.9855" style="stop-color:#010101"/>
		<stop  offset="1" style="stop-color:#000000"/>
	</linearGradient>
	<path fill="url(#SVGID_1_)" d="M187.77,103h-135c-2.76,0-5-2.24-5-5V11.5c0-3.31,2.69-6,6-6h133c3.31,0,6,2.69,6,6V98
		C192.77,100.76,190.53,103,187.77,103z"/>
	<linearGradient id="SVGID_2_" gradientUnits="userSpaceOnUse" x1="120.2729" y1="24.882" x2="120.2729" y2="109.5">
		<stop  offset="0" style="stop-color:#000000;stop-opacity:0"/>
		<stop  offset="0.8537" style="stop-color:#000000;stop-opacity:0.8537"/>
		<stop  offset="1" style="stop-color:#000000"/>
	</linearGradient>
	<rect x="47.77" y="24.88" opacity="0.8" fill="url(#SVGID_2_)" width="145" height="84.62"/>
	
		<linearGradient id="SVGID_3_" gradientUnits="userSpaceOnUse" x1="11043.1025" y1="3219.6843" x2="11043.1025" y2="3144.4883" gradientTransform="matrix(-1 0 0 -1 11166.375 3572)">
		<stop  offset="0" style="stop-color:#333333"/>
		<stop  offset="0.2581" style="stop-color:#2D2D2D"/>
		<stop  offset="0.5992" style="stop-color:#1C1C1C"/>
		<stop  offset="0.9855" style="stop-color:#010101"/>
		<stop  offset="1" style="stop-color:#000000"/>
	</linearGradient>
	<path fill="url(#SVGID_3_)" d="M55.77,325h135c2.76,0,5,2.24,5,5v75.5c0,3.31-2.69,6-6,6h-133c-3.31,0-6-2.69-6-6V330
		C50.77,327.24,53.01,325,55.77,325z"/>
	
		<linearGradient id="SVGID_4_" gradientUnits="userSpaceOnUse" x1="11043.1025" y1="3163.8313" x2="11043.1025" y2="3250.5" gradientTransform="matrix(-1 0 0 -1 11166.375 3572)">
		<stop  offset="0" style="stop-color:#000000;stop-opacity:0"/>
		<stop  offset="0.8537" style="stop-color:#000000;stop-opacity:0.8537"/>
		<stop  offset="1" style="stop-color:#000000"/>
	</linearGradient>
	<rect x="50.77" y="321.5" opacity="0.8" fill="url(#SVGID_4_)" width="145" height="86.67"/>
	<g>
		<path fill="#212121" d="M220.77,331.5h-198c-8.84,0-16-7.16-16-16v-210c0-8.84,7.16-16,16-16h198c8.84,0,16,7.16,16,16v210
			C236.77,324.34,229.61,331.5,220.77,331.5z"/>
	</g>
	<g>
		<linearGradient id="SVGID_5_" gradientUnits="userSpaceOnUse" x1="6.7729" y1="210.5" x2="236.7729" y2="210.5">
			<stop  offset="0" style="stop-color:#FFFFFF;stop-opacity:0.15"/>
			<stop  offset="1" style="stop-color:#FFFFFF;stop-opacity:0"/>
		</linearGradient>
		<path fill="url(#SVGID_5_)" d="M220.77,331.5h-198c-8.84,0-16-7.16-16-16v-210c0-8.84,7.16-16,16-16h198c8.84,0,16,7.16,16,16v210
			C236.77,324.34,229.61,331.5,220.77,331.5z"/>
	</g>
	<g opacity="0.06">
		<path fill="#FFFFFF" d="M220.77,89.5h-198c-8.84,0-16,7.16-16,16v4c0-8.84,7.16-16,16-16h198c8.84,0,16,7.16,16,16v-4
			C236.77,96.66,229.61,89.5,220.77,89.5z"/>
	</g>
	<g opacity="0.3">
		<path d="M22.77,331.5h198c8.84,0,16-7.16,16-16v-4c0,8.84-7.16,16-16,16h-198c-8.84,0-16-7.16-16-16v4
			C6.77,324.34,13.94,331.5,22.77,331.5z"/>
	</g>
</g>
<rect x="28.69" y="119" width="186" height="186"/>
</svg>
